<svg width="48" height="48" viewBox="0 0 48 48" fill="none" xmlns="http://www.w3.org/2000/svg">
<path fill-rule="evenodd" clip-rule="evenodd" d="M27.2615 30.182C27.2615 23.7205 22.0234 18.4824 15.5619 18.4824C9.10039 18.4824 3.8623 23.7205 3.8623 30.182C3.8623 36.6435 9.10039 41.8816 15.5619 41.8816C22.0234 41.8816 27.2615 36.6435 27.2615 30.182ZM16.5623 24.3321C16.5623 23.7798 16.1146 23.3321 15.5623 23.3321C15.0101 23.3321 14.5623 23.7798 14.5623 24.3321V30.8318C14.5623 31.3841 15.0101 31.8318 15.5623 31.8318H22.0621C22.6144 31.8318 23.0621 31.3841 23.0621 30.8318C23.0621 30.2796 22.6144 29.8318 22.0621 29.8318H16.5623V24.3321Z" fill="white"/>
<path fill-rule="evenodd" clip-rule="evenodd" d="M30.8359 31.4824C39.6107 36.0325 46.7604 28.2326 41.5606 20.7578C45.7855 16.8581 44.8105 9.05827 36.3608 8.73321C34.4108 3.53378 23.3612 3.20865 22.3863 11.333C19.7349 11.5743 16.5471 13.6032 17.1986 17.2871C23.6055 18.0919 28.5617 23.5595 28.5617 30.1847C28.5617 30.7927 28.5199 31.391 28.4391 31.9768C29.237 31.9773 30.0462 31.821 30.8359 31.4824Z" fill="white"/>
<path d="M30.7931 43V24.1368M30.7931 11V19.4211M30.7931 24.1368L37 20.0947M30.7931 24.1368V19.4211M30.7931 19.4211L27 15.7158" stroke="white" stroke-width="2" stroke-linecap="round"/>
</svg>
