<svg width="24" height="24" viewBox="0 0 24 24" fill="none" xmlns="http://www.w3.org/2000/svg">
<path fill-rule="evenodd" clip-rule="evenodd" d="M12.0002 21C16.9708 21 21.0002 16.9706 21.0002 12C21.0002 7.02944 16.9708 3 12.0002 3C7.02968 3 3.00024 7.02944 3.00024 12C3.00024 13.8401 3.55247 15.5512 4.50024 16.9767L3.58403 20.0446C3.3461 20.8413 4.12781 21.5635 4.9032 21.2633L8.00024 20.0645C9.2052 20.6633 10.5634 21 12.0002 21ZM15.0306 17.6297C10.7892 16.55 7.45029 13.211 6.37053 8.96964C5.96176 7.364 7.34339 6 9.00024 6C9.82867 6 10.4846 6.67812 10.6483 7.49021C10.6612 7.55411 10.6749 7.61772 10.6894 7.68103C10.8399 8.3383 10.7086 9.04905 10.2318 9.52584L9.87736 9.88025C10.7643 11.7335 12.2667 13.236 14.12 14.1229L14.4744 13.7685C14.9512 13.2917 15.662 13.1604 16.3192 13.3109C16.3825 13.3254 16.4461 13.3391 16.51 13.352C17.3221 13.5157 18.0002 14.1716 18.0002 15C18.0002 16.6569 16.6362 18.0385 15.0306 17.6297Z" fill="white"/>
</svg>
