<svg width="49" height="48" viewBox="0 0 49 48" fill="none" xmlns="http://www.w3.org/2000/svg">
<mask id="path-1-inside-1_1040_48067" fill="white">
<path fill-rule="evenodd" clip-rule="evenodd" d="M12.4216 43.0004C17.2569 43.0004 21.1766 39.0806 21.1766 34.2453C21.1766 29.41 17.2569 25.4902 12.4216 25.4902C7.58628 25.4902 3.6665 29.41 3.6665 34.2453C3.6665 39.0806 7.58628 43.0004 12.4216 43.0004ZM17.1696 32.9317C17.5601 32.5412 17.5601 31.908 17.1696 31.5175C16.7791 31.1269 16.1459 31.1269 15.7554 31.5175L11.4115 35.8614L9.76149 34.2113C9.37097 33.8208 8.7378 33.8208 8.34728 34.2113C7.95675 34.6019 7.95675 35.235 8.34728 35.6256L10.7044 37.9827C11.0949 38.3732 11.7281 38.3732 12.1186 37.9827L17.1696 32.9317Z"/>
</mask>
<path fill-rule="evenodd" clip-rule="evenodd" d="M12.4216 43.0004C17.2569 43.0004 21.1766 39.0806 21.1766 34.2453C21.1766 29.41 17.2569 25.4902 12.4216 25.4902C7.58628 25.4902 3.6665 29.41 3.6665 34.2453C3.6665 39.0806 7.58628 43.0004 12.4216 43.0004ZM17.1696 32.9317C17.5601 32.5412 17.5601 31.908 17.1696 31.5175C16.7791 31.1269 16.1459 31.1269 15.7554 31.5175L11.4115 35.8614L9.76149 34.2113C9.37097 33.8208 8.7378 33.8208 8.34728 34.2113C7.95675 34.6019 7.95675 35.235 8.34728 35.6256L10.7044 37.9827C11.0949 38.3732 11.7281 38.3732 12.1186 37.9827L17.1696 32.9317Z" fill="white"/>
<path d="M17.1696 31.5175L19.2909 29.3962L19.2909 29.3962L17.1696 31.5175ZM17.1696 32.9317L19.2909 35.053H19.2909L17.1696 32.9317ZM15.7554 31.5175L13.6341 29.3962L13.6341 29.3962L15.7554 31.5175ZM11.4115 35.8614L9.29019 37.9827L11.4115 40.104L13.5328 37.9827L11.4115 35.8614ZM8.34728 34.2113L10.4686 36.3327L10.4686 36.3327L8.34728 34.2113ZM8.34728 35.6256L6.22595 37.7469L6.22596 37.7469L8.34728 35.6256ZM10.7044 37.9827L12.8257 35.8614L12.8257 35.8614L10.7044 37.9827ZM12.1186 37.9827L9.9973 35.8614L12.1186 37.9827ZM18.1766 34.2453C18.1766 37.4237 15.6 40.0004 12.4216 40.0004V46.0004C18.9137 46.0004 24.1766 40.7374 24.1766 34.2453H18.1766ZM12.4216 28.4902C15.6 28.4902 18.1766 31.0669 18.1766 34.2453H24.1766C24.1766 27.7532 18.9137 22.4902 12.4216 22.4902V28.4902ZM6.6665 34.2453C6.6665 31.0669 9.24313 28.4902 12.4216 28.4902V22.4902C5.92942 22.4902 0.666504 27.7532 0.666504 34.2453H6.6665ZM12.4216 40.0004C9.24313 40.0004 6.6665 37.4237 6.6665 34.2453H0.666504C0.666504 40.7374 5.92942 46.0004 12.4216 46.0004V40.0004ZM15.0483 33.6388C14.2672 32.8577 14.2672 31.5914 15.0483 30.8104L19.2909 35.053C20.853 33.4909 20.853 30.9582 19.2909 29.3962L15.0483 33.6388ZM17.8767 33.6388C17.0957 34.4198 15.8293 34.4198 15.0483 33.6388L19.2909 29.3962C17.7288 27.8341 15.1962 27.8341 13.6341 29.3962L17.8767 33.6388ZM13.5328 37.9827L17.8767 33.6388L13.6341 29.3962L9.29019 33.74L13.5328 37.9827ZM7.64017 36.3327L9.29019 37.9827L13.5328 33.74L11.8828 32.09L7.64017 36.3327ZM10.4686 36.3327C9.68755 37.1137 8.42122 37.1137 7.64017 36.3327L11.8828 32.09C10.3207 30.5279 7.78805 30.5279 6.22595 32.09L10.4686 36.3327ZM10.4686 33.5042C11.2496 34.2853 11.2496 35.5516 10.4686 36.3327L6.22596 32.09C4.66386 33.6521 4.66386 36.1848 6.22595 37.7469L10.4686 33.5042ZM12.8257 35.8614L10.4686 33.5042L6.22596 37.7469L8.58309 40.104L12.8257 35.8614ZM9.9973 35.8614C10.7783 35.0803 12.0447 35.0803 12.8257 35.8614L8.58309 40.104C10.1452 41.6661 12.6778 41.6661 14.2399 40.104L9.9973 35.8614ZM15.0483 30.8104L9.9973 35.8614L14.2399 40.104L19.2909 35.053L15.0483 30.8104Z" fill="white" mask="url(#path-1-inside-1_1040_48067)"/>
<path fill-rule="evenodd" clip-rule="evenodd" d="M45.4214 12V14.9125H9.0542V12C9.0542 10.8954 9.94963 10 11.0542 10H43.4214C44.5259 10 45.4214 10.8954 45.4214 12ZM9.0542 19.8249H45.4214V32.9183C45.4214 34.0228 44.5259 34.9183 43.4214 34.9183H23.2685C23.2996 34.5987 23.3156 34.275 23.3156 33.9477C23.3156 28.1825 18.3671 23.509 12.2628 23.509C11.1469 23.509 10.0697 23.6652 9.0542 23.9556V19.8249Z" fill="white"/>
</svg>
