<svg width="32" height="32" viewBox="0 0 32 32" fill="none" xmlns="http://www.w3.org/2000/svg">
<path d="M6.18 20.15C5.67333 20.15 5.24667 20.025 4.9 19.775C4.55333 19.5217 4.29 19.18 4.11 18.75C3.93333 18.3167 3.845 17.8317 3.845 17.295C3.845 16.7517 3.93333 16.265 4.11 15.835C4.29 15.405 4.55333 15.0667 4.9 14.82C5.25 14.5733 5.67833 14.45 6.185 14.45C6.685 14.45 7.115 14.575 7.475 14.825C7.83833 15.0717 8.11667 15.41 8.31 15.84C8.50333 16.27 8.6 16.755 8.6 17.295C8.6 17.835 8.50333 18.32 8.31 18.75C8.11667 19.18 7.83833 19.5217 7.475 19.775C7.115 20.025 6.68333 20.15 6.18 20.15ZM3.695 22.4V14.6H4.49V18.575H4.59V22.4H3.695ZM6.07 19.335C6.42667 19.335 6.72167 19.245 6.955 19.065C7.18833 18.885 7.36333 18.6417 7.48 18.335C7.59667 18.025 7.655 17.6783 7.655 17.295C7.655 16.915 7.59667 16.5717 7.48 16.265C7.36667 15.9583 7.19 15.715 6.95 15.535C6.71333 15.355 6.41167 15.265 6.045 15.265C5.695 15.265 5.405 15.3517 5.175 15.525C4.945 15.695 4.77333 15.9333 4.66 16.24C4.54667 16.5433 4.49 16.895 4.49 17.295C4.49 17.6883 4.545 18.04 4.655 18.35C4.76833 18.6567 4.94167 18.8983 5.175 19.075C5.40833 19.2483 5.70667 19.335 6.07 19.335ZM9.69609 20V12.8H10.5861V15.975H14.3761V12.8H15.2661V20H14.3761V16.82H10.5861V20H9.69609ZM17.1688 15.885V15.15H22.2688V15.885H17.1688ZM17.1688 17.65V16.915H22.2688V17.65H17.1688ZM26.6238 20.15C26.1671 20.15 25.7521 20.04 25.3788 19.82C25.0088 19.6 24.7138 19.3 24.4938 18.92C24.2771 18.5367 24.1688 18.105 24.1688 17.625V15.23C24.1688 14.7267 24.2771 14.2817 24.4938 13.895C24.7138 13.505 25.0138 13.2017 25.3938 12.985C25.7771 12.765 26.2138 12.655 26.7038 12.655C27.1004 12.655 27.4688 12.7367 27.8088 12.9C28.1521 13.06 28.4404 13.2917 28.6738 13.595L28.0088 14.185C27.8654 13.975 27.6788 13.8083 27.4488 13.685C27.2188 13.5617 26.9704 13.5 26.7038 13.5C26.3871 13.5 26.1054 13.5767 25.8588 13.73C25.6154 13.88 25.4238 14.08 25.2838 14.33C25.1438 14.5767 25.0738 14.8433 25.0738 15.13V16.575L24.8788 16.355C25.0888 16.055 25.3554 15.815 25.6788 15.635C26.0021 15.455 26.3521 15.365 26.7288 15.365C27.1754 15.365 27.5754 15.47 27.9288 15.68C28.2854 15.89 28.5654 16.175 28.7688 16.535C28.9754 16.8917 29.0788 17.2933 29.0788 17.74C29.0788 18.1867 28.9671 18.5917 28.7438 18.955C28.5204 19.3183 28.2221 19.6083 27.8488 19.825C27.4788 20.0417 27.0704 20.15 26.6238 20.15ZM26.6238 19.29C26.9104 19.29 27.1721 19.2217 27.4088 19.085C27.6454 18.945 27.8321 18.7583 27.9688 18.525C28.1088 18.2883 28.1788 18.0267 28.1788 17.74C28.1788 17.4533 28.1088 17.1917 27.9688 16.955C27.8321 16.7183 27.6454 16.5317 27.4088 16.395C27.1754 16.255 26.9154 16.185 26.6288 16.185C26.3421 16.185 26.0804 16.255 25.8438 16.395C25.6104 16.5317 25.4238 16.7183 25.2838 16.955C25.1438 17.1917 25.0738 17.4533 25.0738 17.74C25.0738 18.0233 25.1421 18.2833 25.2788 18.52C25.4188 18.7533 25.6054 18.94 25.8388 19.08C26.0754 19.22 26.3371 19.29 26.6238 19.29Z" fill="#24282E"/>
<rect x="0.5" y="0.5" width="31" height="31" rx="1.5" stroke="#24282E"/>
</svg>
