<svg width="32" height="32" viewBox="0 0 32 32" fill="none" xmlns="http://www.w3.org/2000/svg">
<path d="M7.495 17.765C7.28833 17.765 7.08833 17.7217 6.895 17.635C6.70167 17.5483 6.515 17.4483 6.335 17.335C6.15833 17.2217 5.99 17.1217 5.83 17.035C5.67 16.9483 5.52 16.905 5.38 16.905C5.21 16.905 5.09833 16.98 5.045 17.13C4.99167 17.2767 4.99333 17.4417 5.05 17.625H4.205C4.12833 17.3117 4.12 17.0283 4.18 16.775C4.24333 16.5183 4.36833 16.315 4.555 16.165C4.745 16.015 4.99167 15.94 5.295 15.94C5.505 15.94 5.70667 15.9833 5.9 16.07C6.09667 16.1567 6.28333 16.2567 6.46 16.37C6.64 16.4833 6.81 16.5833 6.97 16.67C7.13 16.7567 7.28 16.8 7.42 16.8C7.57667 16.8 7.685 16.7283 7.745 16.585C7.80833 16.4383 7.81 16.265 7.75 16.065H8.595C8.67167 16.375 8.68 16.6583 8.62 16.915C8.56 17.1717 8.435 17.3783 8.245 17.535C8.05833 17.6883 7.80833 17.765 7.495 17.765ZM12.9769 20.15C12.4702 20.15 12.0435 20.025 11.6969 19.775C11.3502 19.5217 11.0869 19.18 10.9069 18.75C10.7302 18.3167 10.6419 17.8317 10.6419 17.295C10.6419 16.7517 10.7302 16.265 10.9069 15.835C11.0869 15.405 11.3502 15.0667 11.6969 14.82C12.0469 14.5733 12.4752 14.45 12.9819 14.45C13.4819 14.45 13.9119 14.575 14.2719 14.825C14.6352 15.0717 14.9135 15.41 15.1069 15.84C15.3002 16.27 15.3969 16.755 15.3969 17.295C15.3969 17.835 15.3002 18.32 15.1069 18.75C14.9135 19.18 14.6352 19.5217 14.2719 19.775C13.9119 20.025 13.4802 20.15 12.9769 20.15ZM10.4919 22.4V14.6H11.2869V18.575H11.3869V22.4H10.4919ZM12.8669 19.335C13.2235 19.335 13.5185 19.245 13.7519 19.065C13.9852 18.885 14.1602 18.6417 14.2769 18.335C14.3935 18.025 14.4519 17.6783 14.4519 17.295C14.4519 16.915 14.3935 16.5717 14.2769 16.265C14.1635 15.9583 13.9869 15.715 13.7469 15.535C13.5102 15.355 13.2085 15.265 12.8419 15.265C12.4919 15.265 12.2019 15.3517 11.9719 15.525C11.7419 15.695 11.5702 15.9333 11.4569 16.24C11.3435 16.5433 11.2869 16.895 11.2869 17.295C11.2869 17.6883 11.3419 18.04 11.4519 18.35C11.5652 18.6567 11.7385 18.8983 11.9719 19.075C12.2052 19.2483 12.5035 19.335 12.8669 19.335ZM16.493 20V12.8H17.383V15.975H21.173V12.8H22.063V20H21.173V16.82H17.383V20H16.493ZM27.2606 17.765C27.054 17.765 26.854 17.7217 26.6606 17.635C26.4673 17.5483 26.2806 17.4483 26.1006 17.335C25.924 17.2217 25.7556 17.1217 25.5956 17.035C25.4356 16.9483 25.2856 16.905 25.1456 16.905C24.9756 16.905 24.864 16.98 24.8106 17.13C24.7573 17.2767 24.759 17.4417 24.8156 17.625H23.9706C23.894 17.3117 23.8856 17.0283 23.9456 16.775C24.009 16.5183 24.134 16.315 24.3206 16.165C24.5106 16.015 24.7573 15.94 25.0606 15.94C25.2706 15.94 25.4723 15.9833 25.6656 16.07C25.8623 16.1567 26.049 16.2567 26.2256 16.37C26.4056 16.4833 26.5756 16.5833 26.7356 16.67C26.8956 16.7567 27.0456 16.8 27.1856 16.8C27.3423 16.8 27.4506 16.7283 27.5106 16.585C27.574 16.4383 27.5756 16.265 27.5156 16.065H28.3606C28.4373 16.375 28.4456 16.6583 28.3856 16.915C28.3256 17.1717 28.2006 17.3783 28.0106 17.535C27.824 17.6883 27.574 17.765 27.2606 17.765Z" fill="#24282E"/>
<rect x="0.5" y="0.5" width="31" height="31" rx="1.5" stroke="#24282E"/>
</svg>
