<svg width="32" height="32" viewBox="0 0 32 32" fill="none" xmlns="http://www.w3.org/2000/svg">
<path d="M4.84 21H4.44C4.44 21.2209 4.61909 21.4 4.84 21.4V21ZM4.84 12.36V11.96C4.61909 11.96 4.44 12.1391 4.44 12.36H4.84ZM6.112 12.36L6.44544 12.1391C6.37135 12.0272 6.24614 11.96 6.112 11.96V12.36ZM10.366 18.78L10.0326 19.0009C10.13 19.1481 10.3124 19.2139 10.4814 19.163C10.6504 19.1121 10.766 18.9565 10.766 18.78H10.366ZM10.366 12.36V11.96C10.1451 11.96 9.966 12.1391 9.966 12.36H10.366ZM11.638 12.36H12.038C12.038 12.1391 11.8589 11.96 11.638 11.96V12.36ZM11.638 21V21.4C11.8589 21.4 12.038 21.2209 12.038 21H11.638ZM10.366 21L10.0325 21.2208C10.1065 21.3327 10.2318 21.4 10.366 21.4V21ZM6.112 14.574L6.44554 14.3532C6.34811 14.206 6.16572 14.1401 5.99671 14.191C5.82769 14.2419 5.712 14.3975 5.712 14.574H6.112ZM6.112 21V21.4C6.33291 21.4 6.512 21.2209 6.512 21H6.112ZM5.24 21V12.36H4.44V21H5.24ZM4.84 12.76H6.112V11.96H4.84V12.76ZM5.77856 12.5809L10.0326 19.0009L10.6994 18.5591L6.44544 12.1391L5.77856 12.5809ZM10.766 18.78V12.36H9.966V18.78H10.766ZM10.366 12.76H11.638V11.96H10.366V12.76ZM11.238 12.36V21H12.038V12.36H11.238ZM11.638 20.6H10.366V21.4H11.638V20.6ZM10.6995 20.7792L6.44554 14.3532L5.77846 14.7948L10.0325 21.2208L10.6995 20.7792ZM5.712 14.574V21H6.512V14.574H5.712ZM6.112 20.6H4.84V21.4H6.112V20.6ZM13.3127 21H12.9127C12.9127 21.2209 13.0917 21.4 13.3127 21.4V21ZM13.3127 12.36V11.96C13.0917 11.96 12.9127 12.1391 12.9127 12.36H13.3127ZM17.1167 12.372L17.0909 12.7714L17.1038 12.7718L17.1167 12.372ZM17.4707 12.408L17.4003 12.8018L17.4081 12.8031L17.4707 12.408ZM18.6707 12.9L18.4232 13.2143L18.4251 13.2157L18.6707 12.9ZM19.3967 13.854L19.7659 13.7002L19.3967 13.854ZM18.6707 17.358L18.4251 17.0423L18.4232 17.0437L18.6707 17.358ZM17.4707 17.85L17.5272 18.246L17.5332 18.2451L17.4707 17.85ZM17.1107 17.886L17.0857 17.4868L17.0849 17.4868L17.1107 17.886ZM14.5667 17.898V17.498C14.3457 17.498 14.1667 17.6771 14.1667 17.898H14.5667ZM14.5667 21V21.4C14.7876 21.4 14.9667 21.2209 14.9667 21H14.5667ZM14.5667 16.71H14.1667C14.1667 16.9309 14.3457 17.11 14.5667 17.11V16.71ZM17.0207 16.698L16.9888 16.2993L16.9874 16.2994L17.0207 16.698ZM17.3027 16.656L17.3913 17.0461L17.3939 17.0454L17.3027 16.656ZM17.9207 16.326L18.2071 16.6053L18.2105 16.6017L17.9207 16.326ZM18.2567 15.762L18.6375 15.8842L18.2567 15.762ZM18.2567 14.496L17.8758 14.6182L17.8765 14.6203L18.2567 14.496ZM17.9207 13.938L17.6308 14.2137L17.6343 14.2172L17.9207 13.938ZM17.3027 13.602L17.1974 13.9879C17.202 13.9892 17.2067 13.9903 17.2114 13.9914L17.3027 13.602ZM17.0207 13.554L16.9874 13.9526L16.9888 13.9527L17.0207 13.554ZM14.5667 13.542V13.142C14.3457 13.142 14.1667 13.3211 14.1667 13.542H14.5667ZM13.7127 21V12.36H12.9127V21H13.7127ZM13.3127 12.76H16.8047V11.96H13.3127V12.76ZM16.8047 12.76C16.8771 12.76 16.9718 12.7635 17.0909 12.7712L17.1424 11.9728C17.0135 11.9645 16.9003 11.96 16.8047 11.96V12.76ZM17.1038 12.7718C17.2102 12.7752 17.3089 12.7854 17.4003 12.8018L17.541 12.0142C17.4084 11.9906 17.2711 11.9768 17.1296 11.9722L17.1038 12.7718ZM17.4081 12.8031C17.8336 12.8705 18.1664 13.012 18.4232 13.2143L18.9181 12.5857C18.5349 12.284 18.0677 12.0975 17.5332 12.0129L17.4081 12.8031ZM18.4251 13.2157C18.6938 13.4248 18.8936 13.6867 19.0274 14.0078L19.7659 13.7002C19.5797 13.2533 19.2955 12.8792 18.9162 12.5843L18.4251 13.2157ZM19.0274 14.0078C19.1649 14.3378 19.2367 14.7087 19.2367 15.126H20.0367C20.0367 14.6153 19.9484 14.1382 19.7659 13.7002L19.0274 14.0078ZM19.2367 15.126C19.2367 15.5478 19.1647 15.9206 19.0274 16.2502L19.7659 16.5578C19.9486 16.1194 20.0367 15.6402 20.0367 15.126H19.2367ZM19.0274 16.2502C18.8936 16.5713 18.6938 16.8332 18.4251 17.0423L18.9162 17.6737C19.2955 17.3788 19.5797 17.0047 19.7659 16.5578L19.0274 16.2502ZM18.4232 17.0437C18.1664 17.246 17.8336 17.3875 17.4081 17.4549L17.5332 18.2451C18.0677 18.1605 18.5349 17.974 18.9181 17.6723L18.4232 17.0437ZM17.4141 17.454C17.3139 17.4683 17.2045 17.4794 17.0857 17.4868L17.1356 18.2852C17.2728 18.2766 17.4035 18.2637 17.5272 18.246L17.4141 17.454ZM17.0849 17.4868C16.9654 17.4945 16.8727 17.498 16.8047 17.498V18.298C16.8966 18.298 17.008 18.2935 17.1364 18.2852L17.0849 17.4868ZM16.8047 17.498H14.5667V18.298H16.8047V17.498ZM14.1667 17.898V21H14.9667V17.898H14.1667ZM14.5667 20.6H13.3127V21.4H14.5667V20.6ZM14.5667 17.11H16.7567V16.31H14.5667V17.11ZM16.7567 17.11C16.8497 17.11 16.949 17.1054 17.0539 17.0966L16.9874 16.2994C16.9003 16.3066 16.8236 16.31 16.7567 16.31V17.11ZM17.0526 17.0967C17.1696 17.0874 17.2827 17.0707 17.3913 17.0461L17.214 16.2659C17.1466 16.2813 17.0717 16.2926 16.9888 16.2993L17.0526 17.0967ZM17.3939 17.0454C17.7108 16.9712 17.989 16.8289 18.2071 16.6052L17.6343 16.0468C17.5403 16.1431 17.4065 16.2208 17.2114 16.2666L17.3939 17.0454ZM18.2105 16.6017C18.4073 16.3948 18.5508 16.1545 18.6375 15.8842L17.8758 15.6398C17.8265 15.7935 17.746 15.9292 17.6308 16.0503L18.2105 16.6017ZM18.6375 15.8842C18.7176 15.6347 18.7587 15.3815 18.7587 15.126H17.9587C17.9587 15.2945 17.9317 15.4653 17.8758 15.6398L18.6375 15.8842ZM18.7587 15.126C18.7587 14.8704 18.7175 14.6185 18.6369 14.3717L17.8765 14.6203C17.9318 14.7895 17.9587 14.9576 17.9587 15.126H18.7587ZM18.6375 14.3738C18.5506 14.1026 18.4061 13.8629 18.2071 13.6588L17.6343 14.2172C17.7472 14.3331 17.8268 14.4654 17.8758 14.6182L18.6375 14.3738ZM18.2105 13.6623C17.9925 13.4332 17.7132 13.2874 17.3939 13.2126L17.2114 13.9914C17.4041 14.0366 17.5368 14.1148 17.6308 14.2137L18.2105 13.6623ZM17.4079 13.2161C17.2937 13.1849 17.1749 13.1651 17.0526 13.1553L16.9888 13.9527C17.0664 13.9589 17.1356 13.9711 17.1974 13.9879L17.4079 13.2161ZM17.0539 13.1554C16.949 13.1466 16.8497 13.142 16.7567 13.142V13.942C16.8236 13.942 16.9003 13.9454 16.9874 13.9526L17.0539 13.1554ZM16.7567 13.142H14.5667V13.942H16.7567V13.142ZM14.1667 13.542V16.71H14.9667V13.542H14.1667ZM20.8361 21H20.4361C20.4361 21.2209 20.6152 21.4 20.8361 21.4V21ZM20.8361 12.36V11.96C20.6152 11.96 20.4361 12.1391 20.4361 12.36H20.8361ZM22.0901 12.36H22.4901C22.4901 12.1391 22.311 11.96 22.0901 11.96V12.36ZM22.0901 16.392H21.6901C21.6901 16.5577 21.7923 16.7063 21.9471 16.7656C22.1018 16.8248 22.2771 16.7825 22.3878 16.6591L22.0901 16.392ZM25.7081 12.36V11.96C25.5945 11.96 25.4862 12.0083 25.4104 12.0929L25.7081 12.36ZM27.2681 12.36L27.5645 12.6286C27.6707 12.5113 27.6979 12.3425 27.6338 12.1979C27.5696 12.0532 27.4263 11.96 27.2681 11.96V12.36ZM23.4461 16.578L23.1497 16.3094C23.0103 16.4632 23.0117 16.698 23.1529 16.8501L23.4461 16.578ZM27.5501 21V21.4C27.7092 21.4 27.8531 21.3057 27.9167 21.1599C27.9803 21.0141 27.9515 20.8445 27.8433 20.7279L27.5501 21ZM25.9421 21L25.6496 21.2729C25.7253 21.354 25.8312 21.4 25.9421 21.4V21ZM22.0901 16.872L22.3825 16.5991C22.2704 16.479 22.0963 16.4396 21.9434 16.4999C21.7906 16.5601 21.6901 16.7077 21.6901 16.872H22.0901ZM22.0901 21V21.4C22.311 21.4 22.4901 21.2209 22.4901 21H22.0901ZM21.2361 21V12.36H20.4361V21H21.2361ZM20.8361 12.76H22.0901V11.96H20.8361V12.76ZM21.6901 12.36V16.392H22.4901V12.36H21.6901ZM22.3878 16.6591L26.0058 12.6271L25.4104 12.0929L21.7924 16.1249L22.3878 16.6591ZM25.7081 12.76H27.2681V11.96H25.7081V12.76ZM26.9717 12.0914L23.1497 16.3094L23.7425 16.8466L27.5645 12.6286L26.9717 12.0914ZM23.1529 16.8501L27.2569 21.2721L27.8433 20.7279L23.7393 16.3059L23.1529 16.8501ZM27.5501 20.6H25.9421V21.4H27.5501V20.6ZM26.2345 20.7271L22.3825 16.5991L21.7976 17.1449L25.6496 21.2729L26.2345 20.7271ZM21.6901 16.872V21H22.4901V16.872H21.6901ZM22.0901 20.6H20.8361V21.4H22.0901V20.6Z" fill="#24282E"/>
<path d="M4 7H28" stroke="#24282E"/>
<path d="M4 25H28" stroke="#24282E"/>
<rect x="0.5" y="0.5" width="31" height="31" rx="1.5" stroke="#24282E"/>
</svg>
