<svg width="32" height="32" viewBox="0 0 32 32" fill="none" xmlns="http://www.w3.org/2000/svg">
<path d="M5.84 21V12.36H6.728L11.486 19.44V12.36H12.374V21H11.486L6.728 13.914V21H5.84ZM14.0548 21V12.36H17.3908C17.4748 12.36 17.5688 12.364 17.6728 12.372C17.7808 12.376 17.8888 12.388 17.9968 12.408C18.4488 12.476 18.8308 12.634 19.1428 12.882C19.4588 13.126 19.6968 13.434 19.8568 13.806C20.0208 14.178 20.1028 14.59 20.1028 15.042C20.1028 15.49 20.0208 15.9 19.8568 16.272C19.6928 16.644 19.4528 16.954 19.1368 17.202C18.8248 17.446 18.4448 17.602 17.9968 17.67C17.8888 17.686 17.7808 17.698 17.6728 17.706C17.5688 17.714 17.4748 17.718 17.3908 17.718H14.9368V21H14.0548ZM14.9368 16.878H17.3668C17.4388 16.878 17.5228 16.874 17.6188 16.866C17.7148 16.858 17.8088 16.844 17.9008 16.824C18.1968 16.76 18.4388 16.638 18.6268 16.458C18.8188 16.278 18.9608 16.064 19.0528 15.816C19.1488 15.568 19.1968 15.31 19.1968 15.042C19.1968 14.774 19.1488 14.516 19.0528 14.268C18.9608 14.016 18.8188 13.8 18.6268 13.62C18.4388 13.44 18.1968 13.318 17.9008 13.254C17.8088 13.234 17.7148 13.222 17.6188 13.218C17.5228 13.21 17.4388 13.206 17.3668 13.206H14.9368V16.878ZM21.297 21V12.36H22.179V16.44L26.121 12.36H27.249L23.223 16.53L27.579 21H26.427L22.179 16.68V21H21.297Z" fill="#24282E"/>
<path d="M4 7H28" stroke="#24282E"/>
<path d="M4 25H28" stroke="#24282E"/>
<rect x="0.5" y="0.5" width="31" height="31" rx="1.5" stroke="#24282E"/>
</svg>
