<svg width="32" height="32" viewBox="0 0 32 32" fill="none" xmlns="http://www.w3.org/2000/svg">
<g id="&#208;&#146; &#209;&#129;&#208;&#190;&#208;&#187;&#208;&#189;&#208;&#181;&#209;&#135;&#208;&#189;&#208;&#190;&#208;&#188; &#208;&#188;&#208;&#181;&#209;&#129;&#209;&#130;&#208;&#181;">
<path id="Vector 37" d="M5.41742 9.95645L7 6L8.58258 9.95645C8.83581 10.5895 8.68739 11.3126 8.20526 11.7947C7.53961 12.4604 6.46039 12.4604 5.79474 11.7947C5.31261 11.3126 5.16419 10.5895 5.41742 9.95645Z" stroke="#24282E" stroke-linejoin="round"/>
<path id="Vector 38" d="M11.4174 16.9565L13 13L14.5826 16.9565C14.8358 17.5895 14.6874 18.3126 14.2053 18.7947C13.5396 19.4604 12.4604 19.4604 11.7947 18.7947C11.3126 18.3126 11.1642 17.5895 11.4174 16.9565Z" stroke="#24282E" stroke-linejoin="round"/>
<path id="Vector 39" d="M17.4174 9.95645L19 6L20.5826 9.95645C20.8358 10.5895 20.6874 11.3126 20.2053 11.7947C19.5396 12.4604 18.4604 12.4604 17.7947 11.7947C17.3126 11.3126 17.1642 10.5895 17.4174 9.95645Z" stroke="#24282E" stroke-linejoin="round"/>
<path id="Vector 40" d="M23.4174 16.9565L25 13L26.5826 16.9565C26.8358 17.5895 26.6874 18.3126 26.2053 18.7947C25.5396 19.4604 24.4604 19.4604 23.7947 18.7947C23.3126 18.3126 23.1642 17.5895 23.4174 16.9565Z" stroke="#24282E" stroke-linejoin="round"/>
<path id="Vector 41" d="M3 24H29" stroke="#24282E"/>
<path id="Vector 42" d="M3 27C5 29 6 29 8 27C10 29 11 29 13 27C15 29 16 29 18 27C20 29 21 29 23 27C25 29 27 29 29 27" stroke="#24282E" stroke-linejoin="round"/>
<rect x="0.5" y="0.5" width="31" height="31" rx="1.5" stroke="#24282E"/>
</g>
</svg>
