<svg width="32" height="32" viewBox="0 0 32 32" fill="none" xmlns="http://www.w3.org/2000/svg">
<g id="&#208;&#146; &#209;&#129;&#208;&#190;&#208;&#187;&#208;&#189;&#208;&#181;&#209;&#135;&#208;&#189;&#208;&#190;&#208;&#188; &#208;&#188;&#208;&#181;&#209;&#129;&#209;&#130;&#208;&#181;">
<path id="Vector 42" d="M3 27C5 29 6 29 8 27C10 29 11 29 13 27C15 29 16 29 18 27C20 29 21 29 23 27C25 29 27 29 29 27" stroke="#24282E" stroke-linejoin="round"/>
<path id="Vector 43" d="M3 23C5 25 6 25 8 23C10 25 11 25 13 23C15 25 16 25 18 23C20 25 21 25 23 23C25 25 27 25 29 23" stroke="#24282E" stroke-linejoin="round"/>
<path id="Vector 44" d="M16 24.5V16M10 6.5L16 5V12M16 12L22 8L26 17M16 12V16M16 16L11 11L6 15" stroke="#24282E" stroke-linejoin="round"/>
<rect x="0.5" y="0.5" width="31" height="31" rx="1.5" stroke="#24282E"/>
</g>
</svg>
