<svg width="32" height="32" viewBox="0 0 32 32" fill="none" xmlns="http://www.w3.org/2000/svg">
<g id="&#208;&#146; &#209;&#129;&#208;&#190;&#208;&#187;&#208;&#189;&#208;&#181;&#209;&#135;&#208;&#189;&#208;&#190;&#208;&#188; &#208;&#188;&#208;&#181;&#209;&#129;&#209;&#130;&#208;&#181;">
<path id="Vector 44" d="M16 22C14.6464 20.3601 15 19 16 17.5M16 5V9M16 9L16 11M16 9C17.8333 8.66667 19.8 7.4 21 5M16 11C16 11 14 10 13 8.5C12 7 10 5 10 5M16 11C17.1739 14.1996 16.8879 15.4617 16 17.5M16 17.5C17.8363 16.6582 18.9989 15.9969 22 13.5M16 17.5C13.4597 16.7729 12.2389 15.6155 11 13.5" stroke="#24282E"/>
<path id="Vector 48" d="M21.8306 13.5C15.8306 10.5001 26.3306 10 28.3306 9C27.3306 17 21.3305 16.9999 21.8306 13.5Z" stroke="#24282E" stroke-linejoin="round"/>
<path id="Vector 49" d="M10.4995 13.5C16.4995 10.5001 5.99952 10 3.99951 9C4.99951 17 10.9996 16.9999 10.4995 13.5Z" stroke="#24282E" stroke-linejoin="round"/>
<path id="Vector 46" d="M7 23C13 27 19 27 25 23C17.7984 24.5033 13.9158 23.9931 7 23Z" stroke="#24282E" stroke-linejoin="round"/>
<rect x="0.5" y="0.5" width="31" height="31" rx="1.5" stroke="#24282E"/>
</g>
</svg>
