<svg width="32" height="32" viewBox="0 0 32 32" fill="none" xmlns="http://www.w3.org/2000/svg">
<g id="&#208;&#146; &#209;&#129;&#208;&#190;&#208;&#187;&#208;&#189;&#208;&#181;&#209;&#135;&#208;&#189;&#208;&#190;&#208;&#188; &#208;&#188;&#208;&#181;&#209;&#129;&#209;&#130;&#208;&#181;">
<path id="Vector 52" d="M23.5008 18.9998C25.1673 16.4999 26.5009 17.4999 25.5008 19.9998C24.5008 22.4997 20.0007 25.4998 17.0008 25.9998C14.0009 26.4998 14.5007 24.9997 15.5008 24.4998C18.0053 23.2478 21.8344 21.4998 23.5008 18.9998Z" stroke="#24282E"/>
<path id="Vector 53" d="M25 17.5C24.6667 16.6667 23.9 14.9 23.5 14.5C23.1 14.1 22.3333 15.3333 22 16" stroke="#24282E"/>
<path id="Vector 54" d="M25.5 18C25.5 18 26.5 14 27 14C27.5 14 28.5 15.5 28.5 15.5" stroke="#24282E"/>
<path id="Vector 55" d="M24.5 21.5C24.8333 22.1667 25.5 23.7 25.5 24.5" stroke="#24282E"/>
<path id="Vector 56" d="M22 23.5C22.3333 24.1667 23 25.2 23 26" stroke="#24282E"/>
<path id="Vector 57" d="M20 25C20.3333 25.6667 20 26.7 20 27.5" stroke="#24282E"/>
<g id="Group 24">
<path id="Vector 50" d="M8.34738 13.5468C-2.11344 9.24715 14.2316 3.10481 26 5.56175C20.1158 7.40446 14.8854 26.4457 8.34738 13.5468Z" stroke="#24282E" stroke-linejoin="round"/>
<path id="Vector 51" d="M25.4999 5.5C14 7.5 7.5 12 5 17.5" stroke="#24282E"/>
<path id="Vector 58" d="M14.5 14.5C14.1 13.3 11.1667 12 9.5 12C9.33333 11.5001 8.9 9.80004 8.5 9M18.5 10.5C18.1 9.30005 14.6667 9.50005 13 9.50005C13 9.00003 12.9 7.9 12.5 7.5" stroke="#24282E"/>
</g>
<path id="Vector 59" d="M22 20.5C20.5179 20.4893 19.8817 20.2441 19 19.5M19.5 22.5C18.0179 22.4893 17.3817 21.7441 16.5 21M16.5 24C15.5 24 14.8817 23.7441 14 23" stroke="#24282E"/>
<rect x="0.5" y="0.5" width="31" height="31" rx="1.5" stroke="#24282E"/>
</g>
</svg>
