<svg width="32" height="32" viewBox="0 0 32 32" fill="none" xmlns="http://www.w3.org/2000/svg">
<g id="&#208;&#146; &#209;&#129;&#208;&#190;&#208;&#187;&#208;&#189;&#208;&#181;&#209;&#135;&#208;&#189;&#208;&#190;&#208;&#188; &#208;&#188;&#208;&#181;&#209;&#129;&#209;&#130;&#208;&#181;">
<g id="Group 24">
<path id="Vector 50" d="M10.0003 26.5243C19.9582 28.6032 34.0002 25.9995 24.9372 19.7677C24.2767 18.4647 23.632 17.5468 23.0003 16.9435C21.8314 19.7508 19.3005 20.5032 17.0003 18.4996C14.4342 21.316 12.6305 25.7006 10.0003 26.5243Z" stroke="#24282E" stroke-linejoin="round"/>
<path id="Vector 51" d="M10.4234 26.5762C20.1541 24.8839 25.6541 21.0762 27.7695 16.4223" stroke="#24282E"/>
<path id="Vector 58" d="M21 20.999C21.3385 22.0144 23.9616 21.0761 23.9616 21.0761C24.1026 21.4991 24.5 23.499 25 23.999M17 22.4993C17.3385 23.5147 19.5898 23.1914 21 23.1914C21 23.6145 21.1615 25.1606 21.5 25.499" stroke="#24282E"/>
</g>
<path id="Vector 60" d="M8.50099 15C5.00101 17 2.36344 18.0085 5.05603 19.3923C7.74863 20.776 18.8894 11.3923 19.556 9.39228C20.2227 7.3923 19.556 6.39233 18.056 7.39228C16.556 8.39223 12.001 13 8.50099 15Z" stroke="#24282E"/>
<path id="Vector 61" d="M20 8C21.7629 7.0297 22.5 6 23 4.5L25 6" stroke="#24282E"/>
<path id="Vector 62" d="M18.5 7L18 3C17.6667 3.83333 16.7 5 15.5 5" stroke="#24282E"/>
<path id="Vector 63" d="M17.5 12C18.1983 13.3558 18.6171 14.0983 18.5 16" stroke="#24282E"/>
<path id="Vector 64" d="M15 14C15.3333 14.5 15.9 15.9 15.5 17.5" stroke="#24282E"/>
<path id="Vector 65" d="M13 16C13.5949 17.9013 13 19 12.5 20" stroke="#24282E"/>
<path id="Vector 66" d="M10 17.5C10.1667 18.1667 10 20 9.5 21.5" stroke="#24282E"/>
<rect x="0.5" y="0.5" width="31" height="31" rx="1.5" stroke="#24282E"/>
</g>
</svg>
