<svg width="32" height="32" viewBox="0 0 32 32" fill="none" xmlns="http://www.w3.org/2000/svg">
<g id="&#208;&#146; &#209;&#129;&#208;&#190;&#208;&#187;&#208;&#189;&#208;&#181;&#209;&#135;&#208;&#189;&#208;&#190;&#208;&#188; &#208;&#188;&#208;&#181;&#209;&#129;&#209;&#130;&#208;&#181;">
<path id="Vector 67" d="M3 28.5L4 25L5.5 28.5L6 20L9 28.5L10 25L11 28.5L12.5 19L13 28.5L15 22L16 28.5L17 25L19 28.5H29" stroke="#24282E" stroke-linejoin="round"/>
<g id="Group 25">
<path id="Ellipse 22" d="M26.5113 10.4322C27.3895 10.6675 28.0754 11.1387 28.4882 11.6645C28.9006 12.19 29.0061 12.7125 28.8915 13.1405C28.7768 13.5685 28.4242 13.9683 27.8042 14.2171C27.1839 14.4661 26.3542 14.5312 25.476 14.2959C24.5979 14.0606 23.9119 13.5894 23.4992 13.0636C23.0867 12.5381 22.9812 12.0156 23.0959 11.5876C23.2106 11.1596 23.5632 10.7598 24.1832 10.511C24.8035 10.262 25.6332 10.1969 26.5113 10.4322Z" stroke="#24282E" stroke-width="2"/>
<path id="Vector 68" d="M22.7072 13.0358C21.2663 12.4499 19.0559 11.7942 16.5005 11.1138M23.9666 10.2674C22.4514 10.0956 21.0227 9.86454 19.6742 9.60454M16.1472 8.83605C10.4657 7.48096 6.43346 6.10146 3.38867 7.85938C6.48198 8.63271 10.0516 9.47412 13.3641 10.3055" stroke="#24282E"/>
</g>
<g id="Group 26">
<path id="Ellipse 22_2" d="M25.4192 7.33013C26.2065 6.87557 26.7471 6.24285 27.0097 5.62816C27.2721 5.01382 27.2388 4.48181 27.0173 4.09808C26.7957 3.71434 26.3516 3.41947 25.6884 3.33957C25.0248 3.25961 24.2065 3.41147 23.4192 3.86603C22.6319 4.32059 22.0912 4.9533 21.8286 5.56799C21.5662 6.18233 21.5996 6.71434 21.8211 7.09808C22.0427 7.48181 22.4867 7.77668 23.15 7.85659C23.8136 7.93654 24.6319 7.78469 25.4192 7.33013Z" stroke="#24282E" stroke-width="2"/>
<path id="Vector 68_2" d="M21.0705 5.79883C17.8564 8.23184 9.77112 12.4563 3.75 15.7988C8.53109 17.0799 13.5933 11.8479 23.0035 8.1469" stroke="#24282E"/>
</g>
<rect x="0.5" y="0.5" width="31" height="31" rx="1.5" stroke="#24282E"/>
</g>
</svg>
