<svg width="32" height="32" viewBox="0 0 32 32" fill="none" xmlns="http://www.w3.org/2000/svg">
<g id="&#208;&#146; &#209;&#129;&#208;&#190;&#208;&#187;&#208;&#189;&#208;&#181;&#209;&#135;&#208;&#189;&#208;&#190;&#208;&#188; &#208;&#188;&#208;&#181;&#209;&#129;&#209;&#130;&#208;&#181;">
<path id="Ellipse 23" d="M26.8683 15.5249C26.264 16.4752 26.1313 17.6323 26.2715 18.7063C26.3911 19.6229 26.714 20.523 27.1621 21.2532C26.1753 21.524 25.3161 21.8936 24.6761 22.401C24.0887 22.8668 23.6869 23.4505 23.5448 24.1541C23.1553 23.9961 22.722 23.9017 22.2859 23.8552C21.5977 23.7819 20.8516 23.8223 20.1498 23.9575C19.6972 23.5575 19.1181 23.1663 18.4269 22.9964C17.6805 22.8129 16.8515 22.8993 15.9806 23.4185C15.1562 22.9977 14.436 22.9345 13.7905 23.1162C13.2328 23.2733 12.7782 23.6028 12.4059 23.9187C11.5313 23.6061 10.498 23.6775 9.54461 24.2961C9.19941 23.8938 8.7493 23.5467 8.31348 23.2735C7.87912 23.0013 7.42009 22.7784 7.02463 22.6364C7.0116 22.37 6.94778 22.1034 6.85831 21.853C6.7139 21.4487 6.48778 21.0442 6.22566 20.6762C5.82378 20.1119 5.29274 19.5729 4.76174 19.2467C4.86361 18.9556 4.99308 18.6315 5.13644 18.2821C5.17376 18.1911 5.21198 18.0985 5.25068 18.0047C5.42636 17.5792 5.61214 17.1291 5.77054 16.693C5.96301 16.163 6.12815 15.6193 6.1876 15.126C6.23134 14.7629 6.22492 14.3701 6.08255 14.0207C6.61314 13.1776 6.88622 12.4996 6.93509 11.8963C6.97417 11.4139 6.86726 11.0163 6.69465 10.6639C6.87103 10.5582 7.04253 10.4625 7.21097 10.3685C7.23834 10.3533 7.26564 10.338 7.29286 10.3228C7.5999 10.1512 7.91535 9.97153 8.18415 9.74867C8.46361 9.51699 8.70045 9.23331 8.85761 8.84812C8.95521 8.6089 9.01696 8.3431 9.04585 8.04408C10.1995 8.03592 11.0567 7.31234 11.7213 6.39038C13.2187 6.69063 14.7614 6.53406 16.162 5.50508C16.7428 5.54229 17.1511 5.77987 17.6765 6.08565C17.8195 6.16887 17.9712 6.25715 18.1374 6.34781C18.5375 6.56605 18.9981 6.77502 19.5734 6.87285C20.0452 6.95308 20.5751 6.95546 21.1943 6.84612C21.6525 7.91979 22.1888 8.70903 22.8134 9.18219C23.3798 9.61119 23.9986 9.76379 24.6277 9.65958C24.8672 10.6854 25.1918 11.8344 25.5699 12.8787C25.9376 13.8942 26.3763 14.8704 26.8683 15.5249Z" stroke="#24282E"/>
<path id="Vector" d="M13 28C13.4731 26.3443 13.6677 25.9034 13 24.0001L16 23.5L19 24C18.4065 26.6476 18.6189 26.4897 18.9946 27.9787L19 28H13Z" fill="#24282E" stroke="#24282E"/>
<path id="Vector 71" d="M3 28H29" stroke="#24282E"/>
<rect x="0.5" y="0.5" width="31" height="31" rx="1.5" stroke="#24282E"/>
</g>
</svg>
