<svg width="32" height="32" viewBox="0 0 32 32" fill="none" xmlns="http://www.w3.org/2000/svg">
<g id="&#208;&#146; &#209;&#129;&#208;&#190;&#208;&#187;&#208;&#189;&#208;&#181;&#209;&#135;&#208;&#189;&#208;&#190;&#208;&#188; &#208;&#188;&#208;&#181;&#209;&#129;&#209;&#130;&#208;&#181;">
<g clip-path="url(#clip0_367_7285)">
<g id="Group 27">
<path id="Vector 72" d="M6.90023 25.6984L11.85 20.7487M11.85 20.7487C11.85 22.1629 11.85 23.5771 11.85 24.9913C13.2642 24.9913 14.6784 27.8197 16.4462 28.8804C17.1533 27.4662 17.5153 25.0943 16.4462 23.9306C17.5068 23.5771 18.2139 24.2842 19.2746 25.3449C19.8646 24.2396 24.6879 25.3153 26.6992 25.6984C25.4368 24.4455 24.0206 21.8133 23.8708 20.0415C21.7495 19.3344 21.7495 19.3344 21.0424 17.2131C23.6711 16.5328 25.9854 16.1817 27.4063 13.6776C25.6287 13.7284 24.9736 13.4757 23.8708 12.9705C24.1421 11.847 24.5849 11.3671 25.9921 10.8492C25.6405 9.48947 26.4759 7.74511 26.6992 5.89941L18.921 13.6776M11.85 20.7487L18.921 13.6776M18.921 13.6776C19.1567 14.149 20.1231 15.0211 22.103 14.7382" stroke="#24282E" stroke-linejoin="round"/>
<path id="Vector 73" d="M15.3847 17.213C17.506 19.3343 18.9202 20.7485 21.7487 22.1627M13.2634 19.3343C13.2634 21.4556 13.6169 23.2234 15.0311 24.6376" stroke="#24282E"/>
</g>
<g id="Group 28">
<path id="Vector 72_2" d="M6.90023 25.6984L11.85 20.7487M11.85 20.7487C10.4358 20.7487 9.02155 20.7487 7.60734 20.7487C7.60734 19.3344 4.77891 17.9202 3.71825 16.1525C5.13246 15.4454 7.50435 15.0833 8.668 16.1525C9.02155 15.0918 8.31444 14.3847 7.25378 13.324C8.35903 12.7341 7.28335 7.91075 6.90023 5.89941C8.15317 7.16186 10.7853 8.57804 12.5571 8.72784C13.2642 10.8492 13.2642 10.8492 15.3855 11.5563C16.0659 8.92757 16.4169 6.61327 18.921 5.19231C18.8702 6.96998 19.123 7.62502 19.6282 8.72784C20.7516 8.45653 21.2316 8.01375 21.7495 6.60652C23.1092 6.95809 24.8535 6.12274 26.6992 5.89941L18.921 13.6776M11.85 20.7487L18.921 13.6776M18.921 13.6776C18.4496 13.4419 17.5775 12.4755 17.8604 10.4956" stroke="#24282E" stroke-linejoin="round"/>
<path id="Vector 73_2" d="M15.3847 17.213C13.2634 15.0916 11.8492 13.6774 10.4349 10.849M13.2634 19.3343C11.142 19.3343 9.37428 18.9807 7.96007 17.5665" stroke="#24282E"/>
</g>
</g>
<rect x="0.5" y="0.5" width="31" height="31" rx="1.5" stroke="#24282E"/>
</g>
<defs>
<clipPath id="clip0_367_7285">
<rect width="32" height="32" rx="2" fill="white"/>
</clipPath>
</defs>
</svg>
