<svg width="32" height="32" viewBox="0 0 32 32" fill="none" xmlns="http://www.w3.org/2000/svg">
<g id="&#208;&#146; &#209;&#129;&#208;&#190;&#208;&#187;&#208;&#189;&#208;&#181;&#209;&#135;&#208;&#189;&#208;&#190;&#208;&#188; &#208;&#188;&#208;&#181;&#209;&#129;&#209;&#130;&#208;&#181;">
<g id="Group 29">
<path id="Vector 74" d="M16 17.2793C15 19.6126 12 24.4793 8 25.2793" stroke="#24282E" stroke-width="0.7"/>
<path id="Vector 75" d="M15.829 17.3796C15.467 19.8923 13.8288 25.3696 10.1721 27.1776" stroke="#24282E" stroke-width="0.7"/>
<path id="Vector 76" d="M16.1817 17.279C16.312 19.8143 15.7631 25.5049 12.5247 27.9854" stroke="#24282E" stroke-width="0.7"/>
<path id="Vector 77" d="M15.8804 16.9998C16.5993 19.4345 17.3948 25.0959 14.8254 28.2642" stroke="#24282E" stroke-width="0.7"/>
</g>
<g id="Group 30">
<path id="Vector 74_2" d="M15.2413 16.8904C12.7027 16.8964 7.04982 17.7502 4.7468 21.1171" stroke="#24282E" stroke-width="0.7"/>
<path id="Vector 75_2" d="M15.0806 17.0089C12.627 16.3577 6.9457 15.7193 3.84974 18.3754" stroke="#24282E" stroke-width="0.7"/>
<path id="Vector 76_2" d="M15.3122 16.7232C13.0306 15.6102 7.57975 13.886 4.0289 15.8939" stroke="#24282E" stroke-width="0.7"/>
<path id="Vector 77_2" d="M15.4495 17.1096C13.4911 15.4944 8.59375 12.5448 4.67213 13.6676" stroke="#24282E" stroke-width="0.7"/>
</g>
<g id="Group 31">
<path id="Vector 78" d="M21.4581 13.7862C21.2897 16.6921 21.502 23.3213 23.6985 26.5917" stroke="#24282E" stroke-width="0.7"/>
<path id="Vector 79" d="M21.4098 13.799C21.6589 16.6991 22.8175 23.2297 25.4594 26.1522" stroke="#24282E" stroke-width="0.7"/>
<path id="Vector 80" d="M21.2841 13.8173C22.1867 16.5846 24.8013 22.6801 28.0389 24.9246" stroke="#24282E" stroke-width="0.7"/>
<path id="Vector 82" d="M21.5001 13.5006C22.9458 16.0269 25.5002 20.5005 28.5001 21.5007" stroke="#24282E" stroke-width="0.7"/>
<path id="Vector 81" d="M21.3071 14.1408C20.3706 16.8967 18.8091 23.3429 20.055 27.0803" stroke="#24282E" stroke-width="0.7"/>
</g>
<g id="Group 32">
<path id="Vector 78_2" d="M20.5143 13.4774C17.7298 12.6298 11.5836 10.1364 9.27545 6.94385" stroke="#24282E" stroke-width="0.7"/>
<path id="Vector 79_2" d="M20.4862 13.5205C17.8516 12.2832 12.1255 8.93601 10.2978 5.44604" stroke="#24282E" stroke-width="0.7"/>
<path id="Vector 80_2" d="M20.4243 13.6313C18.1405 11.8269 13.3264 7.26428 12.3411 3.44995" stroke="#24282E" stroke-width="0.7"/>
<path id="Vector 82_2" d="M20.7761 13.1812C18.4923 11.3767 16.0009 6.49979 16.001 2.99976" stroke="#24282E" stroke-width="0.7"/>
<path id="Vector 81_2" d="M20.1288 13.4981C17.219 13.4229 10.6308 12.657 7.55549 10.1947" stroke="#24282E" stroke-width="0.7"/>
</g>
<path id="Vector 82_3" d="M9.5 21.5L15.5 17C18.1667 16.1667 22.1 14.4 22.5 10" stroke="#24282E"/>
<rect x="0.5" y="0.5" width="31" height="31" rx="1.5" stroke="#24282E"/>
</g>
</svg>
