<svg width="32" height="32" viewBox="0 0 32 32" fill="none" xmlns="http://www.w3.org/2000/svg">
<g id="&#208;&#146; &#209;&#129;&#208;&#190;&#208;&#187;&#208;&#189;&#208;&#181;&#209;&#135;&#208;&#189;&#208;&#190;&#208;&#188; &#208;&#188;&#208;&#181;&#209;&#129;&#209;&#130;&#208;&#181;">
<path id="Vector 83" d="M7 28V4H25V28H7Z" stroke="#24282E" stroke-linejoin="round"/>
<path id="Vector 85" d="M13 8V14" stroke="#24282E" stroke-linejoin="round"/>
<path id="Vector 93" d="M13 4V5" stroke="#24282E" stroke-linejoin="round"/>
<path id="Vector 86" d="M10 15V21" stroke="#24282E" stroke-linejoin="round"/>
<path id="Vector 99" d="M22 15V21" stroke="#24282E" stroke-linejoin="round"/>
<path id="Vector 98" d="M10 6V12" stroke="#24282E" stroke-linejoin="round"/>
<path id="Vector 100" d="M22 6V12" stroke="#24282E" stroke-linejoin="round"/>
<path id="Vector 97" d="M10 24V28" stroke="#24282E" stroke-linejoin="round"/>
<path id="Vector 101" d="M22 24V28" stroke="#24282E" stroke-linejoin="round"/>
<path id="Vector 87" d="M13 17V23" stroke="#24282E" stroke-linejoin="round"/>
<path id="Vector 92" d="M13 26V28" stroke="#24282E" stroke-linejoin="round"/>
<path id="Vector 89" d="M16 19V25" stroke="#24282E" stroke-linejoin="round"/>
<path id="Vector 94" d="M19 21V27" stroke="#24282E" stroke-linejoin="round"/>
<path id="Vector 90" d="M16 10V16" stroke="#24282E" stroke-linejoin="round"/>
<path id="Vector 95" d="M19 12V18" stroke="#24282E" stroke-linejoin="round"/>
<path id="Vector 91" d="M16 4V7" stroke="#24282E" stroke-linejoin="round"/>
<path id="Vector 96" d="M19 4V9" stroke="#24282E" stroke-linejoin="round"/>
<rect x="0.5" y="0.5" width="31" height="31" rx="1.5" stroke="#24282E"/>
</g>
</svg>
