<svg width="32" height="32" viewBox="0 0 32 32" fill="none" xmlns="http://www.w3.org/2000/svg">
<g id="&#208;&#146; &#209;&#129;&#208;&#190;&#208;&#187;&#208;&#189;&#208;&#181;&#209;&#135;&#208;&#189;&#208;&#190;&#208;&#188; &#208;&#188;&#208;&#181;&#209;&#129;&#209;&#130;&#208;&#181;">
<path id="Vector 102" d="M3 28H29" stroke="#24282E" stroke-linejoin="round"/>
<path id="Vector 103" d="M9 4C9 4 9 18 8 19C7 20 3.5 10.5 3.5 10.5C7 21.5 8.5 19 9 28H10.5C7.5 18 9.5 11.5 9 4Z" fill="#24282E" stroke="#24282E" stroke-linejoin="round"/>
<path id="Vector 105" d="M24.5 19C21.5 19.5 22 4 22 4C21.5 15 23.5 17 21 28H22.5C22.0423 17.9302 24.5176 21.6878 28.0081 16.6417C28.6694 15.7714 29 15 29 15C28.6617 15.6343 28.3306 16.1755 28.0081 16.6417C27.2609 17.6251 26.0916 18.7347 24.5 19Z" fill="#24282E" stroke="#24282E" stroke-linejoin="round"/>
<path id="Vector 104" d="M10.5 9C12 20 13 11 12.5 28H14C11.5 13.5 15.5 11 15.5 5C15 9.5 13.8022 13.2643 12.5 13.5C11.1978 13.7357 10.5 9 10.5 9Z" fill="#24282E" stroke="#24282E" stroke-linejoin="round"/>
<path id="Vector 106" d="M16.0002 28C14.3148 21.2583 16.1802 13.8064 17.1079 6.8413C17.3086 4.66104 17.5002 3 17.5002 3C17.4216 4.25829 17.2811 5.54132 17.1079 6.8413C16.7473 10.7605 16.3577 16.3575 17.0002 17C18.0002 18 20.5002 14 20.5002 14C18.5002 18.5 13.5002 18.5 18.0002 28H16.0002Z" fill="#24282E" stroke="#24282E" stroke-linejoin="round"/>
<rect x="0.5" y="0.5" width="31" height="31" rx="1.5" stroke="#24282E"/>
</g>
</svg>
