<svg width="32" height="32" viewBox="0 0 32 32" fill="none" xmlns="http://www.w3.org/2000/svg">
<g id="&#208;&#146; &#209;&#129;&#208;&#190;&#208;&#187;&#208;&#189;&#208;&#181;&#209;&#135;&#208;&#189;&#208;&#190;&#208;&#188; &#208;&#188;&#208;&#181;&#209;&#129;&#209;&#130;&#208;&#181;">
<circle id="Ellipse 24" cx="16.5" cy="17.5" r="3" stroke="#24282E"/>
<circle id="Ellipse 25" cx="22" cy="22" r="3.5" stroke="#24282E"/>
<circle id="Ellipse 27" cx="24.5" cy="15.5" r="3" stroke="#24282E"/>
<circle id="Ellipse 28" cx="6.5" cy="18.5" r="3" stroke="#24282E"/>
<circle id="Ellipse 26" cx="12" cy="23" r="3.5" stroke="#24282E"/>
<path id="Vector 107" d="M15 3V5.25M15 12L17 14.5M15 12V7.5M15 12L13 15M15 7.5L19.5 11.5M15 7.5V5.25M19.5 11.5L24 12.5M19.5 11.5C19.5 12.1691 19.5 13.3554 19.5 14.5M15 5.25L10.5 12.5M10.5 12.5L6.5 15.5M10.5 12.5L11.5 15M19.5 17.5C19.5 17.2784 19.5 15.9214 19.5 14.5M19.5 14.5L21.5 15.5" stroke="#24282E" stroke-linejoin="round"/>
<path id="Vector 108" d="M25.5 21.5C27 22 30 19.5 27 17" stroke="#24282E" stroke-linejoin="round"/>
<path id="Vector 109" d="M9 17.0003C9.33333 15.8337 11.5 14.0005 14 15.5003" stroke="#24282E" stroke-linejoin="round"/>
<path id="Vector 110" d="M14.5 25.5C15.5 26.5 18 27.8 20 25" stroke="#24282E" stroke-linejoin="round"/>
<path id="Vector 111" d="M15 21.4995C15.5 20.9995 16.9 20.1995 18.5 20.9995" stroke="#24282E" stroke-linejoin="round"/>
<rect x="0.5" y="0.5" width="31" height="31" rx="1.5" stroke="#24282E"/>
</g>
</svg>
