<svg width="32" height="32" viewBox="0 0 32 32" fill="none" xmlns="http://www.w3.org/2000/svg">
<g id="&#208;&#146; &#209;&#129;&#208;&#190;&#208;&#187;&#208;&#189;&#208;&#181;&#209;&#135;&#208;&#189;&#208;&#190;&#208;&#188; &#208;&#188;&#208;&#181;&#209;&#129;&#209;&#130;&#208;&#181;">
<g id="Group 33">
<path id="Vector 112" d="M12.5 24.947C12.5 22.447 17 19.747 19 24.947C17.5 26.4469 14.5 26.9469 12.5 24.947Z" stroke="#24282E" stroke-linejoin="round"/>
<path id="Vector 113" d="M18.5 23.4469C21 18.947 23.0025 20.8779 23.5 21.9469C23.7898 22.5685 20.2244 25.7004 19 24.9469" stroke="#24282E" stroke-linejoin="round"/>
<path id="Vector 114" d="M13.5234 22.9464C11.7045 19.1073 8.13575 21.1433 9.02344 22.9464C8.73362 23.568 11.299 25.6999 12.5234 24.9464" stroke="#24282E" stroke-linejoin="round"/>
<path id="Vector 115" d="M11 20.9469C12.1667 19.2803 14.9 17.1469 16.5 21.9469" stroke="#24282E" stroke-linejoin="round"/>
<path id="Vector 116" d="M16 20.4468C16.8333 19.1135 20 16.9468 22 20.4469" stroke="#24282E" stroke-linejoin="round"/>
<path id="Vector 117" d="M21.5 19.4473C23.1285 19.3111 24.0453 19.2632 25.5 17.9473C26.0691 19.8861 24.8959 21.3117 23.5 21.9473" stroke="#24282E" stroke-linejoin="round"/>
<path id="Vector 118" d="M9 21.9473C7.68647 21.7242 7.44349 20.0392 7 17.9473C8.88835 18.7408 9.94582 19.6899 12 19.9473" stroke="#24282E" stroke-linejoin="round"/>
<path id="Vector 119" d="M8.5 18.4468C9.33333 16.9468 12 14.9468 14 18.9466" stroke="#24282E" stroke-linejoin="round"/>
<path id="Vector 120" d="M14 18.9469C13.5 17.4468 17.5 14.4468 19 18.4468" stroke="#24282E" stroke-linejoin="round"/>
<path id="Vector 121" d="M19.5 18.4468C20.1667 17.1135 23.5 14.9468 24.5 18.4469" stroke="#24282E" stroke-linejoin="round"/>
<path id="Vector 122" d="M12.9999 17.4473C11.4999 15.9473 8.5 15.4473 7 13.9473C7 15.9473 7 16.9473 8.5 17.9473" stroke="#24282E" stroke-linejoin="round"/>
<path id="Vector 123" d="M10.5 15.9467C11.6667 14.4467 14.5 12.4467 16.5 16.4467" stroke="#24282E" stroke-linejoin="round"/>
<path id="Vector 124" d="M17.5 16.4468C18 14.9468 21.3 12.8467 22.5 16.4467" stroke="#24282E" stroke-linejoin="round"/>
<path id="Vector 125" d="M22 15.4473C24 14.9474 25.5 13.4473 25.5 13.4473C25.5 13.4473 25.5 16.4474 24.5 17.9473" stroke="#24282E" stroke-linejoin="round"/>
<path id="Vector 126" d="M8 14.4462C8.5 12.7795 10.2 10.7463 13 13.9463" stroke="#24282E" stroke-linejoin="round"/>
<path id="Vector 127" d="M14.5 14.4467C15.3333 12.9467 17.6 10.8467 20 14.4467" stroke="#24282E" stroke-linejoin="round"/>
<path id="Vector 128" d="M18.5 12.9468C19.6667 11.7801 22.4 10.4468 24 14.4468" stroke="#24282E" stroke-linejoin="round"/>
<path id="Vector 129" d="M11.5 12.4466C11.6667 11.1132 13.7 9.74647 16.5 12.9465" stroke="#24282E" stroke-linejoin="round"/>
<path id="Vector 130" d="M8.50036 13.4473C7.00036 12.4473 8.00035 9.94727 8.00038 8.94727C9.00037 9.94727 10.0003 11.9473 12.0004 11.9473" stroke="#24282E" stroke-linejoin="round"/>
<path id="Vector 131" d="M21 11.9473C22.28 10.8464 22.942 9.71565 23.5 8.44727C24.5 10.4473 24.8241 13.3242 24 13.9473" stroke="#24282E" stroke-linejoin="round"/>
<path id="Vector 132" d="M14.5 11.4463C15.3333 9.77966 17.6 7.94621 20 11.9462" stroke="#24282E" stroke-linejoin="round"/>
<path id="Vector 133" d="M9 9.94653C9.66667 8.94653 11.5 8.14657 13.5 10.9466" stroke="#24282E" stroke-linejoin="round"/>
<path id="Vector 134" d="M18 9.9463C18.1667 8.4463 19.4 6.2463 23 9.4463" stroke="#24282E" stroke-linejoin="round"/>
<path id="Vector 135" d="M11 8.94657C12.3333 7.77991 15.3 6.24657 16.5 9.44657" stroke="#24282E" stroke-linejoin="round"/>
<path id="Vector 136" d="M9 9.44727C9 7.44727 10.3 5.44727 11.5 5.44727C12.7 5.44727 13 6.94727 13.5 7.44727" stroke="#24282E" stroke-linejoin="round"/>
<path id="Vector 137" d="M18.4999 8.44727C18.4999 8.44727 17.9999 4.94727 19.4999 4.94727C20.9999 4.94727 22.9999 8.94727 22.9999 8.94727" stroke="#24282E" stroke-linejoin="round"/>
<path id="Vector 138" d="M13.5 7.44693C15 5.94702 17.7 5.84693 18.5 7.44693" stroke="#24282E" stroke-linejoin="round"/>
<path id="Vector 139" d="M12 5.44695C12.3333 4.61362 15 3.44702 16 6.44697" stroke="#24282E" stroke-linejoin="round"/>
<path id="Vector 140" d="M14.5 4.94672C15 3.44669 18.5 3.94678 19 4.94667" stroke="#24282E" stroke-linejoin="round"/>
</g>
<path id="Vector 141" d="M10.4998 25C9.99982 26 7.49982 26.5 7.49982 26.5C7.04576 27.2515 10.1302 26.2207 12.9999 26C13.8405 26.4583 14.1444 27.9265 14.4998 29C15.211 28.0345 15.1943 26.5619 16.9999 26.5C18.225 26.5548 19.2217 27.8412 19.9998 28.5C19.9614 27.9729 19.3825 27.2397 19.9999 26C21.878 26.1574 23.3415 26.1862 24.9998 25C23.2856 25.4146 22.3729 25.0152 20.9999 24.5" stroke="#24282E" stroke-linejoin="round"/>
<rect x="0.5" y="0.5" width="31" height="31" rx="1.5" stroke="#24282E"/>
</g>
</svg>
