<svg width="32" height="32" viewBox="0 0 32 32" fill="none" xmlns="http://www.w3.org/2000/svg">
<g id="&#208;&#146; &#209;&#129;&#208;&#190;&#208;&#187;&#208;&#189;&#208;&#181;&#209;&#135;&#208;&#189;&#208;&#190;&#208;&#188; &#208;&#188;&#208;&#181;&#209;&#129;&#209;&#130;&#208;&#181;">
<path id="Vector 142" d="M24.0006 11.9999C19.5006 9.5 15.8564 12.9997 15.8564 12.9997C15.8564 12.9997 11.2123 9.49983 7.35646 12.9999C3.50062 16.4999 8.35643 24.9997 11.3564 26.9997C14.3564 28.9998 14.3564 27.4997 16.8564 26.9997C19.3564 26.4998 20.8564 28.9997 23.3564 25.9997C25.8564 22.9997 28.5006 14.4998 24.0006 11.9999Z" stroke="#24282E" stroke-linejoin="round"/>
<path id="Vector 143" d="M15 10.5C9.50006 10 9 5 9 5C9 5 17 5.5 15 10.5ZM15 10.5C14.5 12.5 16 13 16 13M15 10.5L17 8.00001" stroke="#24282E" stroke-linejoin="round"/>
<path id="Vector 144" d="M19.4991 17.0002C17.4991 15.8002 18.9991 14.5002 20.9992 14.0002C22.9993 13.5002 23.9991 14.5002 23.4991 16.0002C22.9991 17.5002 21.4991 18.2002 19.4991 17.0002Z" stroke="#24282E" stroke-linejoin="round"/>
<rect x="0.5" y="0.5" width="31" height="31" rx="1.5" stroke="#24282E"/>
</g>
</svg>
