<svg width="32" height="32" viewBox="0 0 32 32" fill="none" xmlns="http://www.w3.org/2000/svg">
<g id="&#208;&#146; &#209;&#129;&#208;&#190;&#208;&#187;&#208;&#189;&#208;&#181;&#209;&#135;&#208;&#189;&#208;&#190;&#208;&#188; &#208;&#188;&#208;&#181;&#209;&#129;&#209;&#130;&#208;&#181;">
<g id="Group 34">
<path id="Ellipse 29" d="M16 14.0352C14.3431 14.0352 13 13.1397 13 12.0352C13 10.9306 14.3431 10.0352 16 10.0352C17.6569 10.0352 19 10.9306 19 12.0352C19 12.3464 18.8933 12.6411 18.703 12.9038" stroke="#24282E"/>
<path id="Vector 145" d="M21.5 12.5346C19.9 12.1346 15.3333 14.3679 13.5 15.5346L10.5 15.0347C11.932 16.1088 11.366 15.7524 15 18.3254C17.3088 16.8214 19.8635 15.7056 23.5 15.3253C23.1667 14.3253 23.1 12.9346 21.5 12.5346Z" stroke="#24282E" stroke-linejoin="round"/>
<path id="Vector 146" d="M10.5 15.0348C10.3317 11.6904 10.2588 11.4102 9.5 10.0348C12.073 9.05103 13.5788 9.89748 16.5 10.0349" stroke="#24282E" stroke-linejoin="round"/>
<path id="Vector 147" d="M14.5 10.0352C15.5871 8.73293 19 8.03516 20.5 6.03516C22.5 7.03516 24.5 10.0353 24 12.0352C23.5 14.0352 22.5 13.035 22.5 13.035" stroke="#24282E" stroke-linejoin="round"/>
<path id="Vector 148" d="M11 9.5349C11.6667 9.20157 13.1 7.73481 13.5 6.53481C13.9 5.33481 17.5 6.36825 18.5 7.53491" stroke="#24282E" stroke-linejoin="round"/>
<path id="Vector 149" d="M10 12.0352C10 12.0352 7 12.5352 7 14.0352C7 15.5352 8 16.5352 8 18.0352C8 19.5352 7 20.0352 7 20.0352C7 20.0352 9.5 20.5352 14 20.0352C18.5 19.5352 18 17.0352 18.5 16.5352" stroke="#24282E" stroke-linejoin="round"/>
<path id="Vector 150" d="M17 18.5352L18 20.5352C20.2118 19.7894 21.3847 19.3005 25 20.0352C25.3813 18.6067 25.7758 17.6946 29 14.5002C29 14.5002 26.5 13.0352 26.5 11.5352" stroke="#24282E" stroke-linejoin="round"/>
<path id="Vector 151" d="M22.5 7.53516L25 7.03516C25.5 9.03516 27.5 11.3576 26 14.0352C24.9906 15.837 25.2548 15.5318 23 15.0352" stroke="#24282E" stroke-linejoin="round"/>
<path id="Vector 152" d="M14.9993 10.0352C14.666 11.0352 14.9994 12.5352 16.9993 13.5352" stroke="#24282E" stroke-linejoin="round"/>
<path id="Vector 153" d="M17 10.0352C18 11.5352 17.1 12.5352 15.5 12.5352" stroke="#24282E" stroke-linejoin="round"/>
<path id="Vector 154" d="M13.0005 7.53498C10.8912 6.44898 10.0006 8.53492 6.50052 8.53493C5.37725 9.02167 6.25986 13.0698 7.50049 13.0349" stroke="#24282E" stroke-linejoin="round"/>
<path id="Vector 155" d="M16 22.5C18 24.5 18 25.5 18.5 29.0349" stroke="#24282E" stroke-linejoin="round"/>
<path id="Vector 156" d="M19 22.5352L20 28.5352" stroke="#24282E" stroke-linejoin="round"/>
<path id="Vector 157" d="M6.5 12.0352L4 14.5352L8 18.0352" stroke="#24282E" stroke-linejoin="round"/>
<path id="Vector 158" d="M11.5 20.5352C11.6667 21.5352 14.3122 22.5352 18 22.5352C22 22.5352 23.5 20.3685 24 20.0352" stroke="#24282E" stroke-linejoin="round"/>
</g>
<rect x="0.5" y="0.5" width="31" height="31" rx="1.5" stroke="#24282E"/>
</g>
</svg>
