<svg width="32" height="32" viewBox="0 0 32 32" fill="none" xmlns="http://www.w3.org/2000/svg">
<g id="&#208;&#146; &#209;&#129;&#208;&#190;&#208;&#187;&#208;&#189;&#208;&#181;&#209;&#135;&#208;&#189;&#208;&#190;&#208;&#188; &#208;&#188;&#208;&#181;&#209;&#129;&#209;&#130;&#208;&#181;">
<path id="Vector 159" d="M6 3C13.5 19.0256 16.3337 15.1919 16 19.6667C15.8142 22.1584 12.5 21 9.125 23.5128V28" stroke="#24282E" stroke-linejoin="round"/>
<path id="Vector 160" d="M7.59837 17C7.59837 17 4.45434 18.6667 5.08315 20.3333C5.71195 22 7.59837 22 7.59837 22C9.52022 21.2113 10.466 20.1103 12 20" stroke="#24282E" stroke-linejoin="round"/>
<circle id="Ellipse 30" cx="22.5" cy="9.5" r="1" stroke="#24282E"/>
<circle id="Ellipse 31" cx="22.7351" cy="23.7023" r="1" transform="rotate(105 22.7351 23.7023)" stroke="#24282E"/>
<path id="Vector 161" d="M23.6481 6.90696C24.405 3.39058 20.2423 2.68736 21.3776 6.90696C17.9718 3.03902 15.7012 5.50045 19.8639 8.31349C13.8091 7.61024 15.7012 11.1266 19.8639 10.4233C15.3228 11.8298 18.7286 15.3462 21.3776 11.8298C20.6207 16.4011 24.405 15.6978 23.6481 11.8298C25.1618 15.3462 27.4324 13.2364 25.1618 10.7749C28.9461 11.1266 28.9461 8.31349 25.1618 8.31349C28.1892 6.20371 25.5402 3.39065 23.6481 6.90696Z" stroke="#24282E" stroke-linejoin="round"/>
<path id="Vector 162" d="M24.9431 25.4818C28.1438 27.123 29.9004 23.2842 25.5307 23.2886C30.1484 21 28.3585 18.1697 24.5639 21.4625C26.8103 15.796 22.9241 16.7135 22.526 20.9164C22.3427 16.166 18.0647 18.5457 20.7756 22.0145C16.556 20.1003 16.2559 23.9376 20.188 24.2077C16.3997 24.7597 17.8499 27.4989 20.8152 25.9428C19.496 29.5071 22.2133 30.2352 23.1927 26.5799C24.447 30.0502 27.8499 28.2196 24.9431 25.4818Z" stroke="#24282E" stroke-linejoin="round"/>
<rect x="0.5" y="0.5" width="31" height="31" rx="1.5" stroke="#24282E"/>
</g>
</svg>
