<svg width="32" height="32" viewBox="0 0 32 32" fill="none" xmlns="http://www.w3.org/2000/svg">
<g id="&#208;&#146; &#209;&#129;&#208;&#190;&#208;&#187;&#208;&#189;&#208;&#181;&#209;&#135;&#208;&#189;&#208;&#190;&#208;&#188; &#208;&#188;&#208;&#181;&#209;&#129;&#209;&#130;&#208;&#181;">
<path id="Vector 163" d="M9.46235 7.48659C14.5001 -2.70102 20.5 11.7991 17 20.7991C7.03765 15.1116 -0.999963 9.79908 9.46235 7.48659Z" stroke="#24282E" stroke-linejoin="round"/>
<path id="Vector 164" d="M4 4.29883C7.66667 5.63216 15.4 11.5988 17 20.7988" stroke="#24282E" stroke-linejoin="round"/>
<path id="Vector 165" d="M18 28.3932C20.5 24.3931 19 13.8931 25 17.8931C32 18.8931 28 27.3932 18 28.3932Z" stroke="#24282E" stroke-linejoin="round"/>
<path id="Vector 166" d="M18 28.5C23 25 27 16.5 25.5 13.5" stroke="#24282E" stroke-linejoin="round"/>
<path id="Vector 167" d="M8.5 12.5C9.3 11.7 9.83333 9.5 10 8.5C10.8333 8.83333 13 9.2 15 8" stroke="#24282E" stroke-linejoin="round"/>
<path id="Vector 168" d="M11 15.5C12 14.5 12.3333 11.8333 12 10.5C12.8333 11 14.8 11.8 16 11" stroke="#24282E" stroke-linejoin="round"/>
<path id="Vector 169" d="M13.5 17C14.4417 16.1099 14.5581 15.4005 14.5 14L16.5 15" stroke="#24282E" stroke-linejoin="round"/>
<path id="Vector 170" d="M26 23.5C26 21.5 25 21 24.5 20.5C23.6667 20.6667 22.5 21 21.5 21" stroke="#24282E" stroke-linejoin="round"/>
<path id="Vector 171" d="M23.5 25.5C23.4733 24.3602 23.6661 23.8523 23 23C22.2429 23.3905 21.8131 23.5659 21 23.5" stroke="#24282E" stroke-linejoin="round"/>
<rect x="0.5" y="0.5" width="31" height="31" rx="1.5" stroke="#24282E"/>
</g>
</svg>
