<svg width="32" height="32" viewBox="0 0 32 32" fill="none" xmlns="http://www.w3.org/2000/svg">
<g id="&#208;&#146; &#209;&#129;&#208;&#190;&#208;&#187;&#208;&#189;&#208;&#181;&#209;&#135;&#208;&#189;&#208;&#190;&#208;&#188; &#208;&#188;&#208;&#181;&#209;&#129;&#209;&#130;&#208;&#181;">
<path id="Vector 179" d="M3 28H29" stroke="#24282E" stroke-linejoin="round"/>
<g id="Group 35">
<path id="Vector 176" d="M12.5 24H19M12.5 16.5L12 14.5L14 11.5L15 9.5L14.5 7.5L16 5.5L16.5 3.5L18.5 3L19.5 5V7.5C19 7.83333 20 10.1 20 10.5C20 11 20.5 11.5 20.5 12C20.5 12.5 21 15 21 15.5C21 15.9 22 17.8333 22 19" stroke="#24282E" stroke-linejoin="round"/>
<path id="Vector 177" d="M5 16.5L4 21V22L6.5 23.5L11.5 24.5L15.5 22.5L15 19L11.5 15.5H8.5L5 16.5Z" stroke="#24282E" stroke-linejoin="round"/>
<path id="Vector 178" d="M19 21L19.5 24.5L23.5 26L27 25L27.5 22L26 19H22L19 21Z" stroke="#24282E" stroke-linejoin="round"/>
<path id="Vector 180" d="M9 24V28" stroke="#24282E" stroke-linejoin="round"/>
<path id="Vector 182" d="M15 24V28" stroke="#24282E" stroke-linejoin="round"/>
<path id="Vector 184" d="M22 25.5V28" stroke="#24282E" stroke-linejoin="round"/>
<path id="Vector 181" d="M11.5 24.5V28" stroke="#24282E" stroke-linejoin="round"/>
<path id="Vector 183" d="M17.5 24.5V28" stroke="#24282E" stroke-linejoin="round"/>
<path id="Vector 185" d="M25 25.5V28" stroke="#24282E" stroke-linejoin="round"/>
</g>
<rect x="0.5" y="0.5" width="31" height="31" rx="1.5" stroke="#24282E"/>
</g>
</svg>
