<svg width="32" height="32" viewBox="0 0 32 32" fill="none" xmlns="http://www.w3.org/2000/svg">
<g id="&#208;&#146; &#209;&#129;&#208;&#190;&#208;&#187;&#208;&#189;&#208;&#181;&#209;&#135;&#208;&#189;&#208;&#190;&#208;&#188; &#208;&#188;&#208;&#181;&#209;&#129;&#209;&#130;&#208;&#181;">
<mask id="mask0_367_7206" style="mask-type:alpha" maskUnits="userSpaceOnUse" x="4" y="3" width="24" height="26">
<rect id="Rectangle 67" x="4" y="3" width="24" height="26" fill="#D9D9D9"/>
</mask>
<g mask="url(#mask0_367_7206)">
<circle id="Ellipse 32" cx="28" cy="27" r="23.5" stroke="#24282E"/>
<circle id="Ellipse 33" cx="28" cy="27" r="21.5" stroke="#24282E"/>
<circle id="Ellipse 34" cx="28" cy="27" r="19.5" stroke="#24282E"/>
<circle id="Ellipse 35" cx="28.5" cy="27.5" r="18" stroke="#24282E"/>
<path id="Vector 186" d="M17.6172 21.3201L17.888 23.2159C17.9599 23.7196 18.2212 24.1769 18.6185 24.4948L19.9522 25.5617C20.3068 25.8454 20.7474 26 21.2016 26H24.6716C25.202 26 25.7107 25.7893 26.0858 25.4142L26.7929 24.7071C27.238 24.262 27.4476 23.6332 27.3586 23.0101L27.0554 20.8878C27.0188 20.6317 27.0323 20.3709 27.095 20.1199L27.3787 18.9851C27.4584 18.6666 27.4584 18.3334 27.3787 18.0149L27.111 16.9438C27.0379 16.6517 26.8999 16.3799 26.7071 16.1485L25.3337 14.5004C24.8269 13.8923 24.009 13.6403 23.2478 13.8578L21.3002 14.4142C21.1013 14.4711 20.9124 14.5584 20.7402 14.6732L20.2209 15.0194C19.761 15.326 19.4484 15.8094 19.3576 16.3547L19.0802 18.0189C19.0275 18.335 18.8996 18.6338 18.7074 18.8902L17.9971 19.8373C17.6788 20.2616 17.5421 20.795 17.6172 21.3201Z" stroke="#24282E" stroke-linejoin="round"/>
<path id="Vector 187" d="M21.5 25.5V29" stroke="#24282E" stroke-linejoin="round"/>
<path id="Vector 188" d="M24 25.5V29" stroke="#24282E" stroke-linejoin="round"/>
</g>
<rect x="0.5" y="0.5" width="31" height="31" rx="1.5" stroke="#24282E"/>
</g>
</svg>
