<svg width="32" height="32" viewBox="0 0 32 32" fill="none" xmlns="http://www.w3.org/2000/svg">
<g id="&#208;&#146; &#209;&#129;&#208;&#190;&#208;&#187;&#208;&#189;&#208;&#181;&#209;&#135;&#208;&#189;&#208;&#190;&#208;&#188; &#208;&#188;&#208;&#181;&#209;&#129;&#209;&#130;&#208;&#181;">
<path id="Vector 189" d="M4 28L23 12H26M29 12H26M26 12V28" stroke="#24282E" stroke-linejoin="round"/>
<path id="Vector 190" d="M5.50003 5.5C4.00003 5.5 3.50003 7.99958 3.50003 11.9996C3.50003 15.9996 3 23.9995 4 24.5C5 25.0005 10 21.9993 10 19.9993C9.86756 17.6519 7.00003 5.5 5.50003 5.5Z" stroke="#24282E" stroke-linejoin="round"/>
<path id="Vector 191" d="M8 10.9998C8 8.49973 8.5 6.82082 9.5 5.9997C10.5 5.17859 11.5 7.49984 12 9.49975C12.5 11.4996 13.5 16.9998 13 17.9998C12.5 18.9998 10 19.9997 10 19.9997" stroke="#24282E" stroke-linejoin="round"/>
<path id="Vector 192" d="M12 9.5C12 9.5 12 6 13.5 6C15 6 15.5 9 15.5 9C15.5 9 17 13.5 16.5 15C16 16.5 13 17.5 13 17.5" stroke="#24282E" stroke-linejoin="round"/>
<path id="Vector 193" d="M15.4999 9.0001C15.4999 9.0001 14.9999 6.5 16.4999 6.5C17.9999 6.5 18.9999 12.0001 19 13C19.0001 13.9999 16.4999 15.0001 16.4999 15.0001" stroke="#24282E" stroke-linejoin="round"/>
<path id="Vector 194" d="M18 8.50007C18 8.50007 18 6.50025 19.5 7.00014C21 7.50004 21.5 10.0004 21.5 11.0002C21.5 12.0001 19 13.0001 19 13.0001" stroke="#24282E" stroke-linejoin="round"/>
<rect x="0.5" y="0.5" width="31" height="31" rx="1.5" stroke="#24282E"/>
</g>
</svg>
