<svg width="32" height="32" viewBox="0 0 32 32" fill="none" xmlns="http://www.w3.org/2000/svg">
<g id="&#208;&#146; &#209;&#129;&#208;&#190;&#208;&#187;&#208;&#189;&#208;&#181;&#209;&#135;&#208;&#189;&#208;&#190;&#208;&#188; &#208;&#188;&#208;&#181;&#209;&#129;&#209;&#130;&#208;&#181;">
<g id="Group 36">
<path id="Vector 195" d="M3.5 20.4998C3.5 20.4998 12.5 20.9998 16 17.4998C19.5 13.9998 13.5 11.4998 16 8.49979C18.5 5.49979 25.5 6.49987 25.5 6.49987C25.5 6.49987 23.5 5.8803 20 8.49979C16.5 11.1193 20.42 11.4998 21 17.4998C21.58 23.4999 5.48748 25.7259 3.5 25.4998V20.4998Z" stroke="#24282E" stroke-linejoin="round"/>
<path id="Vector 196" d="M3.5 25.5V29C10 28.5 16.5 27.5 21 23V18" stroke="#24282E" stroke-linejoin="round"/>
<path id="Vector 197" d="M19.5 12.5C19.7041 10.7599 20.5615 9.57502 25.5 6.5" stroke="#24282E" stroke-linejoin="round"/>
<path id="Vector 198" d="M25 6.5H29.5C29.5 6.5 26.5 8 24.5 11.5C22.5 15 29 17 29 21.5C29 26 23 29 23 29H3" stroke="#24282E" stroke-linejoin="round"/>
<path id="Vector 200" d="M7 13V17H9V13.5" stroke="#24282E" stroke-linejoin="round"/>
</g>
<path id="Vector 199" d="M3.29396 8.14828L3.15004 9.29967C3.05283 10.0774 3.21913 10.8652 3.62237 11.5373C4.17638 12.4606 5.12414 13.078 6.19264 13.2116L7.87521 13.4219C8.28988 13.4737 8.70962 13.4701 9.12333 13.411L10.0618 13.2769C11.2497 13.1072 12.2397 12.2809 12.6191 11.1426C12.8645 10.4066 12.8312 9.60608 12.5256 8.89296L12.2903 8.34404C11.8109 7.22534 10.7109 6.5 9.49374 6.5C9.16672 6.5 8.84184 6.44728 8.5316 6.34387L6.97854 5.82618C6.34671 5.61557 5.66068 5.63573 5.0423 5.88308C4.09072 6.26371 3.42109 7.13131 3.29396 8.14828Z" stroke="#24282E" stroke-linejoin="round"/>
<rect x="0.5" y="0.5" width="31" height="31" rx="1.5" stroke="#24282E"/>
</g>
</svg>
