<svg width="32" height="32" viewBox="0 0 32 32" fill="none" xmlns="http://www.w3.org/2000/svg">
<g id="&#208;&#146; &#209;&#129;&#208;&#190;&#208;&#187;&#208;&#189;&#208;&#181;&#209;&#135;&#208;&#189;&#208;&#190;&#208;&#188; &#208;&#188;&#208;&#181;&#209;&#129;&#209;&#130;&#208;&#181;">
<path id="Vector 201" d="M28 27H4L28 11V27Z" stroke="#24282E" stroke-linejoin="round"/>
<path id="Vector 202" d="M19.2889 10.5777L18.4374 8.8749C18.1614 8.32288 17.646 7.9292 17.0408 7.80817L16.1729 7.63458C15.7368 7.54735 15.284 7.60799 14.8862 7.80688L14.1138 8.19312C13.716 8.39201 13.2632 8.45264 12.8271 8.36542L12.0496 8.20992C11.3939 8.07877 10.716 8.28402 10.2431 8.75686L10.1005 8.89949C10.0336 8.96641 9.962 9.0285 9.88629 9.08528L8.8 9.9C8.29639 10.2777 8 10.8705 8 11.5V12V13.6716C8 14.202 8.21071 14.7107 8.58579 15.0858L8.85997 15.36C8.95309 15.4531 9.0368 15.5552 9.10985 15.6648L9.62527 16.4379C9.86814 16.8022 10.2255 17.0752 10.6409 17.2136C11.1862 17.3954 11.7837 17.3298 12.2765 17.0341L13.525 16.285C13.8358 16.0985 14.1915 16 14.554 16H16.8676C17.5701 16 18.2212 15.6314 18.5826 15.029L19.215 13.975C19.4015 13.6642 19.5 13.3085 19.5 12.946V11.4721C19.5 11.1616 19.4277 10.8554 19.2889 10.5777Z" stroke="#24282E" stroke-linejoin="round"/>
<path id="Vector 203" d="M13.5 16.5V20.5" stroke="#24282E" stroke-linejoin="round"/>
<path id="Vector 204" d="M16 16V19" stroke="#24282E" stroke-linejoin="round"/>
<path id="Vector 205" d="M20.4174 10.471L19.8978 11.337C19.6418 11.7636 19.5541 12.2703 19.6516 12.7582L19.8288 13.6442C19.9347 14.1734 20.316 14.6053 20.828 14.776C21.2536 14.9179 21.7203 14.8623 22.1007 14.6246L24.6955 13.0028C25.1516 12.7177 25.3163 12.1326 25.0757 11.6514C25.0256 11.5511 24.9596 11.4596 24.8803 11.3803L23.5858 10.0858C23.2107 9.71071 22.702 9.5 22.1716 9.5H22.1324C21.4299 9.5 20.7788 9.8686 20.4174 10.471Z" stroke="#24282E" stroke-linejoin="round"/>
<path id="Vector 206" d="M8.00004 14.5H6.69425C5.71658 14.5 4.89526 15.2126 4.61116 16.1481C4.42683 16.7551 4.20887 17.2911 4 17.5C3.78155 17.7184 3.80171 18.593 3.86502 19.5048C3.94152 20.6067 4.89547 21.5 6.00004 21.5H6.58953C6.86038 21.5 7.12841 21.445 7.37737 21.3383L9.82666 20.2886C10.2615 20.1023 10.6161 19.7678 10.8277 19.3447L11.0528 18.8944C11.3344 18.3314 11.3344 17.6686 11.0528 17.1056L11 17" stroke="#24282E" stroke-linejoin="round"/>
<path id="Vector 207" d="M7.5 21.5V24.5" stroke="#24282E" stroke-linejoin="round"/>
<path id="Vector 208" d="M9.5 20.5V23.5" stroke="#24282E" stroke-linejoin="round"/>
<path id="Vector 209" d="M22 9.5V8.82843C22 8.29799 22.2107 7.78929 22.5858 7.41421L23.2722 6.72778C23.7289 6.27106 24.3781 6.06302 25.0152 6.16921L25.9954 6.33257C26.6266 6.43776 27.1693 6.83861 27.4555 7.41093L27.5983 7.69669C27.8538 8.20765 27.8786 8.80348 27.6664 9.33389L27.2307 10.4232C27.0804 10.7989 26.8198 11.1201 26.4831 11.3446L25.5 12" stroke="#24282E" stroke-linejoin="round"/>
<rect x="0.5" y="0.5" width="31" height="31" rx="1.5" stroke="#24282E"/>
</g>
</svg>
