<svg width="32" height="32" viewBox="0 0 32 32" fill="none" xmlns="http://www.w3.org/2000/svg">
<g id="&#208;&#146; &#209;&#129;&#208;&#190;&#208;&#187;&#208;&#189;&#208;&#181;&#209;&#135;&#208;&#189;&#208;&#190;&#208;&#188; &#208;&#188;&#208;&#181;&#209;&#129;&#209;&#130;&#208;&#181;">
<path id="Vector 210" d="M8.5 7L4 28H27L24 20.5L21.5 25L16.6 15.8205L13.5 20L8.5 7Z" stroke="#24282E" stroke-linejoin="round"/>
<circle id="Ellipse 30" cx="22.5" cy="9.5" r="1" stroke="#24282E"/>
<path id="Vector 161" d="M23.6481 6.90696C24.405 3.39058 20.2423 2.68736 21.3776 6.90696C17.9718 3.03902 15.7012 5.50045 19.8639 8.31349C13.8091 7.61024 15.7012 11.1266 19.8639 10.4233C15.3228 11.8298 18.7286 15.3462 21.3776 11.8298C20.6207 16.4011 24.405 15.6978 23.6481 11.8298C25.1618 15.3462 27.4324 13.2364 25.1618 10.7749C28.9461 11.1266 28.9461 8.31349 25.1618 8.31349C28.1892 6.20371 25.5402 3.39065 23.6481 6.90696Z" stroke="#24282E" stroke-linejoin="round"/>
<rect x="0.5" y="0.5" width="31" height="31" rx="1.5" stroke="#24282E"/>
</g>
</svg>
