<svg width="32" height="32" viewBox="0 0 32 32" fill="none" xmlns="http://www.w3.org/2000/svg">
<g id="&#208;&#146; &#209;&#129;&#208;&#190;&#208;&#187;&#208;&#189;&#208;&#181;&#209;&#135;&#208;&#189;&#208;&#190;&#208;&#188; &#208;&#188;&#208;&#181;&#209;&#129;&#209;&#130;&#208;&#181;">
<path id="Vector 211" d="M4 23H15C13.5 24.5 12.5 25.5 12.5 27C13.5 29 15 29 16 27C17 29 19 29 20 27C21 29 23 29 24 27C25 29 27 29 28 27" stroke="#24282E" stroke-linejoin="round"/>
<path id="Vector 212" d="M12 6C6 13.5 15.5 19.5 8.5 23H11.5C15.5 19.5 8 13.5 12 6Z" stroke="#24282E" stroke-linejoin="round"/>
<path id="Vector 213" d="M12 6.4998C17 -0.500189 23 9.99976 19.5 19.4998" stroke="#24282E" stroke-width="0.7" stroke-linecap="round" stroke-linejoin="round"/>
<path id="Vector 214" d="M17.5 5.00034C20 3.66701 25.1871 3.62008 25.5 8.00034C25.9 13.6003 24 15.0005 27 19.5005" stroke="#24282E" stroke-width="0.7" stroke-linecap="round" stroke-linejoin="round"/>
<path id="Vector 215" d="M11.5 6.99985C14.5 5.99976 16.6 8.14615 17 13.7461C17.1786 16.2461 16.5 18.4998 16 19.9998" stroke="#24282E" stroke-width="0.7" stroke-linecap="round" stroke-linejoin="round"/>
<path id="Vector 216" d="M14 4.50024C2.5 0.00033474 6.5 15.0003 3.5 19.5003" stroke="#24282E" stroke-width="0.7" stroke-linecap="round" stroke-linejoin="round"/>
<path id="Vector 217" d="M14 4.50025C25.5 -0.999756 20.5 12.5001 24 20.0002" stroke="#24282E" stroke-width="0.7" stroke-linecap="round" stroke-linejoin="round"/>
<path id="Vector 219" d="M12.5002 5.49951C5.50028 3.9995 7.20025 17.2996 8.00025 18.4996" stroke="#24282E" stroke-width="0.7" stroke-linecap="round" stroke-linejoin="round"/>
<rect x="0.5" y="0.5" width="31" height="31" rx="1.5" stroke="#24282E"/>
</g>
</svg>
