<svg width="32" height="32" viewBox="0 0 32 32" fill="none" xmlns="http://www.w3.org/2000/svg">
<g id="&#208;&#146; &#209;&#129;&#208;&#190;&#208;&#187;&#208;&#189;&#208;&#181;&#209;&#135;&#208;&#189;&#208;&#190;&#208;&#188; &#208;&#188;&#208;&#181;&#209;&#129;&#209;&#130;&#208;&#181;">
<path id="Vector 220" d="M4 28H28" stroke="#24282E" stroke-linecap="round" stroke-linejoin="round"/>
<path id="Vector 221" d="M16 28V22.5" stroke="#24282E" stroke-linecap="round" stroke-linejoin="round"/>
<path id="Vector 222" d="M17.0858 23.0858L16.7658 22.7658C16.0452 22.0452 14.898 21.9816 14.1022 22.6183L13.8496 22.8203C13.3199 23.2441 12.6114 23.3705 11.9678 23.1559L11.0154 22.8385C10.381 22.627 9.89432 22.1125 9.71837 21.4674L8.71427 17.7857C8.5769 17.282 8.64193 16.7445 8.89548 16.2881L10.9184 12.6469C10.9727 12.5491 11.0351 12.4561 11.105 12.3688L12.4825 10.6469C12.8138 10.2327 12.9671 9.70383 12.9085 9.17664L12.6062 6.45537C12.5391 5.85152 12.7501 5.24991 13.1797 4.82029L13.5379 4.46212C14.5032 3.49683 16.1305 3.76091 16.741 4.9819L16.7625 5.02494C16.9181 5.33625 17.1523 5.60155 17.4419 5.79462L19.1094 6.90627C19.6658 7.2772 20 7.90166 20 8.57037V11.1716C20 11.702 20.2107 12.2107 20.5858 12.5858L22.9142 14.9142C23.2893 15.2893 23.5 15.798 23.5 16.3284V18.2602C23.5 18.7376 23.3292 19.1992 23.0185 19.5617L20.5 22.5L19.9142 23.0858C19.1332 23.8668 17.8668 23.8668 17.0858 23.0858Z" stroke="#24282E"/>
<rect x="0.5" y="0.5" width="31" height="31" rx="1.5" stroke="#24282E"/>
</g>
</svg>
