<svg width="32" height="32" viewBox="0 0 32 32" fill="none" xmlns="http://www.w3.org/2000/svg">
<g id="&#208;&#146; &#209;&#129;&#208;&#190;&#208;&#187;&#208;&#189;&#208;&#181;&#209;&#135;&#208;&#189;&#208;&#190;&#208;&#188; &#208;&#188;&#208;&#181;&#209;&#129;&#209;&#130;&#208;&#181;">
<path id="Vector 223" d="M3 28H2.5C2.5 28.2761 2.72386 28.5 3 28.5V28ZM3 20V19.5C2.72386 19.5 2.5 19.7239 2.5 20H3ZM5.5 20V20.5C5.77614 20.5 6 20.2761 6 20H5.5ZM5.5 16.5V16C5.22386 16 5 16.2239 5 16.5H5.5ZM8.5 16.5H9C9 16.2239 8.77614 16 8.5 16V16.5ZM8.5 20H8C8 20.2761 8.22386 20.5 8.5 20.5V20ZM10.5 20V20.5C10.7761 20.5 11 20.2761 11 20H10.5ZM10.5 13V12.5C10.2239 12.5 10 12.7239 10 13H10.5ZM12.5 13V13.5C12.7761 13.5 13 13.2761 13 13H12.5ZM12.5 7.5V7C12.2239 7 12 7.22386 12 7.5H12.5ZM15.5 7.5H16C16 7.22386 15.7761 7 15.5 7V7.5ZM15.5 13H15C15 13.2761 15.2239 13.5 15.5 13.5V13ZM17.5 13H18C18 12.7239 17.7761 12.5 17.5 12.5V13ZM17.5 20H17C17 20.2761 17.2239 20.5 17.5 20.5V20ZM3.5 28V20H2.5V28H3.5ZM3 20.5H5.5V19.5H3V20.5ZM6 20V16.5H5V20H6ZM8 16.5V20H9V16.5H8ZM8.5 20.5H10.5V19.5H8.5V20.5ZM11 20V13H10V20H11ZM10.5 13.5H12.5V12.5H10.5V13.5ZM13 13V7.5H12V13H13ZM15 7.5V13H16V7.5H15ZM15.5 13.5H17.5V12.5H15.5V13.5ZM17 13V20H18V13H17ZM17.5 20.5H19.5V19.5H17.5V20.5ZM23.5 27.5H3V28.5H23.5V27.5ZM5.5 17H7V16H5.5V17ZM7 17H8.5V16H7V17ZM7.5 16.5V14H6.5V16.5H7.5ZM12.5 8H14V7H12.5V8ZM14 8H15.5V7H14V8ZM14.5 7.5V4H13.5V7.5H14.5ZM23 25V28H24V25H23ZM23.5 28.5H29V27.5H23.5V28.5Z" fill="#24282E"/>
<path id="Vector 224" d="M21.495 24.9293L24.2663 24.5334C24.42 24.5114 24.5767 24.5256 24.724 24.5747L26.9137 25.3046C27.273 25.4243 27.6692 25.3308 27.937 25.063L28.9203 24.0797C29.2574 23.7426 29.3097 23.2145 29.0453 22.8179L27.6986 20.7979C27.5702 20.6053 27.5126 20.3741 27.5356 20.1437L27.966 15.8399C27.988 15.6195 27.9363 15.3981 27.819 15.2104L25.652 11.7432C25.5527 11.5843 25.5 11.4006 25.5 11.2132V6.53518C25.5 6.20083 25.3329 5.8886 25.0547 5.70313L24.8569 5.57125C24.3878 5.25851 23.753 5.3952 23.4542 5.87331L21.6169 8.81293C21.5399 8.93616 21.4907 9.0747 21.4726 9.2189L21 13L20 18L18.6954 21.9137C18.5757 22.273 18.6692 22.6692 18.937 22.937L20.6464 24.6464C20.869 24.869 21.1834 24.9738 21.495 24.9293Z" fill="#24282E" stroke="#24282E"/>
<rect x="0.5" y="0.5" width="31" height="31" rx="1.5" stroke="#24282E"/>
</g>
</svg>
