<svg width="32" height="32" viewBox="0 0 32 32" fill="none" xmlns="http://www.w3.org/2000/svg">
<g id="&#208;&#146; &#209;&#129;&#208;&#190;&#208;&#187;&#208;&#189;&#208;&#181;&#209;&#135;&#208;&#189;&#208;&#190;&#208;&#188; &#208;&#188;&#208;&#181;&#209;&#129;&#209;&#130;&#208;&#181;">
<path id="Vector 225" d="M3 27H29" stroke="black"/>
<path id="Vector 226" d="M4 27C4 27 17.5 24 18 19C18.5 14 16 13.2001 17.5 10.5C19 7.79993 22.5 7 22.5 7" stroke="black"/>
<path id="Vector 227" d="M22.9997 26.9996C22.9997 26.9996 24.9998 24.4996 25.4998 19.4996C25.9998 14.4996 21.4998 13.4996 21.9998 10.9996C22.1802 10.0978 23.0111 9.3261 23.9998 8.70801" stroke="black"/>
<path id="Vector 228" d="M5.27472 21.1358L7.24253 20.5736C7.4112 20.5254 7.58959 20.5224 7.75978 20.5649L10.2575 21.1894C10.8886 21.3472 11.5 20.8698 11.5 20.2192V18.1526C11.5 18.0515 11.4847 17.9509 11.4545 17.8543L9.13734 10.4395C9.05018 10.1606 8.84537 9.93373 8.57678 9.81862L6.64685 8.99151C6.0585 8.73936 5.38802 9.09722 5.27006 9.72636L4.01713 16.4087C4.00573 16.4694 4 16.5311 4 16.5929V20.1743C4 20.8386 4.63591 21.3183 5.27472 21.1358Z" stroke="black"/>
<path id="Vector 229" d="M7.5 21V24" stroke="black"/>
<path id="Vector 230" d="M7.5 9L9.12415 6.15774C9.34643 5.76875 9.80029 5.57507 10.2349 5.68373L10.9785 5.86962C11.3041 5.95103 11.5672 6.1904 11.6789 6.50694L14.443 14.3385C14.4807 14.4454 14.5 14.5579 14.5 14.6713V17.2792C14.5 17.7097 14.2246 18.0918 13.8162 18.2279L11.5 19" stroke="black"/>
<path id="Vector 231" d="M10.5 5.5L11.7 4.6C12.1418 4.26863 12.7686 4.35817 13.1 4.8L13.9026 5.87018C13.9671 5.95616 14.0173 6.05198 14.0513 6.15395L15 9L15.4525 11.2623C15.4837 11.4185 15.4772 11.5799 15.4334 11.7331L14.5 15" stroke="black"/>
<path id="Vector 232" d="M25.7465 12.6268L26.7889 12.1056C26.9277 12.0361 27.0808 12 27.2361 12H28.5C29.0523 12 29.5 11.5523 29.5 11V8.58276C29.5 8.52768 29.4954 8.47269 29.4864 8.41836L29.0428 5.75691C29.0147 5.58845 28.944 5.42998 28.8373 5.29662L27.505 3.63127C27.2104 3.26306 26.6987 3.15066 26.2769 3.36153L25.4299 3.78506C25.1582 3.92091 24.9629 4.17292 24.8993 4.46996L23.5954 10.5548C23.5348 10.8376 23.5996 11.1329 23.7732 11.3643L24.4993 12.3323C24.7892 12.719 25.3142 12.8429 25.7465 12.6268Z" stroke="black"/>
<path id="Vector 233" d="M3 7H8.5M24.5 7H14.5" stroke="black"/>
<path id="Vector 234" d="M27 12V15" stroke="black"/>
<rect x="0.5" y="0.5" width="31" height="31" rx="1.5" stroke="#24282E"/>
</g>
</svg>
