<svg width="32" height="32" viewBox="0 0 32 32" fill="none" xmlns="http://www.w3.org/2000/svg">
<g id="&#208;&#146; &#209;&#129;&#208;&#190;&#208;&#187;&#208;&#189;&#208;&#181;&#209;&#135;&#208;&#189;&#208;&#190;&#208;&#188; &#208;&#188;&#208;&#181;&#209;&#129;&#209;&#130;&#208;&#181;">
<path id="Vector 235" d="M3 27H29" stroke="black"/>
<path id="Vector 236" d="M13.0003 21.5005C13.3102 23.0764 15.5002 22.0005 17.0003 22.0005C19.5012 23.9384 20.0141 23.3141 22.0002 22.5005C24.5002 23.0005 24.0345 22.0798 25.0002 20.5005C26.5003 20.0005 28.6215 16.6988 26.5003 15.5005C26.8824 12.4122 25.6682 12.651 24.0003 11.5005C23.4619 9.17552 22.141 8.91624 21.1269 8.83436C21.0427 8.82756 20.9583 8.83242 20.8753 8.84814C19.8525 9.04188 18.6217 9.32667 17.0003 9.00045C15.5057 7.98991 14.7738 8.68625 13.5003 10.5005C11.2358 10.4261 10.9684 11.4607 11.0003 14.0005C9.63439 16.2327 10.1737 17.4111 11.0003 19.5005C10.1967 20.5143 11.5255 20.5907 13.0003 21.5005Z" stroke="black"/>
<path id="Vector" d="M17 27C17.8 26.6 18.5 24.5 18 23C19.9166 24.3212 19.2972 23.701 20.5 23C20.3333 24.1667 20.2 26.6 21 27H17Z" fill="#24282E" stroke="black" stroke-linejoin="round"/>
<path id="Vector 239" d="M10 15.5L8.70711 14.2071C8.31658 13.8166 7.68342 13.8166 7.29289 14.2071L5.79289 15.7071C5.60536 15.8946 5.5 16.149 5.5 16.4142V17.4648C5.5 17.7992 5.3329 18.1114 5.0547 18.2969L4.4453 18.7031C4.1671 18.8886 4 19.2008 4 19.5352V21.0194C4 21.3232 4.13809 21.6105 4.3753 21.8002L6.22609 23.2809C6.4034 23.4227 6.62371 23.5 6.85078 23.5H9.58579C9.851 23.5 10.1054 23.3946 10.2929 23.2071L10.5337 22.9663C10.8166 22.6834 11.2408 22.5963 11.6122 22.7449L12.8878 23.2551C13.2592 23.4037 13.6834 23.3166 13.9663 23.0337L14.5 22.5" stroke="black"/>
<path id="Vector 240" d="M23.2345 25.4897L23.8214 25.8809C23.9391 25.9594 24.0722 26.012 24.2117 26.0353L26.6792 26.4465C26.8877 26.4813 27.1018 26.4491 27.2909 26.3546L28.4472 25.7764C28.786 25.607 29 25.2607 29 24.882V24.0828C29 24.0277 28.9954 23.9727 28.9864 23.9184L28.6781 22.0685C28.5821 21.4927 28.0154 21.1211 27.4491 21.2627L26.6194 21.4701C26.5401 21.49 26.4587 21.5 26.3769 21.5H25.4142C25.149 21.5 24.8946 21.6054 24.7071 21.7929L23.6147 22.8853C23.5387 22.9613 23.4755 23.049 23.4274 23.1451L22.8948 24.2104C22.6693 24.6615 22.8149 25.2099 23.2345 25.4897Z" stroke="black"/>
<path id="Vector 241" d="M7.5 23.5C5.95509 23.3259 5.2473 23.5031 4.1878 23.9244C4.0638 23.9737 3.95139 24.0486 3.85703 24.143L3.40565 24.5944C2.94562 25.0544 3.0404 25.8242 3.59826 26.159L4.76249 26.8575C4.9179 26.9507 5.09574 27 5.27698 27H11.2344C11.4085 27 11.5795 26.9546 11.7306 26.8682L14.3742 25.3576C14.7479 25.144 14.9431 24.7153 14.8586 24.2932L14.5 22.5" stroke="black"/>
<rect x="0.5" y="0.5" width="31" height="31" rx="1.5" stroke="#24282E"/>
</g>
</svg>
