<svg width="32" height="32" viewBox="0 0 32 32" fill="none" xmlns="http://www.w3.org/2000/svg">
<g id="&#208;&#146; &#209;&#129;&#208;&#190;&#208;&#187;&#208;&#189;&#208;&#181;&#209;&#135;&#208;&#189;&#208;&#190;&#208;&#188; &#208;&#188;&#208;&#181;&#209;&#129;&#209;&#130;&#208;&#181;">
<g id="Group 37">
<path id="Vector 242" d="M11.4188 7.20088L14.3741 5.08994C14.4575 5.03033 14.5313 4.95825 14.5928 4.87621L15.0292 4.29443C15.4752 3.69972 16.3912 3.78231 16.7236 4.44721L17.4065 5.81291C17.4681 5.9363 17.5547 6.04559 17.6607 6.13391L20.1402 8.20015C20.3682 8.39015 20.5 8.6716 20.5 8.96837V9C20.5 9.55228 20.0523 10 19.5 10H17.7361C17.5808 10 17.4277 10.0361 17.2889 10.1056L16.0528 10.7236C15.714 10.893 15.3086 10.8564 15.0056 10.6292L13.7667 9.7C13.5936 9.57018 13.383 9.5 13.1667 9.5H12C11.4477 9.5 11 9.05228 11 8.5V8.01462C11 7.69167 11.156 7.3886 11.4188 7.20088Z" stroke="black"/>
<path id="Vector 243" d="M12 9.5C11.4909 10.9625 11.0357 11.6747 9.57299 12.4611C9.52492 12.487 9.47399 12.5087 9.42222 12.5259L8.83748 12.7208C8.35904 12.8803 8.07422 13.3711 8.17313 13.8656L8.26423 14.3212C8.38685 14.9342 9.03569 15.2857 9.6162 15.0535L10.5395 14.6842C10.8296 14.5682 11.1574 14.5944 11.4253 14.7552L13.0293 15.7176C13.3225 15.8935 13.6852 15.9074 13.991 15.7545L15.2889 15.1056C15.4277 15.0361 15.5808 15 15.7361 15H18.8599C18.9529 15 19.0453 15.0129 19.1347 15.0385L21.5059 15.716C22.0495 15.8713 22.6136 15.5454 22.7508 14.997L22.8146 14.7417C22.924 14.3039 22.7238 13.8512 22.3429 13.6092C20.8467 12.659 19.9631 11.6187 19.5 10" stroke="black"/>
<path id="Vector 244" d="M10 15C9.3807 16.8196 8.63594 17.701 7.46099 18.7086C6.97586 19.1246 6.97278 19.8782 7.47182 20.2775L8.57519 21.1601C8.84007 21.3721 9.19431 21.4352 9.51611 21.328L11.4715 20.6762C11.8001 20.5666 12.1619 20.6349 12.4279 20.8566L14.4264 22.522C14.7666 22.8055 15.2528 22.8315 15.6213 22.5858L17.671 21.2194C17.8824 21.0784 18.1395 21.0232 18.3901 21.065L20.0894 21.3482C20.6036 21.4339 21.0921 21.1077 21.2686 20.6171C21.4734 20.0481 21.7435 19.5 22 19.5C22.032 19.5 22.0685 19.5 22.1088 19.5C22.912 19.5 23.3703 18.6118 22.9655 17.9181C22.6832 17.4345 22.3866 16.857 22 16" stroke="black"/>
<path id="Vector 245" d="M8 21C7.64674 21.65 7.32294 22.0403 6.90235 22.3824C6.44639 22.7532 6.30388 23.4052 6.65652 23.8754L7.04017 24.3869C7.31147 24.7486 7.79174 24.8833 8.21156 24.7154L9.14568 24.3417C9.62857 24.1486 10.1805 24.3599 10.4991 24.771C10.9356 25.3343 11.6346 26 12.5 26C13.6168 26 15.2879 25.1685 16.0688 24.7437C16.3434 24.5944 16.6693 24.568 16.9622 24.6771C17.7329 24.9644 19.2681 25.5 20 25.5C20.4013 25.5 20.6416 25.2584 20.7854 24.9692C21.0313 24.4747 21.4477 24 22 24H24C24.3148 24 24.6111 23.8518 24.8 23.6L25.1453 23.1396C25.5611 22.5852 25.2929 21.7984 24.6669 21.5009C23.6975 21.0402 23.1334 20.4656 22.5 19.5" stroke="black"/>
<path id="Vector 246" d="M14.5 27V26.3471C14.5 25.8583 14.8534 25.4411 15.3356 25.3607L16.3356 25.1941C16.9451 25.0925 17.5 25.5625 17.5 26.1805V27C17.5 27.5523 17.0523 28 16.5 28H15.5C14.9477 28 14.5 27.5523 14.5 27Z" fill="#24282E" stroke="black"/>
</g>
<rect x="0.5" y="0.5" width="31" height="31" rx="1.5" stroke="#24282E"/>
</g>
</svg>
