<svg width="32" height="32" viewBox="0 0 32 32" fill="none" xmlns="http://www.w3.org/2000/svg">
<g id="&#208;&#146; &#208;&#183;&#208;&#176;&#209;&#130;&#208;&#181;&#208;&#188;&#208;&#189;&#208;&#181;&#208;&#189;&#208;&#189;&#208;&#190;&#208;&#188; &#208;&#188;&#208;&#181;&#209;&#129;&#209;&#130;&#208;&#181;">
<path id="Vector" d="M16 5L16 15M16 15L16 25M16 15L7 9.44448M16 15L25 20.5556M16 15L7.00009 20.5555M16 15L25 9.44434M18.25 6.11111L16 7.22222L13.75 6.11111M9.25 8.33333V10.8334L7 11.6667M7 18.3333L9.25 19.1667L9.25 21.6667M13.75 23.8889L16 22.7778L18.25 23.8889M22.75 21.6667V19.1667L25 18.3333M25 11.6667L22.75 10.8332V8.33333M15.9998 9.9076L19.375 9.44444L20.055 12.4969L22.75 15L20.1525 17.5633L19.375 20.5556L15.9998 20.0928L12.625 20.5556L11.9556 17.4723L9.25 15L11.9556 12.5282L12.625 9.44444L15.9998 9.9076Z" stroke="#24282E" stroke-linejoin="round"/>
<path id="Vector 33" d="M6 28H28V4" stroke="#24282E" stroke-linejoin="round"/>
<rect x="0.5" y="0.5" width="31" height="31" rx="1.5" stroke="#24282E"/>
</g>
</svg>
