<svg width="32" height="32" viewBox="0 0 32 32" fill="none" xmlns="http://www.w3.org/2000/svg">
<g id="&#208;&#146; &#208;&#183;&#208;&#176;&#209;&#130;&#208;&#181;&#208;&#188;&#208;&#189;&#208;&#181;&#208;&#189;&#208;&#189;&#208;&#190;&#208;&#188; &#208;&#188;&#208;&#181;&#209;&#129;&#209;&#130;&#208;&#181;">
<path id="Vector" d="M16 7L16 17M16 17L16 27M16 17L7 11.4445M16 17L25 22.5556M16 17L7.00009 22.5555M16 17L25 11.4443M18.25 8.11111L16 9.22222L13.75 8.11111M9.25 10.3333V12.8334L7 13.6667M7 20.3333L9.25 21.1667L9.25 23.6667M13.75 25.8889L16 24.7778L18.25 25.8889M22.75 23.6667V21.1667L25 20.3333M25 13.6667L22.75 12.8332V10.3333M15.9998 11.9076L19.375 11.4444L20.055 14.4969L22.75 17L20.1525 19.5633L19.375 22.5556L15.9998 22.0928L12.625 22.5556L11.9556 19.4723L9.25 17L11.9556 14.5282L12.625 11.4444L15.9998 11.9076Z" stroke="#24282E" stroke-linejoin="round"/>
<path id="Vector 33" d="M4 28V5H28V28" stroke="#24282E" stroke-linejoin="round"/>
<rect x="0.5" y="0.5" width="31" height="31" rx="1.5" stroke="#24282E"/>
</g>
</svg>
