<svg width="32" height="32" viewBox="0 0 32 32" fill="none" xmlns="http://www.w3.org/2000/svg">
<path d="M6.18 20.15C5.67333 20.15 5.24667 20.025 4.9 19.775C4.55333 19.5217 4.29 19.18 4.11 18.75C3.93333 18.3167 3.845 17.8317 3.845 17.295C3.845 16.7517 3.93333 16.265 4.11 15.835C4.29 15.405 4.55333 15.0667 4.9 14.82C5.25 14.5733 5.67833 14.45 6.185 14.45C6.685 14.45 7.115 14.575 7.475 14.825C7.83833 15.0717 8.11667 15.41 8.31 15.84C8.50333 16.27 8.6 16.755 8.6 17.295C8.6 17.835 8.50333 18.32 8.31 18.75C8.11667 19.18 7.83833 19.5217 7.475 19.775C7.115 20.025 6.68333 20.15 6.18 20.15ZM3.695 22.4V14.6H4.49V18.575H4.59V22.4H3.695ZM6.07 19.335C6.42667 19.335 6.72167 19.245 6.955 19.065C7.18833 18.885 7.36333 18.6417 7.48 18.335C7.59667 18.025 7.655 17.6783 7.655 17.295C7.655 16.915 7.59667 16.5717 7.48 16.265C7.36667 15.9583 7.19 15.715 6.95 15.535C6.71333 15.355 6.41167 15.265 6.045 15.265C5.695 15.265 5.405 15.3517 5.175 15.525C4.945 15.695 4.77333 15.9333 4.66 16.24C4.54667 16.5433 4.49 16.895 4.49 17.295C4.49 17.6883 4.545 18.04 4.655 18.35C4.76833 18.6567 4.94167 18.8983 5.175 19.075C5.40833 19.2483 5.70667 19.335 6.07 19.335ZM9.69609 20V12.8H10.5861V15.975H14.3761V12.8H15.2661V20H14.3761V16.82H10.5861V20H9.69609ZM19.7338 19.215L17.3688 16.85L19.7338 14.485L20.2938 15.04L18.4538 16.85L20.2938 18.66L19.7338 19.215ZM25.3445 20.15C24.8878 20.15 24.4728 20.04 24.0995 19.82C23.7295 19.6 23.4345 19.3 23.2145 18.92C22.9978 18.5367 22.8895 18.105 22.8895 17.625V15.23C22.8895 14.7267 22.9978 14.2817 23.2145 13.895C23.4345 13.505 23.7345 13.2017 24.1145 12.985C24.4978 12.765 24.9345 12.655 25.4245 12.655C25.8211 12.655 26.1895 12.7367 26.5295 12.9C26.8728 13.06 27.1611 13.2917 27.3945 13.595L26.7295 14.185C26.5861 13.975 26.3995 13.8083 26.1695 13.685C25.9395 13.5617 25.6911 13.5 25.4245 13.5C25.1078 13.5 24.8261 13.5767 24.5795 13.73C24.3361 13.88 24.1445 14.08 24.0045 14.33C23.8645 14.5767 23.7945 14.8433 23.7945 15.13V16.575L23.5995 16.355C23.8095 16.055 24.0761 15.815 24.3995 15.635C24.7228 15.455 25.0728 15.365 25.4495 15.365C25.8961 15.365 26.2961 15.47 26.6495 15.68C27.0061 15.89 27.2861 16.175 27.4895 16.535C27.6961 16.8917 27.7995 17.2933 27.7995 17.74C27.7995 18.1867 27.6878 18.5917 27.4645 18.955C27.2411 19.3183 26.9428 19.6083 26.5695 19.825C26.1995 20.0417 25.7911 20.15 25.3445 20.15ZM25.3445 19.29C25.6311 19.29 25.8928 19.2217 26.1295 19.085C26.3661 18.945 26.5528 18.7583 26.6895 18.525C26.8295 18.2883 26.8995 18.0267 26.8995 17.74C26.8995 17.4533 26.8295 17.1917 26.6895 16.955C26.5528 16.7183 26.3661 16.5317 26.1295 16.395C25.8961 16.255 25.6361 16.185 25.3495 16.185C25.0628 16.185 24.8011 16.255 24.5645 16.395C24.3311 16.5317 24.1445 16.7183 24.0045 16.955C23.8645 17.1917 23.7945 17.4533 23.7945 17.74C23.7945 18.0233 23.8628 18.2833 23.9995 18.52C24.1395 18.7533 24.3261 18.94 24.5595 19.08C24.7961 19.22 25.0578 19.29 25.3445 19.29Z" fill="#24282E"/>
<rect x="0.5" y="0.5" width="31" height="31" rx="1.5" stroke="#24282E"/>
</svg>
