<svg width="48" height="48" viewBox="0 0 48 48" fill="none" xmlns="http://www.w3.org/2000/svg">
<path d="M29.4141 19.8984L37.8993 11.4132" stroke="#3E683A" stroke-width="2" stroke-linecap="round"/>
<circle cx="30.8284" cy="12.8281" r="1" transform="rotate(-45 30.8284 12.8281)" stroke="#3E683A" stroke-width="2"/>
<circle cx="36.4847" cy="18.4844" r="1" transform="rotate(-45 36.4847 18.4844)" stroke="#3E683A" stroke-width="2"/>
<mask id="path-4-inside-1_806_47198" fill="white">
<path fill-rule="evenodd" clip-rule="evenodd" d="M6 9C6 7.89543 6.89543 7 8 7H22C23.1046 7 24 7.89543 24 9V25H6V9ZM11.4284 16C11.4284 15.4477 11.8761 15 12.4284 15H17.5713C18.1236 15 18.5713 15.4477 18.5713 16C18.5713 16.5523 18.1236 17 17.5713 17H12.4284C11.8761 17 11.4284 16.5523 11.4284 16ZM8.28527 8.28631C7.73299 8.28631 7.28527 8.73402 7.28527 9.28631V12.4292C7.28527 12.9814 7.73299 13.4292 8.28527 13.4292H21.7138C22.2661 13.4292 22.7138 12.9814 22.7138 12.4292V9.28631C22.7138 8.73402 22.2661 8.28631 21.7138 8.28631H8.28527Z"/>
</mask>
<path fill-rule="evenodd" clip-rule="evenodd" d="M6 9C6 7.89543 6.89543 7 8 7H22C23.1046 7 24 7.89543 24 9V25H6V9ZM11.4284 16C11.4284 15.4477 11.8761 15 12.4284 15H17.5713C18.1236 15 18.5713 15.4477 18.5713 16C18.5713 16.5523 18.1236 17 17.5713 17H12.4284C11.8761 17 11.4284 16.5523 11.4284 16ZM8.28527 8.28631C7.73299 8.28631 7.28527 8.73402 7.28527 9.28631V12.4292C7.28527 12.9814 7.73299 13.4292 8.28527 13.4292H21.7138C22.2661 13.4292 22.7138 12.9814 22.7138 12.4292V9.28631C22.7138 8.73402 22.2661 8.28631 21.7138 8.28631H8.28527Z" fill="#3E683A"/>
<path d="M24 25V28C25.6569 28 27 26.6569 27 25H24ZM6 25H3C3 26.6569 4.34315 28 6 28L6 25ZM8 4C5.23858 4 3 6.23858 3 9H9C9 9.55228 8.55228 10 8 10V4ZM22 4H8V10H22V4ZM27 9C27 6.23858 24.7614 4 22 4V10C21.4477 10 21 9.55228 21 9H27ZM27 25V9H21V25H27ZM6 28H24V22H6V28ZM3 9V25H9V9H3ZM12.4284 12C10.2193 12 8.42842 13.7909 8.42842 16H14.4284C14.4284 17.1046 13.533 18 12.4284 18V12ZM17.5713 12H12.4284V18H17.5713V12ZM21.5713 16C21.5713 13.7909 19.7804 12 17.5713 12V18C16.4667 18 15.5713 17.1046 15.5713 16H21.5713ZM17.5713 20C19.7804 20 21.5713 18.2091 21.5713 16H15.5713C15.5713 14.8954 16.4667 14 17.5713 14V20ZM12.4284 20H17.5713V14H12.4284V20ZM8.42842 16C8.42842 18.2091 10.2193 20 12.4284 20V14C13.533 14 14.4284 14.8954 14.4284 16H8.42842ZM10.2853 9.28631C10.2853 10.3909 9.38984 11.2863 8.28527 11.2863V5.28631C6.07613 5.28631 4.28527 7.07717 4.28527 9.28631H10.2853ZM10.2853 12.4292V9.28631H4.28527V12.4292H10.2853ZM8.28527 10.4292C9.38984 10.4292 10.2853 11.3246 10.2853 12.4292H4.28527C4.28527 14.6383 6.07614 16.4292 8.28527 16.4292V10.4292ZM21.7138 10.4292H8.28527V16.4292H21.7138V10.4292ZM19.7138 12.4292C19.7138 11.3246 20.6093 10.4292 21.7138 10.4292V16.4292C23.923 16.4292 25.7138 14.6383 25.7138 12.4292H19.7138ZM19.7138 9.28631V12.4292H25.7138V9.28631H19.7138ZM21.7138 11.2863C20.6093 11.2863 19.7138 10.3909 19.7138 9.28631H25.7138C25.7138 7.07716 23.923 5.28631 21.7138 5.28631V11.2863ZM8.28527 11.2863H21.7138V5.28631H8.28527V11.2863Z" fill="#3E683A" mask="url(#path-4-inside-1_806_47198)"/>
<mask id="path-6-inside-2_806_47198" fill="white">
<path fill-rule="evenodd" clip-rule="evenodd" d="M6 25H24V43H8C6.89543 43 6 42.1046 6 41V25ZM11.4284 34C11.4284 33.4477 11.8761 33 12.4284 33H17.5713C18.1236 33 18.5713 33.4477 18.5713 34C18.5713 34.5523 18.1236 35 17.5713 35H12.4284C11.8761 35 11.4284 34.5523 11.4284 34ZM8.28527 26.2863C7.73299 26.2863 7.28527 26.734 7.28527 27.2863V30.4292C7.28527 30.9814 7.73299 31.4292 8.28527 31.4292H21.7138C22.2661 31.4292 22.7138 30.9814 22.7138 30.4292V27.2863C22.7138 26.734 22.2661 26.2863 21.7138 26.2863H8.28527Z"/>
</mask>
<path fill-rule="evenodd" clip-rule="evenodd" d="M6 25H24V43H8C6.89543 43 6 42.1046 6 41V25ZM11.4284 34C11.4284 33.4477 11.8761 33 12.4284 33H17.5713C18.1236 33 18.5713 33.4477 18.5713 34C18.5713 34.5523 18.1236 35 17.5713 35H12.4284C11.8761 35 11.4284 34.5523 11.4284 34ZM8.28527 26.2863C7.73299 26.2863 7.28527 26.734 7.28527 27.2863V30.4292C7.28527 30.9814 7.73299 31.4292 8.28527 31.4292H21.7138C22.2661 31.4292 22.7138 30.9814 22.7138 30.4292V27.2863C22.7138 26.734 22.2661 26.2863 21.7138 26.2863H8.28527Z" fill="#3E683A"/>
<path d="M24 25H27C27 23.3431 25.6569 22 24 22V25ZM6 25V22C4.34315 22 3 23.3431 3 25H6ZM24 43V46C25.6569 46 27 44.6569 27 43H24ZM24 22H6V28H24V22ZM27 43V25H21V43H27ZM8 46H24V40H8V46ZM3 41C3 43.7614 5.23858 46 8 46V40C8.55228 40 9 40.4477 9 41H3ZM3 25V41H9V25H3ZM12.4284 30C10.2193 30 8.42842 31.7909 8.42842 34H14.4284C14.4284 35.1046 13.533 36 12.4284 36V30ZM17.5713 30H12.4284V36H17.5713V30ZM21.5713 34C21.5713 31.7909 19.7804 30 17.5713 30V36C16.4667 36 15.5713 35.1046 15.5713 34H21.5713ZM17.5713 38C19.7804 38 21.5713 36.2091 21.5713 34H15.5713C15.5713 32.8954 16.4667 32 17.5713 32V38ZM12.4284 38H17.5713V32H12.4284V38ZM8.42842 34C8.42842 36.2091 10.2193 38 12.4284 38V32C13.533 32 14.4284 32.8954 14.4284 34H8.42842ZM10.2853 27.2863C10.2853 28.3909 9.38984 29.2863 8.28527 29.2863V23.2863C6.07613 23.2863 4.28527 25.0772 4.28527 27.2863H10.2853ZM10.2853 30.4292V27.2863H4.28527V30.4292H10.2853ZM8.28527 28.4292C9.38984 28.4292 10.2853 29.3246 10.2853 30.4292H4.28527C4.28527 32.6383 6.07614 34.4292 8.28527 34.4292V28.4292ZM21.7138 28.4292H8.28527V34.4292H21.7138V28.4292ZM19.7138 30.4292C19.7138 29.3246 20.6093 28.4292 21.7138 28.4292V34.4292C23.923 34.4292 25.7138 32.6383 25.7138 30.4292H19.7138ZM19.7138 27.2863V30.4292H25.7138V27.2863H19.7138ZM21.7138 29.2863C20.6093 29.2863 19.7138 28.3909 19.7138 27.2863H25.7138C25.7138 25.0772 23.923 23.2863 21.7138 23.2863V29.2863ZM8.28527 29.2863H21.7138V23.2863H8.28527V29.2863Z" fill="#3E683A" mask="url(#path-6-inside-2_806_47198)"/>
<mask id="path-8-inside-3_806_47198" fill="white">
<path fill-rule="evenodd" clip-rule="evenodd" d="M24 25H40C41.1046 25 42 25.8954 42 27V41C42 42.1046 41.1046 43 40 43H24V25ZM29.4284 34C29.4284 33.4477 29.8761 33 30.4284 33H35.5713C36.1236 33 36.5713 33.4477 36.5713 34C36.5713 34.5523 36.1236 35 35.5713 35H30.4284C29.8761 35 29.4284 34.5523 29.4284 34ZM26.2853 26.2863C25.733 26.2863 25.2853 26.734 25.2853 27.2863V30.4292C25.2853 30.9814 25.733 31.4292 26.2853 31.4292H39.7138C40.2661 31.4292 40.7138 30.9814 40.7138 30.4292V27.2863C40.7138 26.734 40.2661 26.2863 39.7138 26.2863H26.2853Z"/>
</mask>
<path fill-rule="evenodd" clip-rule="evenodd" d="M24 25H40C41.1046 25 42 25.8954 42 27V41C42 42.1046 41.1046 43 40 43H24V25ZM29.4284 34C29.4284 33.4477 29.8761 33 30.4284 33H35.5713C36.1236 33 36.5713 33.4477 36.5713 34C36.5713 34.5523 36.1236 35 35.5713 35H30.4284C29.8761 35 29.4284 34.5523 29.4284 34ZM26.2853 26.2863C25.733 26.2863 25.2853 26.734 25.2853 27.2863V30.4292C25.2853 30.9814 25.733 31.4292 26.2853 31.4292H39.7138C40.2661 31.4292 40.7138 30.9814 40.7138 30.4292V27.2863C40.7138 26.734 40.2661 26.2863 39.7138 26.2863H26.2853Z" fill="#3E683A"/>
<path d="M24 25V22C22.3431 22 21 23.3431 21 25H24ZM24 43H21C21 44.6569 22.3431 46 24 46V43ZM40 22H24V28H40V22ZM45 27C45 24.2386 42.7614 22 40 22V28C39.4477 28 39 27.5523 39 27H45ZM45 41V27H39V41H45ZM40 46C42.7614 46 45 43.7614 45 41H39C39 40.4477 39.4477 40 40 40V46ZM24 46H40V40H24V46ZM21 25V43H27V25H21ZM30.4284 30C28.2193 30 26.4284 31.7909 26.4284 34H32.4284C32.4284 35.1046 31.533 36 30.4284 36V30ZM35.5713 30H30.4284V36H35.5713V30ZM39.5713 34C39.5713 31.7909 37.7804 30 35.5713 30V36C34.4667 36 33.5713 35.1046 33.5713 34H39.5713ZM35.5713 38C37.7804 38 39.5713 36.2091 39.5713 34H33.5713C33.5713 32.8954 34.4667 32 35.5713 32V38ZM30.4284 38H35.5713V32H30.4284V38ZM26.4284 34C26.4284 36.2091 28.2193 38 30.4284 38V32C31.533 32 32.4284 32.8954 32.4284 34H26.4284ZM28.2853 27.2863C28.2853 28.3909 27.3898 29.2863 26.2853 29.2863V23.2863C24.0761 23.2863 22.2853 25.0772 22.2853 27.2863H28.2853ZM28.2853 30.4292V27.2863H22.2853V30.4292H28.2853ZM26.2853 28.4292C27.3898 28.4292 28.2853 29.3246 28.2853 30.4292H22.2853C22.2853 32.6383 24.0761 34.4292 26.2853 34.4292V28.4292ZM39.7138 28.4292H26.2853V34.4292H39.7138V28.4292ZM37.7138 30.4292C37.7138 29.3246 38.6093 28.4292 39.7138 28.4292V34.4292C41.923 34.4292 43.7138 32.6383 43.7138 30.4292H37.7138ZM37.7138 27.2863V30.4292H43.7138V27.2863H37.7138ZM39.7138 29.2863C38.6093 29.2863 37.7138 28.3909 37.7138 27.2863H43.7138C43.7138 25.0772 41.923 23.2863 39.7138 23.2863V29.2863ZM26.2853 29.2863H39.7138V23.2863H26.2853V29.2863Z" fill="#3E683A" mask="url(#path-8-inside-3_806_47198)"/>
</svg>
