<svg width="24" height="24" viewBox="0 0 24 24" fill="none" xmlns="http://www.w3.org/2000/svg">
<path d="M20.2282 12.4029C20.095 13.3349 19.3299 14.0479 18.3908 14.1149L7.95668 14.8602C6.86996 14.9379 5.92104 14.1314 5.8224 13.0464L5.27273 7H21L20.2282 12.4029Z" fill="#24282E"/>
<path d="M3 4H5L5.27273 7M5.27273 7L5.8224 13.0464C5.92104 14.1314 6.86996 14.9379 7.95668 14.8602L18.3908 14.1149C19.3299 14.0479 20.095 13.3349 20.2282 12.4029L21 7H5.27273Z" stroke="#24282E" stroke-width="1.5" stroke-linecap="round" stroke-linejoin="round"/>
<path d="M8.5 21C9.32843 21 10 20.3284 10 19.5C10 18.6716 9.32843 18 8.5 18C7.67157 18 7 18.6716 7 19.5C7 20.3284 7.67157 21 8.5 21Z" fill="#24282E" stroke="#24282E" stroke-width="1.5" stroke-linecap="round" stroke-linejoin="round"/>
<path d="M16.5 21C17.3284 21 18 20.3284 18 19.5C18 18.6716 17.3284 18 16.5 18C15.6716 18 15 18.6716 15 19.5C15 20.3284 15.6716 21 16.5 21Z" fill="#24282E" stroke="#24282E" stroke-width="1.5" stroke-linecap="round" stroke-linejoin="round"/>
</svg>
