<svg width="48" height="48" viewBox="0 0 48 48" fill="none" xmlns="http://www.w3.org/2000/svg">
<path fill-rule="evenodd" clip-rule="evenodd" d="M37.9998 37.2564V16.2546C37.9997 15.534 37.7118 14.8429 37.1995 14.3333L27.932 6.79585C27.4195 6.28637 26.7245 6.00011 25.9998 6H14.7665C13.6791 6 12.6363 6.42953 11.8674 7.1941C11.0985 7.95867 10.6665 8.99566 10.6665 10.0769V37.2564C10.6665 38.3377 11.0985 39.3747 11.8674 40.1392C12.6363 40.9038 13.6791 41.3333 14.7665 41.3333H33.8998C34.9872 41.3333 36.0301 40.9038 36.799 40.1392C37.5679 39.3747 37.9998 38.3377 37.9998 37.2564ZM16.4998 19C15.9476 19 15.4998 19.4477 15.4998 20C15.4998 20.5523 15.9476 21 16.4998 21H31.4998C32.0521 21 32.4998 20.5523 32.4998 20C32.4998 19.4477 32.0521 19 31.4998 19H16.4998ZM15.4998 26.6667C15.4998 26.1144 15.9476 25.6667 16.4998 25.6667H31.4998C32.0521 25.6667 32.4998 26.1144 32.4998 26.6667C32.4998 27.219 32.0521 27.6667 31.4998 27.6667H16.4998C15.9476 27.6667 15.4998 27.219 15.4998 26.6667ZM16.4998 32.3333C15.9476 32.3333 15.4998 32.781 15.4998 33.3333C15.4998 33.8856 15.9476 34.3333 16.4998 34.3333H31.4998C32.0521 34.3333 32.4998 33.8856 32.4998 33.3333C32.4998 32.781 32.0521 32.3333 31.4998 32.3333H16.4998Z" fill="white"/>
</svg>
