<svg width="49" height="48" viewBox="0 0 49 48" fill="none" xmlns="http://www.w3.org/2000/svg">
<path d="M29.7476 19.8984L38.2328 11.4132" stroke="white" stroke-width="2" stroke-linecap="round"/>
<circle cx="31.1619" cy="12.8281" r="1" transform="rotate(-45 31.1619 12.8281)" stroke="white" stroke-width="2"/>
<circle cx="36.8187" cy="18.4844" r="1" transform="rotate(-45 36.8187 18.4844)" stroke="white" stroke-width="2"/>
<mask id="path-4-inside-1_1040_48062" fill="white">
<path fill-rule="evenodd" clip-rule="evenodd" d="M6.3335 9C6.3335 7.89543 7.22893 7 8.3335 7H22.3335C23.4381 7 24.3335 7.89543 24.3335 9V25H6.3335V9ZM11.7619 16C11.7619 15.4477 12.2096 15 12.7619 15H17.9048C18.4571 15 18.9048 15.4477 18.9048 16C18.9048 16.5523 18.4571 17 17.9048 17H12.7619C12.2096 17 11.7619 16.5523 11.7619 16ZM8.61877 8.28631C8.06648 8.28631 7.61877 8.73402 7.61877 9.28631V12.4292C7.61877 12.9814 8.06648 13.4292 8.61877 13.4292H22.0473C22.5996 13.4292 23.0473 12.9814 23.0473 12.4292V9.28631C23.0473 8.73402 22.5996 8.28631 22.0473 8.28631H8.61877Z"/>
</mask>
<path fill-rule="evenodd" clip-rule="evenodd" d="M6.3335 9C6.3335 7.89543 7.22893 7 8.3335 7H22.3335C23.4381 7 24.3335 7.89543 24.3335 9V25H6.3335V9ZM11.7619 16C11.7619 15.4477 12.2096 15 12.7619 15H17.9048C18.4571 15 18.9048 15.4477 18.9048 16C18.9048 16.5523 18.4571 17 17.9048 17H12.7619C12.2096 17 11.7619 16.5523 11.7619 16ZM8.61877 8.28631C8.06648 8.28631 7.61877 8.73402 7.61877 9.28631V12.4292C7.61877 12.9814 8.06648 13.4292 8.61877 13.4292H22.0473C22.5996 13.4292 23.0473 12.9814 23.0473 12.4292V9.28631C23.0473 8.73402 22.5996 8.28631 22.0473 8.28631H8.61877Z" fill="white"/>
<path d="M24.3335 25V28C25.9904 28 27.3335 26.6569 27.3335 25H24.3335ZM6.3335 25H3.3335C3.3335 26.6569 4.67664 28 6.3335 28L6.3335 25ZM8.3335 4C5.57207 4 3.3335 6.23858 3.3335 9H9.3335C9.3335 9.55228 8.88578 10 8.3335 10V4ZM22.3335 4H8.3335V10H22.3335V4ZM27.3335 9C27.3335 6.23858 25.0949 4 22.3335 4V10C21.7812 10 21.3335 9.55228 21.3335 9H27.3335ZM27.3335 25V9H21.3335V25H27.3335ZM6.3335 28H24.3335V22H6.3335V28ZM3.3335 9V25H9.3335V9H3.3335ZM12.7619 12C10.5528 12 8.76192 13.7909 8.76192 16H14.7619C14.7619 17.1046 13.8665 18 12.7619 18V12ZM17.9048 12H12.7619V18H17.9048V12ZM21.9048 16C21.9048 13.7909 20.1139 12 17.9048 12V18C16.8002 18 15.9048 17.1046 15.9048 16H21.9048ZM17.9048 20C20.1139 20 21.9048 18.2091 21.9048 16H15.9048C15.9048 14.8954 16.8002 14 17.9048 14V20ZM12.7619 20H17.9048V14H12.7619V20ZM8.76192 16C8.76192 18.2091 10.5528 20 12.7619 20V14C13.8665 14 14.7619 14.8954 14.7619 16H8.76192ZM10.6188 9.28631C10.6188 10.3909 9.72334 11.2863 8.61877 11.2863V5.28631C6.40963 5.28631 4.61877 7.07717 4.61877 9.28631H10.6188ZM10.6188 12.4292V9.28631H4.61877V12.4292H10.6188ZM8.61877 10.4292C9.72333 10.4292 10.6188 11.3246 10.6188 12.4292H4.61877C4.61877 14.6383 6.40963 16.4292 8.61877 16.4292V10.4292ZM22.0473 10.4292H8.61877V16.4292H22.0473V10.4292ZM20.0473 12.4292C20.0473 11.3246 20.9428 10.4292 22.0473 10.4292V16.4292C24.2565 16.4292 26.0473 14.6383 26.0473 12.4292H20.0473ZM20.0473 9.28631V12.4292H26.0473V9.28631H20.0473ZM22.0473 11.2863C20.9428 11.2863 20.0473 10.3909 20.0473 9.28631H26.0473C26.0473 7.07716 24.2565 5.28631 22.0473 5.28631V11.2863ZM8.61877 11.2863H22.0473V5.28631H8.61877V11.2863Z" fill="white" mask="url(#path-4-inside-1_1040_48062)"/>
<mask id="path-6-inside-2_1040_48062" fill="white">
<path fill-rule="evenodd" clip-rule="evenodd" d="M6.3335 25H24.3335V43H8.3335C7.22893 43 6.3335 42.1046 6.3335 41V25ZM11.7619 34C11.7619 33.4477 12.2096 33 12.7619 33H17.9048C18.4571 33 18.9048 33.4477 18.9048 34C18.9048 34.5523 18.4571 35 17.9048 35H12.7619C12.2096 35 11.7619 34.5523 11.7619 34ZM8.61877 26.2863C8.06648 26.2863 7.61877 26.734 7.61877 27.2863V30.4292C7.61877 30.9814 8.06648 31.4292 8.61877 31.4292H22.0473C22.5996 31.4292 23.0473 30.9814 23.0473 30.4292V27.2863C23.0473 26.734 22.5996 26.2863 22.0473 26.2863H8.61877Z"/>
</mask>
<path fill-rule="evenodd" clip-rule="evenodd" d="M6.3335 25H24.3335V43H8.3335C7.22893 43 6.3335 42.1046 6.3335 41V25ZM11.7619 34C11.7619 33.4477 12.2096 33 12.7619 33H17.9048C18.4571 33 18.9048 33.4477 18.9048 34C18.9048 34.5523 18.4571 35 17.9048 35H12.7619C12.2096 35 11.7619 34.5523 11.7619 34ZM8.61877 26.2863C8.06648 26.2863 7.61877 26.734 7.61877 27.2863V30.4292C7.61877 30.9814 8.06648 31.4292 8.61877 31.4292H22.0473C22.5996 31.4292 23.0473 30.9814 23.0473 30.4292V27.2863C23.0473 26.734 22.5996 26.2863 22.0473 26.2863H8.61877Z" fill="white"/>
<path d="M24.3335 25H27.3335C27.3335 23.3431 25.9904 22 24.3335 22V25ZM6.3335 25V22C4.67664 22 3.3335 23.3431 3.3335 25H6.3335ZM24.3335 43V46C25.9904 46 27.3335 44.6569 27.3335 43H24.3335ZM24.3335 22H6.3335V28H24.3335V22ZM27.3335 43V25H21.3335V43H27.3335ZM8.3335 46H24.3335V40H8.3335V46ZM3.3335 41C3.3335 43.7614 5.57207 46 8.3335 46V40C8.88578 40 9.3335 40.4477 9.3335 41H3.3335ZM3.3335 25V41H9.3335V25H3.3335ZM12.7619 30C10.5528 30 8.76192 31.7909 8.76192 34H14.7619C14.7619 35.1046 13.8665 36 12.7619 36V30ZM17.9048 30H12.7619V36H17.9048V30ZM21.9048 34C21.9048 31.7909 20.1139 30 17.9048 30V36C16.8002 36 15.9048 35.1046 15.9048 34H21.9048ZM17.9048 38C20.1139 38 21.9048 36.2091 21.9048 34H15.9048C15.9048 32.8954 16.8002 32 17.9048 32V38ZM12.7619 38H17.9048V32H12.7619V38ZM8.76192 34C8.76192 36.2091 10.5528 38 12.7619 38V32C13.8665 32 14.7619 32.8954 14.7619 34H8.76192ZM10.6188 27.2863C10.6188 28.3909 9.72334 29.2863 8.61877 29.2863V23.2863C6.40963 23.2863 4.61877 25.0772 4.61877 27.2863H10.6188ZM10.6188 30.4292V27.2863H4.61877V30.4292H10.6188ZM8.61877 28.4292C9.72333 28.4292 10.6188 29.3246 10.6188 30.4292H4.61877C4.61877 32.6383 6.40963 34.4292 8.61877 34.4292V28.4292ZM22.0473 28.4292H8.61877V34.4292H22.0473V28.4292ZM20.0473 30.4292C20.0473 29.3246 20.9428 28.4292 22.0473 28.4292V34.4292C24.2565 34.4292 26.0473 32.6383 26.0473 30.4292H20.0473ZM20.0473 27.2863V30.4292H26.0473V27.2863H20.0473ZM22.0473 29.2863C20.9428 29.2863 20.0473 28.3909 20.0473 27.2863H26.0473C26.0473 25.0772 24.2565 23.2863 22.0473 23.2863V29.2863ZM8.61877 29.2863H22.0473V23.2863H8.61877V29.2863Z" fill="white" mask="url(#path-6-inside-2_1040_48062)"/>
<mask id="path-8-inside-3_1040_48062" fill="white">
<path fill-rule="evenodd" clip-rule="evenodd" d="M24.3335 25H40.3335C41.4381 25 42.3335 25.8954 42.3335 27V41C42.3335 42.1046 41.4381 43 40.3335 43H24.3335V25ZM29.7619 34C29.7619 33.4477 30.2096 33 30.7619 33H35.9048C36.4571 33 36.9048 33.4477 36.9048 34C36.9048 34.5523 36.4571 35 35.9048 35H30.7619C30.2096 35 29.7619 34.5523 29.7619 34ZM26.6188 26.2863C26.0665 26.2863 25.6188 26.734 25.6188 27.2863V30.4292C25.6188 30.9814 26.0665 31.4292 26.6188 31.4292H40.0473C40.5996 31.4292 41.0473 30.9814 41.0473 30.4292V27.2863C41.0473 26.734 40.5996 26.2863 40.0473 26.2863H26.6188Z"/>
</mask>
<path fill-rule="evenodd" clip-rule="evenodd" d="M24.3335 25H40.3335C41.4381 25 42.3335 25.8954 42.3335 27V41C42.3335 42.1046 41.4381 43 40.3335 43H24.3335V25ZM29.7619 34C29.7619 33.4477 30.2096 33 30.7619 33H35.9048C36.4571 33 36.9048 33.4477 36.9048 34C36.9048 34.5523 36.4571 35 35.9048 35H30.7619C30.2096 35 29.7619 34.5523 29.7619 34ZM26.6188 26.2863C26.0665 26.2863 25.6188 26.734 25.6188 27.2863V30.4292C25.6188 30.9814 26.0665 31.4292 26.6188 31.4292H40.0473C40.5996 31.4292 41.0473 30.9814 41.0473 30.4292V27.2863C41.0473 26.734 40.5996 26.2863 40.0473 26.2863H26.6188Z" fill="white"/>
<path d="M24.3335 25V22C22.6766 22 21.3335 23.3431 21.3335 25H24.3335ZM24.3335 43H21.3335C21.3335 44.6569 22.6766 46 24.3335 46V43ZM40.3335 22H24.3335V28H40.3335V22ZM45.3335 27C45.3335 24.2386 43.0949 22 40.3335 22V28C39.7812 28 39.3335 27.5523 39.3335 27H45.3335ZM45.3335 41V27H39.3335V41H45.3335ZM40.3335 46C43.0949 46 45.3335 43.7614 45.3335 41H39.3335C39.3335 40.4477 39.7812 40 40.3335 40V46ZM24.3335 46H40.3335V40H24.3335V46ZM21.3335 25V43H27.3335V25H21.3335ZM30.7619 30C28.5528 30 26.7619 31.7909 26.7619 34H32.7619C32.7619 35.1046 31.8665 36 30.7619 36V30ZM35.9048 30H30.7619V36H35.9048V30ZM39.9048 34C39.9048 31.7909 38.1139 30 35.9048 30V36C34.8002 36 33.9048 35.1046 33.9048 34H39.9048ZM35.9048 38C38.1139 38 39.9048 36.2091 39.9048 34H33.9048C33.9048 32.8954 34.8002 32 35.9048 32V38ZM30.7619 38H35.9048V32H30.7619V38ZM26.7619 34C26.7619 36.2091 28.5528 38 30.7619 38V32C31.8665 32 32.7619 32.8954 32.7619 34H26.7619ZM28.6188 27.2863C28.6188 28.3909 27.7233 29.2863 26.6188 29.2863V23.2863C24.4096 23.2863 22.6188 25.0772 22.6188 27.2863H28.6188ZM28.6188 30.4292V27.2863H22.6188V30.4292H28.6188ZM26.6188 28.4292C27.7233 28.4292 28.6188 29.3246 28.6188 30.4292H22.6188C22.6188 32.6383 24.4096 34.4292 26.6188 34.4292V28.4292ZM40.0473 28.4292H26.6188V34.4292H40.0473V28.4292ZM38.0473 30.4292C38.0473 29.3246 38.9428 28.4292 40.0473 28.4292V34.4292C42.2565 34.4292 44.0473 32.6383 44.0473 30.4292H38.0473ZM38.0473 27.2863V30.4292H44.0473V27.2863H38.0473ZM40.0473 29.2863C38.9428 29.2863 38.0473 28.3909 38.0473 27.2863H44.0473C44.0473 25.0772 42.2565 23.2863 40.0473 23.2863V29.2863ZM26.6188 29.2863H40.0473V23.2863H26.6188V29.2863Z" fill="white" mask="url(#path-8-inside-3_1040_48062)"/>
</svg>
