<svg width="24" height="24" viewBox="0 0 24 24" fill="none" xmlns="http://www.w3.org/2000/svg">
<path fill-rule="evenodd" clip-rule="evenodd" d="M5 21L7 7.5H18L20 21H5ZM16.5303 12.5303C16.8232 12.2374 16.8232 11.7626 16.5303 11.4697C16.2374 11.1768 15.7626 11.1768 15.4697 11.4697L11 15.9393L9.53033 14.4697C9.23744 14.1768 8.76256 14.1768 8.46967 14.4697C8.17678 14.7626 8.17678 15.2374 8.46967 15.5303L10.4697 17.5303C10.7626 17.8232 11.2374 17.8232 11.5303 17.5303L16.5303 12.5303Z" fill="#24282E"/>
<path d="M10 7.5V5.5C10 4.11929 11.1193 3 12.5 3V3C13.8807 3 15 4.11929 15 5.5V7.5" stroke="#24282E" stroke-width="1.5"/>
</svg>
