<svg width="24" height="24" viewBox="0 0 24 24" fill="none" xmlns="http://www.w3.org/2000/svg">
<path d="M19.5063 7.95952C18.0666 13.6147 13.6147 18.0666 7.95953 19.5063C5.81867 20.0513 4 18.2091 4 16C4 14.8954 4.90415 14.0209 5.98694 13.8026C6.12812 13.7741 6.26823 13.7427 6.40719 13.7084C7.17948 13.5175 8.01806 13.6749 8.58058 14.2374L9.17366 14.8305C11.6447 13.648 13.648 11.6447 14.8305 9.17367L14.2374 8.58059C13.6749 8.01807 13.5175 7.17949 13.7084 6.4072C13.7427 6.26823 13.7741 6.12813 13.8026 5.98694C14.0209 4.90416 14.8954 4 16 4C18.2091 4 20.0513 5.81867 19.5063 7.95952Z" fill="white" stroke="white" stroke-width="1.5" stroke-linecap="round" stroke-linejoin="round"/>
</svg>
