<svg width="32" height="32" viewBox="0 0 32 32" fill="none" xmlns="http://www.w3.org/2000/svg">
<g id="&#208;&#146; &#209;&#129;&#208;&#187;&#208;&#181;&#208;&#179;&#208;&#186;&#208;&#176;&#208;&#183;&#208;&#176;&#209;&#130;&#208;&#181;&#208;&#188;&#208;&#189;&#208;&#181;&#208;&#189;&#208;&#189;&#208;&#190;&#208;&#188; &#208;&#188;&#208;&#181;&#209;&#129;&#209;&#130;&#208;&#181;">
<g clip-path="url(#clip0_367_7495)">
<circle id="Ellipse 18" cx="16" cy="16" r="6.5" stroke="#24282E"/>
<path id="Subtract" fill-rule="evenodd" clip-rule="evenodd" d="M38.9946 16.5034L32 16.3532V15.6468L38.9946 15.4966C38.9982 15.6639 39 15.8318 39 16C39 16.1682 38.9982 16.3361 38.9946 16.5034ZM38.3458 10.531L32 12.0787V11.3327L38.0866 9.56137C38.1799 9.88175 38.2663 10.205 38.3458 10.531ZM36.1686 4.93544L32 7.22723V6.29615L35.6661 4.06685C35.8397 4.35236 36.0073 4.64195 36.1686 4.93544ZM32.6144 0.0952034L32 0.683542V0H31.3165L31.9048 -0.614424C32.1464 -0.38304 32.383 -0.146438 32.6144 0.0952034ZM27.9331 -3.66607L25.7038 0H24.7728L27.0646 -4.16862C27.358 -4.00726 27.6476 -3.83969 27.9331 -3.66607ZM22.4386 -6.08663L20.6673 0H19.9213L21.469 -6.34583C21.795 -6.26632 22.1182 -6.17987 22.4386 -6.08663ZM19.7942 3H19.1896L17.9147 8.22699C18.0266 8.25428 18.1374 8.28392 18.2472 8.31586L19.7942 3ZM16.5034 -6.9946L16.3532 0H15.6468L15.4966 -6.9946C15.6639 -6.99819 15.8318 -7 16 -7C16.1682 -7 16.3361 -6.99819 16.5034 -6.9946ZM16.1814 8.00194L16.2888 3H15.7112L15.8186 8.00194C15.8787 8.00065 15.9391 8 16 8C16.0609 8 16.1213 8.00065 16.1814 8.00194ZM10.531 -6.34583L12.0787 0H11.3327L9.56137 -6.08663C9.88175 -6.17987 10.205 -6.26632 10.531 -6.34583ZM12.8104 3H12.2058L13.7528 8.31586C13.8626 8.28392 13.9734 8.25428 14.0853 8.22699L12.8104 3ZM4.93544 -4.16861L7.22723 0H6.29615L4.06685 -3.66607C4.35236 -3.83969 4.64195 -4.00726 4.93544 -4.16861ZM8.87654 3H8.12042L11.8604 9.15036C11.9597 9.08997 12.0602 9.03181 12.1619 8.9759L8.87654 3ZM0.0952034 -0.614422L0.683542 0H0V0.683547L-0.614424 0.0952058C-0.38304 -0.146436 -0.146438 -0.383039 0.0952034 -0.614422ZM3 3V3.55619L4.80261 5.28228L10.2196 10.4694C10.3011 10.3843 10.3843 10.3011 10.4694 10.2196L5.28228 4.80261L3.55619 3H3ZM-3.66607 4.06685L0 6.29615V7.22723L-4.16862 4.93545C-4.00726 4.64195 -3.83969 4.35236 -3.66607 4.06685ZM3 8.12042V8.87654L8.9759 12.1619C9.03181 12.0602 9.08997 11.9597 9.15036 11.8604L3 8.12042ZM-6.08663 9.56138L0 11.3327V12.0787L-6.34583 10.531C-6.26632 10.205 -6.17987 9.88176 -6.08663 9.56138ZM3 12.2058V12.8104L8.22699 14.0853C8.25428 13.9734 8.28392 13.8626 8.31586 13.7528L3 12.2058ZM-6.9946 15.4966L0 15.6468V16.3532L-6.9946 16.5034C-6.99819 16.3361 -7 16.1682 -7 16C-7 15.8318 -6.99819 15.6639 -6.9946 15.4966ZM8.00194 15.8186L3 15.7112V16.2888L8.00194 16.1814C8.00065 16.1213 8 16.0609 8 16C8 15.9391 8.00065 15.8787 8.00194 15.8186ZM-6.34583 21.469L0 19.9213V20.6673L-6.08663 22.4386C-6.17986 22.1182 -6.26632 21.795 -6.34583 21.469ZM3 19.1896V19.7942L8.31586 18.2472C8.28392 18.1374 8.25428 18.0266 8.22699 17.9147L3 19.1896ZM-4.16861 27.0646L0 24.7728V25.7038L-3.66607 27.9331C-3.83969 27.6476 -4.00726 27.358 -4.16861 27.0646ZM3 23.1235V23.8796L9.15036 20.1396C9.08997 20.0403 9.03181 19.9398 8.9759 19.8381L3 23.1235ZM-0.614422 31.9048L0 31.3165V32H0.683544L0.0952053 32.6144C-0.146436 32.383 -0.383039 32.1464 -0.614422 31.9048ZM3 29H3.55619L5.28228 27.1974L10.4694 21.7804C10.3843 21.6989 10.3011 21.6157 10.2196 21.5306L4.80261 26.7177L3 28.4438V29ZM4.06685 35.6661L6.29615 32H7.22723L4.93545 36.1686C4.64195 36.0073 4.35236 35.8397 4.06685 35.6661ZM8.12042 29H8.87654L12.1619 23.0241C12.0602 22.9682 11.9597 22.91 11.8604 22.8496L8.12042 29ZM9.56138 38.0866L11.3327 32H12.0787L10.531 38.3458C10.205 38.2663 9.88176 38.1799 9.56138 38.0866ZM12.2058 29H12.8104L14.0853 23.773C13.9734 23.7457 13.8626 23.7161 13.7528 23.6841L12.2058 29ZM15.4966 38.9946L15.6468 32H16.3532L16.5034 38.9946C16.3361 38.9982 16.1682 39 16 39C15.8318 39 15.6639 38.9982 15.4966 38.9946ZM15.8186 23.9981L15.7112 29H16.2888L16.1814 23.9981C16.1213 23.9993 16.0609 24 16 24C15.9391 24 15.8787 23.9993 15.8186 23.9981ZM21.469 38.3458L19.9213 32H20.6673L22.4386 38.0866C22.1182 38.1799 21.795 38.2663 21.469 38.3458ZM19.1896 29H19.7942L18.2472 23.6841C18.1374 23.7161 18.0266 23.7457 17.9147 23.773L19.1896 29ZM27.0646 36.1686L24.7728 32H25.7038L27.9331 35.6661C27.6476 35.8397 27.358 36.0073 27.0646 36.1686ZM23.1235 29H23.8796L20.1396 22.8496C20.0403 22.91 19.9398 22.9682 19.8381 23.0241L23.1235 29ZM31.9048 32.6144L31.3165 32H32V31.3165L32.6144 31.9048C32.383 32.1464 32.1464 32.383 31.9048 32.6144ZM29 29V28.4438L27.1974 26.7177L21.7804 21.5306C21.6989 21.6157 21.6157 21.6989 21.5306 21.7804L26.7177 27.1974L28.4438 29H29ZM35.6661 27.9331L32 25.7038V24.7728L36.1686 27.0646C36.0073 27.358 35.8397 27.6476 35.6661 27.9331ZM29 23.8796V23.1235L23.0241 19.8381C22.9682 19.9398 22.91 20.0403 22.8496 20.1396L29 23.8796ZM23.6841 18.2472L29 19.7942V19.1896L23.773 17.9147C23.7457 18.0266 23.7161 18.1374 23.6841 18.2472ZM32 19.9213V20.6673L38.0866 22.4386C38.1799 22.1182 38.2663 21.795 38.3458 21.469L32 19.9213Z" fill="#24282E"/>
<g id="Vector 32">
<path d="M22 17.6154L16 16L17.75 9.5C20.9383 11.5439 22.1786 13.0927 22 17.6154Z" fill="#24282E"/>
<path d="M19.5 3L17.75 9.5M29 19.5L22 17.6154M22 17.6154L16 16L17.75 9.5M22 17.6154C22.1786 13.0927 20.9383 11.5439 17.75 9.5" stroke="#24282E" stroke-width="0.6"/>
</g>
</g>
<rect x="0.5" y="0.5" width="31" height="31" rx="1.5" stroke="#24282E"/>
</g>
<defs>
<clipPath id="clip0_367_7495">
<rect width="32" height="32" rx="2" fill="white"/>
</clipPath>
</defs>
</svg>
