<svg width="25" height="24" viewBox="0 0 25 24" fill="none" xmlns="http://www.w3.org/2000/svg">
<path fill-rule="evenodd" clip-rule="evenodd" d="M17.9999 16.4999L12.4999 21.9999L6.99985 16.4999C3.96229 13.4623 3.96229 8.53742 6.99985 5.49985C10.0374 2.46229 14.9623 2.46229 17.9999 5.49985C21.0374 8.53742 21.0374 13.4623 17.9999 16.4999ZM12.5 15C14.7091 15 16.5 13.2091 16.5 11C16.5 8.79086 14.7091 7 12.5 7C10.2909 7 8.5 8.79086 8.5 11C8.5 13.2091 10.2909 15 12.5 15Z" fill="white"/>
<path d="M12.4999 21.9999L11.9695 22.5302C12.1102 22.6708 12.3009 22.7499 12.4999 22.7499C12.6988 22.7499 12.8895 22.6708 13.0302 22.5302L12.4999 21.9999ZM17.9999 16.4999L18.5302 17.0302L17.9999 16.4999ZM6.99985 16.4999L7.53018 15.9695H7.53018L6.99985 16.4999ZM6.99985 5.49985L6.46952 4.96952H6.46952L6.99985 5.49985ZM17.9999 5.49985L18.5302 4.96952V4.96952L17.9999 5.49985ZM13.0302 22.5302L18.5302 17.0302L17.4695 15.9695L11.9695 21.4695L13.0302 22.5302ZM6.46952 17.0302L11.9695 22.5302L13.0302 21.4695L7.53018 15.9695L6.46952 17.0302ZM6.46952 4.96952C3.13906 8.29998 3.13907 13.6997 6.46952 17.0302L7.53018 15.9695C4.78551 13.2249 4.78551 8.77486 7.53018 6.03018L6.46952 4.96952ZM18.5302 4.96952C15.1997 1.63907 9.79998 1.63907 6.46952 4.96952L7.53018 6.03018C10.2749 3.28551 14.7248 3.28551 17.4695 6.03018L18.5302 4.96952ZM18.5302 17.0302C21.8606 13.6997 21.8606 8.29998 18.5302 4.96952L17.4695 6.03018C20.2142 8.77486 20.2142 13.2248 17.4695 15.9695L18.5302 17.0302ZM15.75 11C15.75 12.7949 14.2949 14.25 12.5 14.25V15.75C15.1234 15.75 17.25 13.6234 17.25 11H15.75ZM12.5 7.75C14.2949 7.75 15.75 9.20507 15.75 11H17.25C17.25 8.37665 15.1234 6.25 12.5 6.25V7.75ZM9.25 11C9.25 9.20507 10.7051 7.75 12.5 7.75V6.25C9.87665 6.25 7.75 8.37665 7.75 11H9.25ZM12.5 14.25C10.7051 14.25 9.25 12.7949 9.25 11H7.75C7.75 13.6234 9.87665 15.75 12.5 15.75V14.25Z" fill="white"/>
</svg>
