<svg width="617" height="88" viewBox="0 0 617 88" fill="none" xmlns="http://www.w3.org/2000/svg">
<path d="M62.592 13.688L61.696 13.048C61.6533 12.9627 61.888 12.6213 62.4 12.024C62.9547 11.4267 63.6587 10.7013 64.512 9.848C65.408 8.99466 66.3893 8.07733 67.456 7.096C68.5227 6.072 69.568 5.13333 70.592 4.28C71.616 3.384 72.5333 2.63733 73.344 2.04C74.1547 1.4 74.7307 1.016 75.072 0.887997C75.3707 0.802664 75.6907 0.759998 76.032 0.759998C76.416 0.717332 76.672 0.909332 76.8 1.336C76.8853 1.592 76.6507 2.104 76.096 2.872C75.5413 3.64 74.7733 4.62133 73.792 5.816C72.8533 6.968 71.7653 8.29066 70.528 9.784C69.3333 11.2773 68.1173 12.856 66.88 14.52C65.3013 16.6533 63.7013 18.936 62.08 21.368C60.4587 23.7573 58.9013 26.2747 57.408 28.92C55.9573 31.5653 54.592 34.296 53.312 37.112C52.032 39.928 50.9227 42.7653 49.984 45.624C49.8987 45.8373 50.0693 45.9867 50.496 46.072C50.9227 46.1147 51.264 46.136 51.52 46.136C51.6053 46.136 51.904 45.9867 52.416 45.688C52.9707 45.3893 53.632 45.0267 54.4 44.6C55.168 44.1307 56 43.6187 56.896 43.064C57.792 42.5093 58.6453 41.9973 59.456 41.528C60.2667 41.016 60.9707 40.5893 61.568 40.248C62.1653 39.864 62.5707 39.608 62.784 39.48C63.3387 39.5653 63.5947 39.8213 63.552 40.248C63.424 40.376 63.0187 40.7387 62.336 41.336C61.6533 41.9333 60.8213 42.6373 59.84 43.448C58.9013 44.2587 57.856 45.1333 56.704 46.072C55.5947 46.968 54.4853 47.8 53.376 48.568C52.3093 49.2933 51.328 49.912 50.432 50.424C49.536 50.936 48.8533 51.192 48.384 51.192C47.7867 51.192 47.2107 50.9787 46.656 50.552C46.1013 50.1253 45.824 49.464 45.824 48.568C45.824 47.9707 45.9733 47.1813 46.272 46.2C46.5707 45.176 46.976 44.0667 47.488 42.872C48.0427 41.6347 48.6613 40.3333 49.344 38.968C50.0267 37.6027 50.752 36.28 51.52 35C52.3733 33.3787 53.2053 31.8213 54.016 30.328C54.8267 28.8347 55.7013 27.2987 56.64 25.72C57.6213 24.0987 58.688 22.392 59.84 20.6C60.992 18.808 62.336 16.8027 63.872 14.584C62.8907 15.8213 61.7173 17.2293 60.352 18.808C58.9867 20.344 57.5573 21.944 56.064 23.608C54.6133 25.272 53.1413 26.936 51.648 28.6C50.1973 30.264 48.8533 31.8427 47.616 33.336V33.464C44.9707 36.536 42.3467 39.3733 39.744 41.976C37.1413 44.536 34.4107 46.8827 31.552 49.016C27.712 51.7467 23.9787 53.7307 20.352 54.968C16.7253 56.248 13.568 56.7813 10.88 56.568C8.192 56.2693 6.08 55.48 4.544 54.2C3.008 52.9627 1.94133 51.4053 1.344 49.528C0.789333 47.6507 0.661333 45.56 0.96 43.256C1.30133 40.952 2.00533 38.6053 3.072 36.216C4.13867 33.784 5.54667 31.4373 7.296 29.176C9.088 26.872 11.1147 24.8027 13.376 22.968C15.68 21.1333 18.1973 19.6187 20.928 18.424C23.6587 17.2293 26.5387 16.5467 29.568 16.376C30.7627 16.4613 31.9147 16.7173 33.024 17.144C34.176 17.5707 35.1573 18.1467 35.968 18.872C36.8213 19.5973 37.4613 20.472 37.888 21.496C38.3147 22.52 38.4427 23.672 38.272 24.952C38.016 26.9573 37.0987 28.8987 35.52 30.776C33.984 32.6107 31.936 34.488 29.376 36.408C29.1627 36.6213 28.9707 36.728 28.8 36.728C28.5013 36.728 28.352 36.5787 28.352 36.28C28.4373 36.1093 28.5653 35.9387 28.736 35.768C28.9067 35.5973 29.0987 35.384 29.312 35.128C31.104 33.6347 32.4907 32.1413 33.472 30.648C34.4533 29.112 35.1147 27.5333 35.456 25.912C35.84 23.864 35.5413 22.136 34.56 20.728C33.6213 19.2773 32.064 18.488 29.888 18.36C28.224 18.2747 26.496 18.616 24.704 19.384C22.9547 20.152 21.2267 21.1973 19.52 22.52C17.856 23.8427 16.2347 25.4 14.656 27.192C13.12 28.9413 11.7333 30.776 10.496 32.696C9.30133 34.5733 8.29867 36.472 7.488 38.392C6.72 40.312 6.22933 42.104 6.016 43.768C5.376 46.968 5.58933 49.5493 6.656 51.512C7.72267 53.5173 9.57867 54.6267 12.224 54.84C14.912 54.7547 17.792 53.9653 20.864 52.472C23.9787 51.0213 27.0507 49.208 30.08 47.032C33.152 44.856 36.0747 42.488 38.848 39.928C41.6213 37.3253 44.032 34.8507 46.08 32.504L62.592 13.688ZM95.019 37.24C94.9337 37.368 94.6563 37.7093 94.187 38.264C93.7177 38.776 93.163 39.3733 92.523 40.056C91.9257 40.696 91.307 41.3573 90.667 42.04C90.027 42.68 89.4937 43.192 89.067 43.576C88.5977 43.96 88.043 44.4293 87.403 44.984C86.8057 45.5387 86.1657 46.072 85.483 46.584C84.843 47.096 84.1817 47.544 83.499 47.928C82.8163 48.2693 82.219 48.44 81.707 48.44C80.939 48.44 80.3843 48.056 80.043 47.288C79.7017 46.52 79.531 45.5813 79.531 44.472C79.531 43.9173 79.595 43.2347 79.723 42.424C79.8937 41.6133 80.0217 41.1227 80.107 40.952C80.1497 40.824 80.1283 40.7173 80.043 40.632C80.0003 40.5467 79.9363 40.504 79.851 40.504C79.8083 40.504 79.5737 40.6747 79.147 41.016C78.763 41.3573 78.2723 41.784 77.675 42.296C77.1203 42.7653 76.5017 43.2987 75.819 43.896C75.179 44.4507 74.5817 44.984 74.027 45.496C73.4723 46.008 72.7897 46.6267 71.979 47.352C71.211 48.0347 70.443 48.696 69.675 49.336C68.907 49.9333 68.203 50.4667 67.563 50.936C66.923 51.3627 66.4537 51.576 66.155 51.576C65.7283 51.576 65.3657 51.32 65.067 50.808C64.811 50.296 64.683 49.72 64.683 49.08C64.683 48.0133 64.939 46.776 65.451 45.368C65.963 43.96 66.6243 42.5093 67.435 41.016C68.2883 39.5227 69.2483 38.072 70.315 36.664C71.4243 35.2133 72.555 33.9333 73.707 32.824C74.9017 31.672 76.0963 30.7547 77.291 30.072C78.4857 29.3467 79.595 28.984 80.619 28.984C81.4723 28.984 82.1763 29.2187 82.731 29.688C83.3283 30.1573 83.627 30.8827 83.627 31.864C83.627 32.12 83.5417 32.4827 83.371 32.952C83.243 33.3787 83.051 33.8693 82.795 34.424C82.5817 34.936 82.3257 35.4693 82.027 36.024C81.7283 36.5787 81.451 37.0693 81.195 37.496C81.6217 37.2827 81.9417 37.176 82.155 37.176C82.667 37.176 83.0723 37.304 83.371 37.56C83.7123 37.816 83.883 38.2427 83.883 38.84C83.883 39.224 83.7977 39.6933 83.627 40.248C83.4563 40.76 83.2643 41.3147 83.051 41.912C82.8377 42.4667 82.6457 43.0213 82.475 43.576C82.3043 44.1307 82.219 44.6213 82.219 45.048C82.219 45.3893 82.2617 45.688 82.347 45.944C82.475 46.2 82.7097 46.328 83.051 46.328C83.5203 46.328 84.2883 45.9013 85.355 45.048C86.4217 44.1947 87.5523 43.2133 88.747 42.104C89.387 41.464 90.027 40.824 90.667 40.184C91.307 39.5013 91.9043 38.8827 92.459 38.328C93.0137 37.7733 93.483 37.2827 93.867 36.856C94.251 36.4293 94.5283 36.1093 94.699 35.896C94.827 35.896 94.955 36.0027 95.083 36.216C95.2537 36.4293 95.2323 36.7707 95.019 37.24ZM82.283 31.8C82.283 31.416 82.091 31.224 81.707 31.224C81.2803 31.224 80.6403 31.5227 79.787 32.12C78.9337 32.7173 77.9737 33.5067 76.907 34.488C75.8403 35.4267 74.7523 36.5147 73.643 37.752C72.5337 38.9893 71.5097 40.2267 70.571 41.464C69.3337 43.0853 68.3737 44.536 67.691 45.816C67.0083 47.096 66.667 48.0773 66.667 48.76C66.667 49.1867 66.731 49.4 66.859 49.4C66.987 49.4 67.3497 49.1867 67.947 48.76C68.587 48.2907 69.3123 47.736 70.123 47.096C70.9763 46.4133 71.851 45.688 72.747 44.92C73.643 44.1093 74.4537 43.384 75.179 42.744C75.947 42.0613 76.6937 41.3787 77.419 40.696C78.1443 40.0133 78.827 39.3947 79.467 38.84C79.1683 38.7547 78.9123 38.648 78.699 38.52C78.4857 38.392 78.379 38.2853 78.379 38.2C78.379 38.1147 78.4643 38.008 78.635 37.88C78.8057 37.7093 78.9763 37.5173 79.147 37.304C79.2323 37.2187 79.4457 36.92 79.787 36.408C80.1283 35.8533 80.4697 35.2773 80.811 34.68C81.195 34.04 81.5363 33.4427 81.835 32.888C82.1337 32.3333 82.283 31.9707 82.283 31.8ZM111.749 44.92C111.407 45.2613 111.002 45.624 110.533 46.008C110.106 46.392 109.658 46.776 109.189 47.16C108.719 47.544 108.314 47.8427 107.973 48.056C107.29 48.4827 106.458 48.9733 105.477 49.528C104.538 50.04 103.578 50.296 102.597 50.296C101.957 50.296 101.381 50.1253 100.869 49.784C100.357 49.4427 100.037 48.8027 99.9085 47.864C99.7805 47.0533 99.9085 46.072 100.293 44.92C100.677 43.7253 101.125 42.5947 101.637 41.528L101.765 41.272C101.509 41.2293 101.231 41.1867 100.933 41.144C100.079 41.0587 99.1832 41.016 98.2445 41.016C97.3058 41.016 96.3885 41.0373 95.4925 41.08C95.1085 41.1227 94.7458 41.144 94.4045 41.144C93.6792 42.3387 92.9965 43.4693 92.3565 44.536C91.4178 46.072 90.5858 47.4373 89.8605 48.632C89.1778 49.8267 88.7085 50.6587 88.4525 51.128C88.3672 51.128 88.1965 51.064 87.9405 50.936C87.6845 50.808 87.4072 50.6587 87.1085 50.488C86.8098 50.2747 86.5325 50.0613 86.2765 49.848C86.0205 49.6347 85.8925 49.4427 85.8925 49.272C85.8925 49.144 86.1912 48.5467 86.7885 47.48C87.3858 46.4133 88.1538 45.1333 89.0925 43.64C89.5192 43 89.9245 42.36 90.3085 41.72L89.9885 41.784C89.0498 41.9547 88.3672 41.9333 87.9405 41.72C87.0872 41.464 86.7032 40.9947 86.7885 40.312C86.7885 39.6293 87.0232 39.3733 87.4925 39.544C87.7058 39.6293 87.8765 39.7573 88.0045 39.928C88.1325 40.056 88.3032 40.1413 88.5165 40.184C88.6872 40.2693 89.2845 40.2267 90.3085 40.056C90.6925 39.9707 91.0978 39.9067 91.5245 39.864C91.7805 39.48 92.0152 39.1173 92.2285 38.776C93.3805 37.0693 94.4685 35.4907 95.4925 34.04C96.5165 32.5467 97.3912 31.3307 98.1165 30.392C98.8845 29.4107 99.3752 28.92 99.5885 28.92C99.9298 28.92 100.25 29.0907 100.549 29.432C100.847 29.7307 101.018 30.008 101.061 30.264C101.061 30.3067 100.783 30.7973 100.229 31.736C99.6738 32.632 98.9698 33.784 98.1165 35.192L95.4285 39.48H96.1325C96.9005 39.48 97.6898 39.5013 98.5005 39.544C99.3112 39.5867 100.079 39.6507 100.805 39.736C101.445 39.8213 101.978 39.928 102.405 40.056C102.661 39.5867 102.917 39.1387 103.173 38.712C103.642 37.9013 103.919 37.432 104.005 37.304C104.389 36.8347 104.538 36.3653 104.453 35.896C104.453 35.6827 104.517 35.4053 104.645 35.064C104.773 34.7227 104.965 34.4027 105.221 34.104C105.477 33.7627 105.775 33.4853 106.117 33.272C106.458 33.0587 106.821 32.952 107.205 32.952C107.717 32.952 108.165 33.1013 108.549 33.4C108.933 33.656 109.146 33.9333 109.189 34.232C109.231 34.5733 109.231 35.0853 109.189 35.768C109.189 36.4507 109.082 36.9413 108.869 37.24C108.741 37.368 108.506 37.6667 108.165 38.136C107.823 38.6053 107.439 39.1387 107.013 39.736C106.586 40.2907 106.159 40.8667 105.733 41.464C105.306 42.0613 104.965 42.552 104.708 42.936C104.154 43.7467 103.621 44.6 103.109 45.496C102.639 46.392 102.447 47.096 102.533 47.608C102.533 47.7787 102.597 47.9707 102.725 48.184C102.895 48.3547 103.109 48.44 103.365 48.44C103.919 48.44 104.602 48.248 105.413 47.864C106.266 47.4373 107.119 46.9467 107.973 46.392C108.783 45.8373 109.53 45.304 110.213 44.792C110.938 44.2373 111.471 43.7893 111.813 43.448C112.154 43.448 112.367 43.704 112.453 44.216L111.749 44.92ZM130.339 34.104C130.339 35.128 130.168 36.3227 129.827 37.688C129.485 39.0533 128.995 40.504 128.355 42.04C127.757 43.5333 127.011 45.112 126.115 46.776C125.219 48.3973 124.237 50.0187 123.171 51.64C123.555 51.5973 123.939 51.5547 124.323 51.512C124.749 51.512 125.069 51.512 125.283 51.512C125.88 51.512 126.179 51.8107 126.179 52.408C126.179 52.7493 125.837 52.92 125.155 52.92C124.899 52.92 124.621 52.8987 124.323 52.856C124.067 52.856 123.832 52.856 123.619 52.856C123.405 52.856 123.171 52.856 122.915 52.856C122.701 52.8987 122.467 52.9413 122.211 52.984C120.248 55.7573 118.051 58.488 115.619 61.176C113.229 63.9067 110.691 66.552 108.002 69.112C105.272 71.7147 102.477 74.1253 99.6185 76.344C96.7598 78.6053 93.9865 80.5467 91.2985 82.168C88.5678 83.832 85.9865 85.1333 83.5545 86.072C81.1225 87.0107 78.9465 87.48 77.0265 87.48C76.0452 87.48 75.1492 87.16 74.3385 86.52C73.5278 85.88 73.1225 84.9627 73.1225 83.768C73.1225 82.2747 73.5705 80.696 74.4665 79.032C75.3198 77.4107 76.5145 75.768 78.0505 74.104C79.5438 72.44 81.3145 70.776 83.3625 69.112C85.4105 67.448 87.6292 65.848 90.0185 64.312C92.2798 62.8613 94.6478 61.4747 97.1225 60.152C99.5545 58.872 102.029 57.6773 104.546 56.568C107.021 55.5013 109.453 54.5627 111.843 53.752C114.275 52.984 116.579 52.3653 118.755 51.896C119.139 51.3413 119.651 50.5093 120.291 49.4C120.931 48.248 121.571 47.032 122.211 45.752C122.893 44.4293 123.512 43.1493 124.067 41.912C124.664 40.632 125.112 39.5653 125.411 38.712C124.301 40.1627 123.085 41.656 121.763 43.192C120.44 44.6853 119.139 46.072 117.859 47.352C116.579 48.5893 115.384 49.6133 114.275 50.424C113.165 51.192 112.291 51.576 111.651 51.576C111.181 51.576 110.819 51.32 110.562 50.808C110.264 50.296 110.114 49.72 110.114 49.08C110.114 48.0133 110.37 46.776 110.883 45.368C111.395 43.96 112.077 42.5093 112.931 41.016C113.784 39.5227 114.765 38.072 115.875 36.664C117.027 35.2133 118.221 33.9333 119.459 32.824C120.739 31.672 122.019 30.7547 123.299 30.072C124.579 29.3467 125.816 28.984 127.01 28.984C127.864 28.984 128.589 29.176 129.187 29.56C129.827 29.944 130.147 30.52 130.147 31.288C130.147 31.4587 130.104 31.7147 130.019 32.056C129.507 31.2453 128.803 30.84 127.907 30.84C127.309 30.84 126.605 31.0747 125.795 31.544C124.984 31.9707 124.131 32.568 123.235 33.336C122.381 34.0613 121.485 34.9147 120.547 35.896C119.608 36.8773 118.712 37.9013 117.859 38.968C117.048 39.9493 116.28 40.9307 115.555 41.912C114.872 42.8507 114.275 43.768 113.763 44.664C113.251 45.5173 112.845 46.3067 112.547 47.032C112.248 47.7573 112.099 48.3333 112.099 48.76C112.099 49.1867 112.163 49.4 112.291 49.4C112.803 49.4 113.464 49.1013 114.275 48.504C115.128 47.864 116.067 47.0533 117.091 46.072C118.115 45.0907 119.16 43.9813 120.227 42.744C121.293 41.5067 122.296 40.2693 123.235 39.032C124.216 37.7947 125.069 36.6427 125.795 35.576C126.563 34.4667 127.117 33.5493 127.458 32.824C127.544 32.6107 127.672 32.4827 127.843 32.44C128.013 32.3973 128.205 32.376 128.419 32.376C128.632 32.376 128.845 32.4187 129.059 32.504C129.315 32.5467 129.464 32.568 129.507 32.568C130.061 32.568 130.339 33.08 130.339 34.104ZM117.859 53.496C115.939 53.9227 113.869 54.52 111.651 55.288C109.432 56.0987 107.149 57.0373 104.802 58.104C102.456 59.1707 100.088 60.344 97.6985 61.624C95.3092 62.9467 93.0265 64.3333 90.8505 65.784C88.6318 67.2347 86.5625 68.728 84.6425 70.264C82.7225 71.8 81.0585 73.336 79.6505 74.872C78.1998 76.408 77.0692 77.9013 76.2585 79.352C75.4478 80.8453 75.0425 82.232 75.0425 83.512C75.0425 84.1947 75.2558 84.7707 75.6825 85.24C76.0665 85.752 76.6212 86.008 77.3465 86.008C78.9252 86.008 80.8878 85.3893 83.2345 84.152C85.5812 82.9147 88.0985 81.3147 90.7865 79.352C93.4745 77.3893 96.2265 75.1707 99.0425 72.696C101.816 70.264 104.461 67.832 106.978 65.4C109.453 63.0107 111.651 60.7493 113.571 58.616C115.491 56.5253 116.92 54.8187 117.859 53.496ZM148.758 38.008C149.654 36.216 150.358 35.0213 150.87 34.424C151.425 33.8267 152.043 33.528 152.726 33.528C152.854 33.528 153.003 33.6133 153.174 33.784C153.387 33.912 153.579 34.104 153.75 34.36C153.921 34.5733 154.049 34.808 154.134 35.064C154.262 35.2773 154.326 35.4693 154.326 35.64C154.326 35.8107 154.305 35.9173 154.262 35.96C153.921 36.4293 153.451 37.176 152.854 38.2C152.299 39.224 151.723 40.312 151.126 41.464C150.571 42.616 150.081 43.7467 149.654 44.856C149.227 45.9227 149.014 46.7547 149.014 47.352C149.014 47.6507 149.057 47.9707 149.142 48.312C149.27 48.6107 149.505 48.76 149.846 48.76C150.102 48.76 150.465 48.632 150.934 48.376C151.446 48.12 152.001 47.7787 152.598 47.352C153.238 46.9253 153.899 46.4347 154.582 45.88C155.307 45.2827 156.033 44.6427 156.758 43.96C157.867 42.8933 158.87 41.8267 159.766 40.76C160.705 39.6507 161.473 38.776 162.07 38.136C162.326 37.9227 162.539 37.752 162.71 37.624C162.881 37.4533 163.03 37.368 163.158 37.368C163.713 37.368 164.182 37.7093 164.566 38.392C164.95 39.0747 165.142 39.7573 165.142 40.44C165.142 41.464 164.95 42.4027 164.566 43.256C164.182 44.1093 163.99 45.048 163.99 46.072C163.99 46.584 164.267 46.904 164.822 47.032C165.377 47.1173 165.803 47.16 166.102 47.16C166.273 47.16 166.358 47.2027 166.358 47.288C166.358 47.3307 166.187 47.5227 165.846 47.864C165.761 47.9493 165.59 48.1627 165.334 48.504C165.121 48.8027 164.865 49.1227 164.566 49.464C164.31 49.7627 164.033 50.04 163.734 50.296C163.435 50.552 163.158 50.68 162.902 50.68C162.177 50.68 161.537 50.2533 160.982 49.4C160.427 48.504 160.15 47.48 160.15 46.328C160.15 45.0907 160.278 44.088 160.534 43.32C160.833 42.552 161.067 42.0187 161.238 41.72L161.11 41.592C161.025 41.6773 160.705 41.9973 160.15 42.552C159.638 43.064 158.977 43.704 158.166 44.472C157.398 45.1973 156.523 46.008 155.542 46.904C154.603 47.7573 153.665 48.5467 152.726 49.272C151.83 49.9973 150.977 50.5947 150.166 51.064C149.355 51.5333 148.715 51.768 148.246 51.768C147.905 51.768 147.521 51.6827 147.094 51.512C146.71 51.3413 146.347 51.128 146.006 50.872C145.665 50.616 145.387 50.3387 145.174 50.04C144.961 49.6987 144.854 49.3573 144.854 49.016C144.854 48.0347 145.046 46.9467 145.43 45.752C145.857 44.5147 146.433 43.0853 147.158 41.464C147.073 41.5493 146.774 41.8693 146.262 42.424C145.75 42.936 145.11 43.576 144.342 44.344C143.617 45.0693 142.806 45.88 141.91 46.776C141.014 47.6293 140.118 48.4187 139.222 49.144C138.369 49.8693 137.558 50.4667 136.79 50.936C136.022 51.4053 135.403 51.64 134.934 51.64C134.593 51.64 134.209 51.5547 133.782 51.384C133.398 51.2133 133.035 51 132.694 50.744C132.353 50.488 132.075 50.2107 131.862 49.912C131.649 49.5707 131.542 49.2293 131.542 48.888C131.542 47.9067 131.798 46.6053 132.31 44.984C132.865 43.32 133.505 41.6773 134.23 40.056C134.657 39.16 135.105 38.3067 135.574 37.496C136.043 36.6853 136.491 35.9813 136.918 35.384C137.387 34.7867 137.835 34.3173 138.262 33.976C138.689 33.592 139.073 33.4 139.414 33.4C139.542 33.4 139.691 33.4853 139.862 33.656C140.075 33.784 140.267 33.976 140.438 34.232C140.609 34.4453 140.737 34.68 140.822 34.936C140.95 35.1493 141.014 35.3413 141.014 35.512C141.014 35.6827 140.993 35.7893 140.95 35.832C140.609 36.3013 140.139 37.048 139.542 38.072C138.987 39.096 138.411 40.184 137.814 41.336C137.259 42.488 136.769 43.6187 136.342 44.728C135.915 45.7947 135.702 46.6267 135.702 47.224C135.702 47.5227 135.745 47.8427 135.83 48.184C135.958 48.4827 136.193 48.632 136.534 48.632C136.79 48.632 137.153 48.504 137.622 48.248C138.134 47.992 138.689 47.6507 139.286 47.224C139.926 46.7973 140.587 46.3067 141.27 45.752C141.995 45.1547 142.721 44.5147 143.446 43.832C144.555 42.7653 145.558 41.72 146.454 40.696C147.393 39.6293 148.161 38.7333 148.758 38.008ZM196.894 37.24C196.809 37.368 196.531 37.7093 196.062 38.264C195.593 38.776 195.038 39.3733 194.398 40.056C193.801 40.696 193.182 41.3573 192.542 42.04C191.902 42.68 191.369 43.192 190.942 43.576C190.473 43.96 189.918 44.4293 189.278 44.984C188.681 45.5387 188.041 46.072 187.358 46.584C186.718 47.096 186.057 47.544 185.374 47.928C184.691 48.2693 184.094 48.44 183.582 48.44C182.814 48.44 182.259 48.056 181.918 47.288C181.577 46.52 181.406 45.5813 181.406 44.472C181.406 43.9173 181.47 43.2347 181.598 42.424C181.769 41.6133 181.897 41.1227 181.982 40.952C182.025 40.824 182.003 40.7173 181.918 40.632C181.875 40.5467 181.811 40.504 181.726 40.504C181.683 40.504 181.449 40.6747 181.022 41.016C180.638 41.3573 180.147 41.784 179.55 42.296C178.995 42.7653 178.377 43.2987 177.694 43.896C177.054 44.4507 176.457 44.984 175.902 45.496C175.347 46.008 174.665 46.6267 173.854 47.352C173.086 48.0347 172.318 48.696 171.55 49.336C170.782 49.9333 170.078 50.4667 169.438 50.936C168.798 51.3627 168.329 51.576 168.03 51.576C167.603 51.576 167.241 51.32 166.942 50.808C166.686 50.296 166.558 49.72 166.558 49.08C166.558 48.0133 166.814 46.776 167.326 45.368C167.838 43.96 168.499 42.5093 169.31 41.016C170.163 39.5227 171.123 38.072 172.19 36.664C173.299 35.2133 174.43 33.9333 175.582 32.824C176.777 31.672 177.971 30.7547 179.166 30.072C180.361 29.3467 181.47 28.984 182.494 28.984C183.347 28.984 184.051 29.2187 184.606 29.688C185.203 30.1573 185.502 30.8827 185.502 31.864C185.502 32.12 185.417 32.4827 185.246 32.952C185.118 33.3787 184.926 33.8693 184.67 34.424C184.457 34.936 184.201 35.4693 183.902 36.024C183.603 36.5787 183.326 37.0693 183.07 37.496C183.497 37.2827 183.817 37.176 184.03 37.176C184.542 37.176 184.947 37.304 185.246 37.56C185.587 37.816 185.758 38.2427 185.758 38.84C185.758 39.224 185.673 39.6933 185.502 40.248C185.331 40.76 185.139 41.3147 184.926 41.912C184.713 42.4667 184.521 43.0213 184.35 43.576C184.179 44.1307 184.094 44.6213 184.094 45.048C184.094 45.3893 184.137 45.688 184.222 45.944C184.35 46.2 184.585 46.328 184.926 46.328C185.395 46.328 186.163 45.9013 187.23 45.048C188.297 44.1947 189.427 43.2133 190.622 42.104C191.262 41.464 191.902 40.824 192.542 40.184C193.182 39.5013 193.779 38.8827 194.334 38.328C194.889 37.7733 195.358 37.2827 195.742 36.856C196.126 36.4293 196.403 36.1093 196.574 35.896C196.702 35.896 196.83 36.0027 196.958 36.216C197.129 36.4293 197.107 36.7707 196.894 37.24ZM184.158 31.8C184.158 31.416 183.966 31.224 183.582 31.224C183.155 31.224 182.515 31.5227 181.662 32.12C180.809 32.7173 179.849 33.5067 178.782 34.488C177.715 35.4267 176.627 36.5147 175.518 37.752C174.409 38.9893 173.385 40.2267 172.446 41.464C171.209 43.0853 170.249 44.536 169.566 45.816C168.883 47.096 168.542 48.0773 168.542 48.76C168.542 49.1867 168.606 49.4 168.734 49.4C168.862 49.4 169.225 49.1867 169.822 48.76C170.462 48.2907 171.187 47.736 171.998 47.096C172.851 46.4133 173.726 45.688 174.622 44.92C175.518 44.1093 176.329 43.384 177.054 42.744C177.822 42.0613 178.569 41.3787 179.294 40.696C180.019 40.0133 180.702 39.3947 181.342 38.84C181.043 38.7547 180.787 38.648 180.574 38.52C180.361 38.392 180.254 38.2853 180.254 38.2C180.254 38.1147 180.339 38.008 180.51 37.88C180.681 37.7093 180.851 37.5173 181.022 37.304C181.107 37.2187 181.321 36.92 181.662 36.408C182.003 35.8533 182.345 35.2773 182.686 34.68C183.07 34.04 183.411 33.4427 183.71 32.888C184.009 32.3333 184.158 31.9707 184.158 31.8ZM234.616 11.448C234.104 11.4907 233.549 11.7467 232.952 12.216C232.354 12.6853 231.864 13.0907 231.48 13.432C231.437 13.5173 231.309 13.7947 231.096 14.264C230.882 14.6907 230.712 14.904 230.584 14.904C230.456 14.904 230.306 14.84 230.136 14.712C230.008 14.5413 229.858 14.3707 229.688 14.2C229.517 13.9867 229.368 13.7947 229.24 13.624C229.154 13.4107 229.112 13.24 229.112 13.112C229.112 12.984 229.197 12.7493 229.368 12.408C229.538 12.0667 229.73 11.6827 229.944 11.256C230.2 10.7867 230.413 10.3173 230.584 9.848C230.754 9.336 230.84 8.86666 230.84 8.44C230.84 8.056 230.776 7.71466 230.648 7.416C230.52 7.11733 230.221 6.968 229.752 6.968C229.112 6.968 228.344 7.43733 227.448 8.376C226.594 9.272 225.741 10.3173 224.888 11.512C224.077 12.7067 223.33 13.9013 222.648 15.096C221.965 16.2907 221.496 17.144 221.24 17.656C219.917 20.216 218.658 22.712 217.464 25.144C216.269 27.5333 214.989 30.008 213.624 32.568C212.898 33.8907 212.194 35.192 211.512 36.472L211.768 36.216C213.176 34.68 214.605 33.2933 216.056 32.056C217.506 30.8187 218.829 29.9013 220.024 29.304C221.261 28.664 222.264 28.408 223.032 28.536C223.842 28.6213 224.312 29.2613 224.44 30.456C224.525 31.5653 224.354 32.8453 223.928 34.296C223.544 35.7467 222.968 37.2613 222.2 38.84C221.432 40.376 220.514 41.912 219.448 43.448C218.381 44.984 217.229 46.3707 215.992 47.608C214.754 48.8453 213.474 49.8693 212.152 50.68C210.872 51.448 209.592 51.8747 208.312 51.96C207.373 52.0453 206.562 51.9173 205.88 51.576C205.24 51.2347 204.877 50.6587 204.792 49.848L204.728 49.464C204.728 49.3787 204.77 49.2507 204.856 49.08C205.368 49.848 206.157 50.1893 207.224 50.104C207.864 50.0613 208.568 49.8053 209.336 49.336C210.104 48.8667 210.893 48.248 211.704 47.48C212.557 46.712 213.41 45.816 214.264 44.792C215.16 43.7253 216.034 42.616 216.888 41.464C217.656 40.3973 218.381 39.3307 219.064 38.264C219.746 37.1973 220.322 36.1947 220.792 35.256C221.304 34.3173 221.688 33.4853 221.944 32.76C222.242 31.992 222.37 31.3733 222.328 30.904C222.242 30.392 221.624 30.3707 220.472 30.84C219.32 31.2667 217.869 32.2053 216.12 33.656C214.413 35.1067 212.514 37.048 210.424 39.48C209.954 39.992 209.485 40.5467 209.016 41.144C208.248 42.552 207.501 43.9387 206.776 45.304C204.685 49.2293 202.552 53.048 200.376 56.76C199.864 57.6133 199.138 58.7013 198.2 60.024C197.304 61.3893 196.301 62.712 195.192 63.992C194.082 65.272 192.909 66.36 191.672 67.256C190.477 68.1947 189.346 68.664 188.279 68.664C187.597 68.664 187.042 68.4933 186.615 68.152C186.146 67.8533 185.783 67.4693 185.527 67C185.229 66.5307 185.015 65.9973 184.887 65.4C184.759 64.8027 184.695 64.2267 184.695 63.672V62.904C184.695 62.5627 184.823 61.944 185.079 61.048C185.335 60.152 185.677 59.2133 186.103 58.232C186.487 57.2933 186.914 56.4613 187.383 55.736C187.853 55.0107 188.279 54.648 188.663 54.648C188.919 54.648 189.09 54.84 189.175 55.224C188.407 56.4187 187.746 57.784 187.191 59.32C186.637 60.8987 186.359 62.4133 186.359 63.864C186.359 64.1627 186.381 64.504 186.423 64.888C186.466 65.3147 186.551 65.6987 186.679 66.04C186.807 66.3813 186.999 66.68 187.255 66.936C187.511 67.192 187.853 67.32 188.279 67.32C188.962 67.32 189.816 66.7653 190.84 65.656C191.906 64.5467 193.037 63.096 194.232 61.304C195.426 59.5547 196.642 57.5707 197.88 55.352C199.16 53.1333 200.397 50.8933 201.592 48.632C202.445 47.0533 203.256 45.496 204.024 43.96C204.45 43.064 204.877 42.2107 205.304 41.4C204.536 42.3813 203.704 43.3413 202.808 44.28C201.442 45.7733 200.034 47.1387 198.584 48.376C197.133 49.6133 195.789 50.5307 194.552 51.128C193.357 51.768 192.354 52.024 191.544 51.896C190.733 51.8107 190.285 51.1707 190.2 49.976C190.114 48.8667 190.264 47.5867 190.648 46.136C191.074 44.6853 191.672 43.192 192.44 41.656C193.208 40.0773 194.125 38.52 195.192 36.984C196.258 35.448 197.41 34.0613 198.648 32.824C199.885 31.5867 201.144 30.584 202.424 29.816C203.746 29.0053 205.048 28.5573 206.328 28.472C207.266 28.3867 208.056 28.5147 208.696 28.856C209.378 29.1973 209.762 29.7733 209.848 30.584L209.912 30.968C209.912 31.0533 209.869 31.1813 209.784 31.352C209.272 30.584 208.482 30.2427 207.416 30.328C206.776 30.3707 206.072 30.6267 205.304 31.096C204.536 31.5653 203.725 32.184 202.872 32.952C202.061 33.72 201.208 34.6373 200.312 35.704C199.458 36.728 198.605 37.816 197.752 38.968C196.984 40.0347 196.258 41.1013 195.576 42.168C194.893 43.2347 194.296 44.2373 193.784 45.176C193.314 46.1147 192.93 46.968 192.632 47.736C192.376 48.4613 192.269 49.0587 192.312 49.528C192.397 50.04 193.016 50.0827 194.168 49.656C195.32 49.1867 196.749 48.2267 198.456 46.776C200.205 45.3253 202.125 43.4053 204.216 41.016C205.453 39.5653 206.669 37.944 207.864 36.152L208.632 34.68C209.144 33.656 209.613 32.696 210.04 31.8C210.509 30.8613 210.85 30.136 211.064 29.624C211.832 28.0027 212.77 26.1253 213.88 23.992C214.989 21.8587 216.226 19.6613 217.592 17.4C218.53 15.864 219.49 14.392 220.472 12.984C221.453 11.5333 222.434 10.2747 223.416 9.208C224.44 8.09866 225.464 7.224 226.488 6.584C227.512 5.944 228.514 5.624 229.496 5.624C230.093 5.624 230.562 5.83733 230.904 6.264C231.288 6.69066 231.565 7.20267 231.736 7.8C231.949 8.39733 232.077 9.016 232.12 9.656C232.162 10.296 232.162 10.8293 232.12 11.256C232.418 11.0853 232.696 10.936 232.952 10.808C233.25 10.6373 233.57 10.488 233.912 10.36C234.509 10.5733 234.744 10.936 234.616 11.448ZM256.386 38.776C256.386 39.5013 256.258 40.4613 256.002 41.656C255.789 42.808 255.533 43.96 255.234 45.112C254.935 46.2213 254.658 47.2027 254.402 48.056C254.189 48.8667 254.082 49.2933 254.082 49.336C254.082 49.592 254.146 49.72 254.274 49.72C254.402 49.72 254.594 49.6133 254.85 49.4C255.149 49.144 255.383 49.016 255.554 49.016C255.682 49.016 255.767 49.1013 255.81 49.272C255.853 49.4 255.874 49.528 255.874 49.656C255.874 49.912 255.682 50.2107 255.298 50.552C254.914 50.8507 254.445 51.128 253.89 51.384C253.378 51.6827 252.845 51.9387 252.29 52.152C251.735 52.3653 251.309 52.472 251.01 52.472C250.157 52.472 249.73 51.7253 249.73 50.232C249.73 49.464 249.879 48.568 250.178 47.544C250.477 46.52 250.818 45.496 251.202 44.472C251.586 43.4053 251.927 42.36 252.226 41.336C252.525 40.2693 252.674 39.3093 252.674 38.456C252.674 37.8587 252.461 37.56 252.034 37.56C251.394 37.56 250.413 38.0933 249.09 39.16C247.767 40.2267 246.381 41.5067 244.93 43C243.693 44.28 242.519 45.6027 241.41 46.968C240.343 48.3333 239.49 49.592 238.85 50.744C238.722 50.9573 238.487 51.0213 238.146 50.936C237.805 50.808 237.463 50.616 237.122 50.36C236.781 50.104 236.482 49.8053 236.226 49.464C236.013 49.1227 235.97 48.824 236.098 48.568C236.269 48.1413 236.567 47.544 236.994 46.776C237.463 45.9653 237.954 45.0907 238.466 44.152C239.021 43.1707 239.575 42.1893 240.13 41.208C240.727 40.184 241.261 39.224 241.73 38.328C242.199 37.432 242.583 36.664 242.882 36.024C243.181 35.3413 243.33 34.872 243.33 34.616C243.33 34.0187 243.031 33.72 242.434 33.72C241.581 33.72 240.471 34.1467 239.106 35C237.783 35.8533 236.354 36.92 234.818 38.2C233.325 39.4373 231.81 40.8027 230.274 42.296C228.738 43.7467 227.351 45.112 226.114 46.392C224.877 47.6293 223.853 48.6747 223.042 49.528C222.231 50.3813 221.783 50.808 221.698 50.808C221.613 50.808 221.463 50.744 221.25 50.616C220.994 50.488 220.738 50.3387 220.482 50.168C220.183 49.9547 219.927 49.7413 219.714 49.528C219.501 49.3147 219.394 49.1227 219.394 48.952C219.394 48.7813 219.607 48.3333 220.034 47.608C220.418 46.84 220.909 45.9227 221.506 44.856C222.103 43.7893 222.765 42.68 223.49 41.528C224.258 40.3333 224.983 39.2453 225.666 38.264C226.349 37.2827 226.946 36.472 227.458 35.832C227.97 35.1493 228.333 34.808 228.546 34.808C229.058 34.808 229.613 34.8933 230.21 35.064C230.807 35.2347 231.106 35.448 231.106 35.704C231.106 35.7893 230.957 36.0667 230.658 36.536C230.402 36.9627 230.061 37.5173 229.634 38.2C229.207 38.84 228.717 39.5653 228.162 40.376C227.65 41.144 227.159 41.8693 226.69 42.552C227.842 41.6133 229.122 40.5467 230.53 39.352C231.981 38.1573 233.453 37.0267 234.946 35.96C236.439 34.8933 237.89 33.9973 239.298 33.272C240.749 32.5467 242.029 32.184 243.138 32.184C243.863 32.184 244.567 32.4187 245.25 32.888C245.975 33.3573 246.338 34.04 246.338 34.936C246.338 35.4053 246.167 36.0667 245.826 36.92C245.485 37.7307 245.079 38.6053 244.61 39.544C244.183 40.44 243.735 41.2933 243.266 42.104C242.797 42.9147 242.455 43.4907 242.242 43.832C242.498 43.4907 243.031 42.872 243.842 41.976C244.695 41.08 245.677 40.1627 246.786 39.224C247.938 38.2427 249.133 37.3893 250.37 36.664C251.607 35.9387 252.759 35.576 253.826 35.576C254.765 35.576 255.426 35.832 255.81 36.344C256.194 36.856 256.386 37.6667 256.386 38.776ZM318.002 4.152C318.002 5.64533 317.639 7.11733 316.914 8.568C316.189 10.0187 315.271 11.4267 314.162 12.792C313.095 14.1147 311.943 15.3733 310.706 16.568C309.469 17.72 308.317 18.7227 307.25 19.576C304.519 21.8373 301.575 23.7787 298.418 25.4C295.303 27.0213 292.146 28.5147 288.946 29.88C287.965 31.2027 287.005 32.5253 286.066 33.848C285.127 35.128 284.189 36.4507 283.25 37.816C283.634 37.3893 284.338 36.792 285.362 36.024C286.386 35.2133 287.517 34.424 288.754 33.656C289.991 32.888 291.229 32.2267 292.466 31.672C293.746 31.1173 294.834 30.84 295.73 30.84C296.242 30.84 296.733 31.0107 297.202 31.352C297.671 31.6933 298.077 32.12 298.418 32.632C298.759 33.144 299.015 33.6773 299.186 34.232C299.399 34.7867 299.506 35.256 299.506 35.64C299.506 36.3227 299.143 36.984 298.418 37.624C297.693 38.264 296.733 38.8827 295.538 39.48C294.343 40.0347 292.978 40.5467 291.442 41.016C289.949 41.4853 288.413 41.8693 286.834 42.168C286.919 42.296 287.069 42.3813 287.282 42.424C287.922 42.8507 288.434 43.448 288.818 44.216C289.202 44.984 289.65 45.752 290.162 46.52C290.674 47.288 291.293 47.9707 292.018 48.568C292.786 49.1227 293.831 49.4 295.154 49.4C295.453 49.4 295.773 49.336 296.114 49.208C296.498 49.0373 296.861 48.8453 297.202 48.632C297.543 48.376 297.863 48.12 298.162 47.864C298.461 47.5653 298.717 47.3093 298.93 47.096C299.143 47.224 299.25 47.352 299.25 47.48V47.8C298.909 48.1413 298.503 48.568 298.034 49.08C297.607 49.5493 297.138 49.9973 296.626 50.424C296.114 50.8507 295.559 51.2133 294.962 51.512C294.365 51.8107 293.746 51.96 293.106 51.96C291.997 51.96 291.143 51.64 290.546 51C289.949 50.36 289.437 49.592 289.01 48.696C288.626 47.7573 288.221 46.7973 287.794 45.816C287.41 44.8347 286.834 43.9813 286.066 43.256C285.81 43 285.405 42.7653 284.85 42.552C283.954 42.68 283.079 42.7867 282.226 42.872C281.373 42.9573 280.562 43 279.794 43C278.813 44.4933 277.831 46.008 276.85 47.544C275.911 49.0373 275.015 50.5733 274.162 52.152C273.778 52.152 273.479 52.0027 273.266 51.704C273.053 51.448 272.946 51.1493 272.946 50.808C272.946 50.424 273.159 49.7627 273.586 48.824C274.013 47.8853 274.503 46.904 275.058 45.88C275.613 44.8133 276.146 43.8107 276.658 42.872C277.213 41.9333 277.597 41.2933 277.81 40.952C278.493 39.8 279.389 38.3493 280.498 36.6C281.607 34.808 282.866 32.8667 284.274 30.776C285.682 28.6427 287.197 26.4453 288.818 24.184C290.482 21.88 292.189 19.6187 293.938 17.4C295.73 15.1813 297.543 13.0693 299.378 11.064C301.255 9.05867 303.09 7.30933 304.882 5.816C306.674 4.28 308.402 3.064 310.066 2.168C311.773 1.272 313.351 0.823997 314.802 0.823997C315.143 0.823997 315.485 0.930664 315.826 1.144C316.21 1.35733 316.551 1.63466 316.85 1.976C317.191 2.31733 317.469 2.68 317.682 3.064C317.895 3.448 318.002 3.81067 318.002 4.152ZM316.082 5.048C316.082 4.28 315.698 3.896 314.93 3.896C314.162 3.896 313.245 4.17333 312.178 4.728C311.154 5.28266 310.045 6.02933 308.85 6.968C307.698 7.90667 306.482 8.99467 305.202 10.232C303.965 11.4693 302.727 12.7493 301.49 14.072C300.338 15.352 299.207 16.6533 298.098 17.976C296.989 19.256 295.943 20.4933 294.962 21.688C294.023 22.84 293.17 23.928 292.402 24.952C291.634 25.9333 291.015 26.7653 290.546 27.448C293.447 26.2107 296.242 24.824 298.93 23.288C301.661 21.752 304.242 19.96 306.674 17.912C307.442 17.272 308.359 16.44 309.426 15.416C310.535 14.392 311.581 13.304 312.562 12.152C313.543 10.9573 314.375 9.74133 315.058 8.504C315.741 7.26667 316.082 6.11466 316.082 5.048ZM296.946 36.088C296.946 34.8933 296.306 34.296 295.026 34.296C294.429 34.296 293.447 34.5947 292.082 35.192C290.759 35.7893 289.351 36.4933 287.858 37.304C286.407 38.072 285.063 38.84 283.826 39.608C282.589 40.3333 281.757 40.8453 281.33 41.144C282.354 41.144 283.741 40.9733 285.49 40.632C287.282 40.2907 289.01 39.864 290.674 39.352C292.381 38.84 293.853 38.3067 295.09 37.752C296.327 37.1547 296.946 36.6 296.946 36.088ZM282.61 41.912C282.439 41.8693 282.247 41.848 282.034 41.848C281.693 41.848 281.607 41.8693 281.778 41.912C281.949 41.912 282.226 41.912 282.61 41.912ZM328.832 37.24C328.746 37.368 328.469 37.7093 328 38.264C327.53 38.776 326.976 39.3733 326.336 40.056C325.738 40.696 325.12 41.3573 324.48 42.04C323.84 42.68 323.306 43.192 322.88 43.576C322.41 43.96 321.856 44.4293 321.216 44.984C320.618 45.5387 319.978 46.072 319.296 46.584C318.656 47.096 317.994 47.544 317.312 47.928C316.629 48.2693 316.032 48.44 315.52 48.44C314.752 48.44 314.197 48.056 313.856 47.288C313.514 46.52 313.344 45.5813 313.344 44.472C313.344 43.9173 313.408 43.2347 313.536 42.424C313.706 41.6133 313.834 41.1227 313.92 40.952C313.962 40.824 313.941 40.7173 313.856 40.632C313.813 40.5467 313.749 40.504 313.664 40.504C313.621 40.504 313.386 40.6747 312.96 41.016C312.576 41.3573 312.085 41.784 311.488 42.296C310.933 42.7653 310.314 43.2987 309.632 43.896C308.992 44.4507 308.394 44.984 307.84 45.496C307.285 46.008 306.602 46.6267 305.792 47.352C305.024 48.0347 304.256 48.696 303.488 49.336C302.72 49.9333 302.016 50.4667 301.376 50.936C300.736 51.3627 300.266 51.576 299.968 51.576C299.541 51.576 299.178 51.32 298.88 50.808C298.623 50.296 298.495 49.72 298.495 49.08C298.495 48.0133 298.752 46.776 299.264 45.368C299.776 43.96 300.437 42.5093 301.248 41.016C302.101 39.5227 303.061 38.072 304.128 36.664C305.237 35.2133 306.368 33.9333 307.52 32.824C308.714 31.672 309.909 30.7547 311.104 30.072C312.298 29.3467 313.408 28.984 314.432 28.984C315.285 28.984 315.989 29.2187 316.544 29.688C317.141 30.1573 317.44 30.8827 317.44 31.864C317.44 32.12 317.354 32.4827 317.184 32.952C317.056 33.3787 316.864 33.8693 316.608 34.424C316.394 34.936 316.138 35.4693 315.84 36.024C315.541 36.5787 315.264 37.0693 315.008 37.496C315.434 37.2827 315.754 37.176 315.968 37.176C316.48 37.176 316.885 37.304 317.184 37.56C317.525 37.816 317.696 38.2427 317.696 38.84C317.696 39.224 317.61 39.6933 317.44 40.248C317.269 40.76 317.077 41.3147 316.864 41.912C316.65 42.4667 316.458 43.0213 316.288 43.576C316.117 44.1307 316.032 44.6213 316.032 45.048C316.032 45.3893 316.074 45.688 316.16 45.944C316.288 46.2 316.522 46.328 316.864 46.328C317.333 46.328 318.101 45.9013 319.168 45.048C320.234 44.1947 321.365 43.2133 322.56 42.104C323.2 41.464 323.84 40.824 324.48 40.184C325.12 39.5013 325.717 38.8827 326.272 38.328C326.826 37.7733 327.296 37.2827 327.68 36.856C328.064 36.4293 328.341 36.1093 328.512 35.896C328.64 35.896 328.768 36.0027 328.896 36.216C329.066 36.4293 329.045 36.7707 328.832 37.24ZM316.096 31.8C316.096 31.416 315.904 31.224 315.52 31.224C315.093 31.224 314.453 31.5227 313.6 32.12C312.746 32.7173 311.786 33.5067 310.72 34.488C309.653 35.4267 308.565 36.5147 307.456 37.752C306.346 38.9893 305.322 40.2267 304.384 41.464C303.146 43.0853 302.186 44.536 301.504 45.816C300.821 47.096 300.48 48.0773 300.48 48.76C300.48 49.1867 300.544 49.4 300.672 49.4C300.8 49.4 301.162 49.1867 301.76 48.76C302.4 48.2907 303.125 47.736 303.936 47.096C304.789 46.4133 305.664 45.688 306.56 44.92C307.456 44.1093 308.266 43.384 308.992 42.744C309.76 42.0613 310.506 41.3787 311.232 40.696C311.957 40.0133 312.64 39.3947 313.28 38.84C312.981 38.7547 312.725 38.648 312.512 38.52C312.298 38.392 312.192 38.2853 312.192 38.2C312.192 38.1147 312.277 38.008 312.448 37.88C312.618 37.7093 312.789 37.5173 312.96 37.304C313.045 37.2187 313.258 36.92 313.6 36.408C313.941 35.8533 314.282 35.2773 314.624 34.68C315.008 34.04 315.349 33.4427 315.648 32.888C315.946 32.3333 316.096 31.9707 316.096 31.8ZM364.377 4.152C364.377 5.64533 364.014 7.11733 363.289 8.568C362.564 10.0187 361.646 11.4267 360.537 12.792C359.47 14.1147 358.318 15.3733 357.081 16.568C355.844 17.72 354.692 18.7227 353.625 19.576C350.894 21.8373 347.95 23.7787 344.793 25.4C341.678 27.0213 338.521 28.5147 335.321 29.88C334.34 31.2027 333.38 32.5253 332.441 33.848C331.502 35.128 330.564 36.4507 329.625 37.816C330.009 37.3893 330.713 36.792 331.737 36.024C332.761 35.2133 333.892 34.424 335.129 33.656C336.366 32.888 337.604 32.2267 338.841 31.672C340.121 31.1173 341.209 30.84 342.105 30.84C342.617 30.84 343.108 31.0107 343.577 31.352C344.046 31.6933 344.452 32.12 344.793 32.632C345.134 33.144 345.39 33.6773 345.561 34.232C345.774 34.7867 345.881 35.256 345.881 35.64C345.881 36.3227 345.518 36.984 344.793 37.624C344.068 38.264 343.108 38.8827 341.913 39.48C340.718 40.0347 339.353 40.5467 337.817 41.016C336.324 41.4853 334.788 41.8693 333.209 42.168C333.294 42.296 333.444 42.3813 333.657 42.424C334.297 42.8507 334.809 43.448 335.193 44.216C335.577 44.984 336.025 45.752 336.537 46.52C337.049 47.288 337.668 47.9707 338.393 48.568C339.161 49.1227 340.206 49.4 341.529 49.4C341.828 49.4 342.148 49.336 342.489 49.208C342.873 49.0373 343.236 48.8453 343.577 48.632C343.918 48.376 344.238 48.12 344.537 47.864C344.836 47.5653 345.092 47.3093 345.305 47.096C345.518 47.224 345.625 47.352 345.625 47.48V47.8C345.284 48.1413 344.878 48.568 344.409 49.08C343.982 49.5493 343.513 49.9973 343.001 50.424C342.489 50.8507 341.934 51.2133 341.337 51.512C340.74 51.8107 340.121 51.96 339.481 51.96C338.372 51.96 337.518 51.64 336.921 51C336.324 50.36 335.812 49.592 335.385 48.696C335.001 47.7573 334.596 46.7973 334.169 45.816C333.785 44.8347 333.209 43.9813 332.441 43.256C332.185 43 331.78 42.7653 331.225 42.552C330.329 42.68 329.454 42.7867 328.601 42.872C327.748 42.9573 326.937 43 326.169 43C325.188 44.4933 324.206 46.008 323.225 47.544C322.286 49.0373 321.39 50.5733 320.537 52.152C320.153 52.152 319.854 52.0027 319.641 51.704C319.428 51.448 319.321 51.1493 319.321 50.808C319.321 50.424 319.534 49.7627 319.961 48.824C320.388 47.8853 320.878 46.904 321.433 45.88C321.988 44.8133 322.521 43.8107 323.033 42.872C323.588 41.9333 323.972 41.2933 324.185 40.952C324.868 39.8 325.764 38.3493 326.873 36.6C327.982 34.808 329.241 32.8667 330.649 30.776C332.057 28.6427 333.572 26.4453 335.193 24.184C336.857 21.88 338.564 19.6187 340.313 17.4C342.105 15.1813 343.918 13.0693 345.753 11.064C347.63 9.05867 349.465 7.30933 351.257 5.816C353.049 4.28 354.777 3.064 356.441 2.168C358.148 1.272 359.726 0.823997 361.177 0.823997C361.518 0.823997 361.86 0.930664 362.201 1.144C362.585 1.35733 362.926 1.63466 363.225 1.976C363.566 2.31733 363.844 2.68 364.057 3.064C364.27 3.448 364.377 3.81067 364.377 4.152ZM362.457 5.048C362.457 4.28 362.073 3.896 361.305 3.896C360.537 3.896 359.62 4.17333 358.553 4.728C357.529 5.28266 356.42 6.02933 355.225 6.968C354.073 7.90667 352.857 8.99467 351.577 10.232C350.34 11.4693 349.102 12.7493 347.865 14.072C346.713 15.352 345.582 16.6533 344.473 17.976C343.364 19.256 342.318 20.4933 341.337 21.688C340.398 22.84 339.545 23.928 338.777 24.952C338.009 25.9333 337.39 26.7653 336.921 27.448C339.822 26.2107 342.617 24.824 345.305 23.288C348.036 21.752 350.617 19.96 353.049 17.912C353.817 17.272 354.734 16.44 355.801 15.416C356.91 14.392 357.956 13.304 358.937 12.152C359.918 10.9573 360.75 9.74133 361.433 8.504C362.116 7.26667 362.457 6.11466 362.457 5.048ZM343.321 36.088C343.321 34.8933 342.681 34.296 341.401 34.296C340.804 34.296 339.822 34.5947 338.457 35.192C337.134 35.7893 335.726 36.4933 334.233 37.304C332.782 38.072 331.438 38.84 330.201 39.608C328.964 40.3333 328.132 40.8453 327.705 41.144C328.729 41.144 330.116 40.9733 331.865 40.632C333.657 40.2907 335.385 39.864 337.049 39.352C338.756 38.84 340.228 38.3067 341.465 37.752C342.702 37.1547 343.321 36.6 343.321 36.088ZM328.985 41.912C328.814 41.8693 328.622 41.848 328.409 41.848C328.068 41.848 327.982 41.8693 328.153 41.912C328.324 41.912 328.601 41.912 328.985 41.912ZM383.808 37.688C384.106 38.072 384 38.264 383.488 38.264C383.36 38.264 383.168 38.3067 382.912 38.392C382.656 38.4347 382.378 38.4773 382.08 38.52C381.44 39.6293 380.586 40.8667 379.52 42.232C378.453 43.5547 377.258 44.792 375.936 45.944C374.656 47.096 373.312 48.0773 371.904 48.888C370.496 49.656 369.13 50.04 367.808 50.04C366.442 50.04 365.29 49.6987 364.352 49.016C363.456 48.2907 363.008 47.224 363.008 45.816C363.008 45.0053 363.221 44.0667 363.648 43C364.074 41.9333 364.65 40.8453 365.376 39.736C366.101 38.6267 366.89 37.5387 367.744 36.472C368.64 35.4053 369.536 34.4453 370.432 33.592C371.328 32.7387 372.181 32.056 372.992 31.544C373.802 31.032 374.506 30.776 375.104 30.776C375.317 30.776 375.488 30.8613 375.616 31.032C375.744 31.16 375.872 31.3307 376 31.544C376.128 31.7147 376.234 31.8853 376.32 32.056C376.448 32.184 376.576 32.248 376.704 32.248C377.002 32.248 377.493 32.1627 378.176 31.992C378.858 31.8213 379.477 31.736 380.032 31.736C380.842 31.736 381.568 32.056 382.208 32.696C382.848 33.2933 383.168 34.296 383.168 35.704V36.088C383.296 36.4293 383.402 36.7707 383.488 37.112C383.616 37.4107 383.722 37.6027 383.808 37.688ZM380.864 33.72C380.864 33.5493 380.65 33.464 380.224 33.464C379.328 33.464 378.346 33.6987 377.28 34.168C376.213 34.6373 375.146 35.256 374.08 36.024C373.056 36.7493 372.053 37.6027 371.072 38.584C370.09 39.5227 369.216 40.4827 368.448 41.464C367.68 42.4453 367.061 43.4053 366.592 44.344C366.165 45.2827 365.952 46.0933 365.952 46.776C365.952 47.9707 366.549 48.568 367.744 48.568C368.341 48.568 369.045 48.3547 369.856 47.928C370.709 47.4587 371.584 46.8827 372.48 46.2C373.418 45.5173 374.336 44.7493 375.232 43.896C376.17 43.0427 377.002 42.2107 377.728 41.4C378.496 40.5893 379.093 39.864 379.52 39.224C379.989 38.5413 380.224 38.0293 380.224 37.688C380.138 37.6027 380.01 37.4747 379.84 37.304C379.712 37.1333 379.648 36.7707 379.648 36.216C379.648 35.4907 379.84 34.9147 380.224 34.488C380.65 34.0613 380.864 33.8053 380.864 33.72ZM403.12 37.688C403.419 38.072 403.312 38.264 402.8 38.264C402.672 38.264 402.48 38.3067 402.224 38.392C401.968 38.4347 401.691 38.4773 401.392 38.52C400.752 39.6293 399.899 40.8667 398.832 42.232C397.765 43.5547 396.571 44.792 395.248 45.944C393.968 47.096 392.624 48.0773 391.216 48.888C389.808 49.656 388.443 50.04 387.12 50.04C385.755 50.04 384.603 49.6987 383.664 49.016C382.768 48.2907 382.32 47.224 382.32 45.816C382.32 45.0053 382.533 44.0667 382.96 43C383.387 41.9333 383.963 40.8453 384.688 39.736C385.413 38.6267 386.203 37.5387 387.056 36.472C387.952 35.4053 388.848 34.4453 389.744 33.592C390.64 32.7387 391.493 32.056 392.304 31.544C393.115 31.032 393.819 30.776 394.416 30.776C394.587 30.776 394.736 30.8613 394.864 31.032C395.035 31.16 395.184 31.3307 395.312 31.544C395.44 31.7147 395.547 31.8853 395.632 32.056C395.76 32.184 395.888 32.248 396.016 32.248C396.315 32.248 396.805 32.1627 397.488 31.992C398.171 31.8213 398.789 31.736 399.344 31.736C400.027 31.736 400.645 31.9707 401.2 32.44C401.243 31.7573 401.2 31.0533 401.072 30.328C400.987 29.56 400.859 28.8133 400.688 28.088C400.56 27.3627 400.411 26.7013 400.24 26.104C400.069 25.5067 399.92 25.016 399.792 24.632C399.28 22.3707 399.195 20.4507 399.536 18.872C399.877 17.2507 400.475 15.9067 401.328 14.84C402.224 13.7733 403.312 12.9413 404.592 12.344C405.872 11.704 407.195 11.2347 408.56 10.936C409.925 10.6373 411.248 10.4453 412.528 10.36C413.851 10.2747 415.003 10.232 415.984 10.232C416.965 10.232 417.84 10.4453 418.608 10.872C419.376 11.2987 419.76 11.7467 419.76 12.216C419.76 12.4293 419.568 12.792 419.184 13.304C418.843 13.816 418.437 14.3493 417.968 14.904C417.541 15.4587 417.115 15.9493 416.688 16.376C416.304 16.8027 416.048 17.016 415.92 17.016C415.408 17.016 415.152 16.7387 415.152 16.184L416.048 14.584C416.048 14.2 415.664 13.9013 414.896 13.688C414.171 13.4747 413.253 13.368 412.144 13.368C411.077 13.3253 409.925 13.3893 408.688 13.56C407.493 13.7307 406.427 14.008 405.488 14.392C403.909 14.904 402.779 15.5867 402.096 16.44C401.413 17.2933 401.008 18.2533 400.88 19.32C400.752 20.3867 400.816 21.56 401.072 22.84C401.328 24.0773 401.605 25.3787 401.904 26.744C402.245 28.1093 402.501 29.5173 402.672 30.968C402.843 32.4187 402.779 33.848 402.48 35.256V35.704V36.088C402.608 36.4293 402.715 36.7707 402.8 37.112C402.928 37.4107 403.035 37.6027 403.12 37.688ZM400.176 33.72C400.176 33.5493 399.963 33.464 399.536 33.464C398.64 33.464 397.659 33.6987 396.592 34.168C395.525 34.6373 394.459 35.256 393.392 36.024C392.368 36.7493 391.365 37.6027 390.384 38.584C389.403 39.5227 388.528 40.4827 387.76 41.464C386.992 42.4453 386.373 43.4053 385.904 44.344C385.477 45.2827 385.264 46.0933 385.264 46.776C385.264 47.9707 385.861 48.568 387.056 48.568C387.653 48.568 388.357 48.3547 389.168 47.928C390.021 47.4587 390.896 46.8827 391.792 46.2C392.731 45.5173 393.648 44.7493 394.544 43.896C395.483 43.0427 396.315 42.2107 397.04 41.4C397.808 40.5893 398.405 39.864 398.832 39.224C399.301 38.5413 399.536 38.0293 399.536 37.688C399.451 37.6027 399.323 37.4747 399.152 37.304C399.024 37.1333 398.96 36.7707 398.96 36.216C398.96 35.4907 399.152 34.9147 399.536 34.488C399.963 34.0613 400.176 33.8053 400.176 33.72ZM423.521 37.752C423.521 38.6053 423.286 39.5653 422.817 40.632C422.347 41.6987 421.793 42.7227 421.153 43.704C420.555 44.6853 419.958 45.5387 419.361 46.264C418.763 46.9467 418.358 47.352 418.145 47.48L418.273 47.864C418.443 47.7787 418.721 47.6507 419.105 47.48C419.489 47.3093 419.894 47.1387 420.321 46.968C420.747 46.7973 421.153 46.648 421.537 46.52C421.921 46.3493 422.219 46.2 422.433 46.072C422.603 45.944 422.753 45.88 422.881 45.88C423.094 45.88 423.201 46.008 423.201 46.264C423.201 46.52 423.03 46.776 422.689 47.032C422.518 47.2027 421.942 47.608 420.961 48.248C420.022 48.8453 418.891 49.4853 417.569 50.168C416.246 50.808 414.817 51.384 413.281 51.896C411.787 52.4507 410.401 52.728 409.121 52.728C408.609 52.728 408.011 52.728 407.329 52.728C406.646 52.728 406.027 52.6853 405.473 52.6C403.766 55.2027 401.952 57.9547 400.032 60.856C398.07 63.8 396.235 66.5093 394.528 68.984C392.779 71.4587 391.286 73.5067 390.048 75.128C388.768 76.7493 387.958 77.56 387.616 77.56C387.19 77.56 386.784 77.2187 386.4 76.536C386.016 75.8533 385.824 75.0427 385.824 74.104C385.824 72.4827 386.251 70.4773 387.104 68.088C387.915 65.6987 389.046 63.1387 390.496 60.408C391.904 57.72 393.547 54.968 395.424 52.152C397.302 49.336 399.286 46.712 401.377 44.28C403.467 41.8053 405.601 39.6293 407.777 37.752C409.995 35.8747 412.129 34.5093 414.177 33.656C415.329 31.9493 416.31 30.5413 417.121 29.432C417.931 28.28 418.443 27.5547 418.657 27.256C418.998 26.8293 419.361 26.4453 419.745 26.104C420.129 25.72 420.534 25.528 420.961 25.528C421.259 25.528 421.409 25.656 421.409 25.912C421.409 26.168 421.089 26.9147 420.449 28.152C419.809 29.3467 418.934 30.8827 417.825 32.76C417.91 32.76 417.974 32.76 418.017 32.76C418.059 32.7173 418.123 32.696 418.208 32.696C421.75 32.696 423.521 34.3813 423.521 37.752ZM421.089 37.304C421.089 36.1947 420.769 35.384 420.128 34.872C419.531 34.3173 418.763 34.04 417.825 34.04C417.483 34.04 417.227 34.0613 417.057 34.104C415.691 36.3653 414.177 38.84 412.513 41.528C410.849 44.216 409.163 46.8827 407.457 49.528C407.329 49.7413 407.201 49.9333 407.073 50.104C406.987 50.232 406.881 50.4027 406.753 50.616C407.265 50.5307 407.862 50.424 408.545 50.296C409.27 50.168 409.974 50.0187 410.657 49.848C411.339 49.6773 411.979 49.5067 412.577 49.336C413.174 49.1227 413.622 48.9307 413.921 48.76C414.347 48.504 414.945 48.0347 415.713 47.352C416.523 46.6693 417.313 45.816 418.081 44.792C418.891 43.768 419.595 42.616 420.193 41.336C420.79 40.056 421.089 38.712 421.089 37.304ZM412.769 35.704C410.934 36.7707 409.014 38.2853 407.009 40.248C405.046 42.2107 403.126 44.3867 401.248 46.776C399.371 49.1653 397.6 51.6613 395.936 54.264C394.272 56.9093 392.8 59.4267 391.52 61.816C390.24 64.248 389.238 66.4453 388.512 68.408C387.787 70.3707 387.424 71.9067 387.424 73.016C387.424 73.4 387.446 73.7413 387.488 74.04C387.488 74.3387 387.595 74.488 387.808 74.488C387.851 74.488 388.128 74.1253 388.64 73.4C389.11 72.6747 389.75 71.6933 390.56 70.456C391.328 69.2613 392.224 67.8533 393.248 66.232C394.272 64.6533 395.339 62.968 396.448 61.176C397.558 59.384 398.71 57.5493 399.904 55.672C401.056 53.8373 402.166 52.0667 403.233 50.36C404.811 47.8427 406.433 45.3253 408.097 42.808C409.761 40.248 411.318 37.88 412.769 35.704ZM454.332 37.24C454.246 37.368 453.969 37.7093 453.5 38.264C453.03 38.776 452.476 39.3733 451.836 40.056C451.238 40.696 450.62 41.3573 449.98 42.04C449.34 42.68 448.806 43.192 448.38 43.576C447.91 43.96 447.356 44.4293 446.716 44.984C446.118 45.5387 445.478 46.072 444.796 46.584C444.156 47.096 443.494 47.544 442.812 47.928C442.129 48.2693 441.532 48.44 441.02 48.44C440.252 48.44 439.697 48.056 439.356 47.288C439.014 46.52 438.844 45.5813 438.844 44.472C438.844 43.9173 438.908 43.2347 439.036 42.424C439.206 41.6133 439.334 41.1227 439.42 40.952C439.462 40.824 439.441 40.7173 439.356 40.632C439.313 40.5467 439.249 40.504 439.164 40.504C439.121 40.504 438.886 40.6747 438.46 41.016C438.076 41.3573 437.585 41.784 436.988 42.296C436.433 42.7653 435.814 43.2987 435.132 43.896C434.492 44.4507 433.894 44.984 433.34 45.496C432.785 46.008 432.102 46.6267 431.292 47.352C430.524 48.0347 429.756 48.696 428.988 49.336C428.22 49.9333 427.516 50.4667 426.876 50.936C426.236 51.3627 425.766 51.576 425.468 51.576C425.041 51.576 424.678 51.32 424.38 50.808C424.123 50.296 423.995 49.72 423.995 49.08C423.995 48.0133 424.252 46.776 424.764 45.368C425.276 43.96 425.937 42.5093 426.748 41.016C427.601 39.5227 428.561 38.072 429.628 36.664C430.737 35.2133 431.868 33.9333 433.02 32.824C434.214 31.672 435.409 30.7547 436.604 30.072C437.798 29.3467 438.908 28.984 439.932 28.984C440.785 28.984 441.489 29.2187 442.044 29.688C442.641 30.1573 442.94 30.8827 442.94 31.864C442.94 32.12 442.854 32.4827 442.684 32.952C442.556 33.3787 442.364 33.8693 442.108 34.424C441.894 34.936 441.638 35.4693 441.34 36.024C441.041 36.5787 440.764 37.0693 440.508 37.496C440.934 37.2827 441.254 37.176 441.468 37.176C441.98 37.176 442.385 37.304 442.684 37.56C443.025 37.816 443.196 38.2427 443.196 38.84C443.196 39.224 443.11 39.6933 442.94 40.248C442.769 40.76 442.577 41.3147 442.364 41.912C442.15 42.4667 441.958 43.0213 441.788 43.576C441.617 44.1307 441.532 44.6213 441.532 45.048C441.532 45.3893 441.574 45.688 441.66 45.944C441.788 46.2 442.022 46.328 442.364 46.328C442.833 46.328 443.601 45.9013 444.668 45.048C445.734 44.1947 446.865 43.2133 448.06 42.104C448.7 41.464 449.34 40.824 449.98 40.184C450.62 39.5013 451.217 38.8827 451.772 38.328C452.326 37.7733 452.796 37.2827 453.18 36.856C453.564 36.4293 453.841 36.1093 454.012 35.896C454.14 35.896 454.268 36.0027 454.396 36.216C454.566 36.4293 454.545 36.7707 454.332 37.24ZM441.596 31.8C441.596 31.416 441.404 31.224 441.02 31.224C440.593 31.224 439.953 31.5227 439.1 32.12C438.246 32.7173 437.286 33.5067 436.22 34.488C435.153 35.4267 434.065 36.5147 432.956 37.752C431.846 38.9893 430.822 40.2267 429.884 41.464C428.646 43.0853 427.686 44.536 427.004 45.816C426.321 47.096 425.98 48.0773 425.98 48.76C425.98 49.1867 426.044 49.4 426.172 49.4C426.3 49.4 426.662 49.1867 427.26 48.76C427.9 48.2907 428.625 47.736 429.436 47.096C430.289 46.4133 431.164 45.688 432.06 44.92C432.956 44.1093 433.766 43.384 434.492 42.744C435.26 42.0613 436.006 41.3787 436.732 40.696C437.457 40.0133 438.14 39.3947 438.78 38.84C438.481 38.7547 438.225 38.648 438.012 38.52C437.798 38.392 437.692 38.2853 437.692 38.2C437.692 38.1147 437.777 38.008 437.948 37.88C438.118 37.7093 438.289 37.5173 438.46 37.304C438.545 37.2187 438.758 36.92 439.1 36.408C439.441 35.8533 439.782 35.2773 440.124 34.68C440.508 34.04 440.849 33.4427 441.148 32.888C441.446 32.3333 441.596 31.9707 441.596 31.8ZM468.117 32.184C468.117 33.9333 467.733 35.6187 466.965 37.24C466.197 38.8613 465.322 40.3333 464.341 41.656C463.36 42.9787 462.421 44.0667 461.525 44.92C460.672 45.7733 460.138 46.264 459.925 46.392C460.565 46.7333 461.056 47.224 461.397 47.864C461.738 48.4613 461.909 49.08 461.909 49.72C461.909 51.0853 461.568 52.6853 460.885 54.52C461.226 54.4773 461.546 54.456 461.845 54.456C462.144 54.456 462.378 54.456 462.549 54.456C463.104 54.456 463.381 54.7333 463.381 55.288C463.381 55.6293 463.061 55.8 462.421 55.8C462.165 55.8 461.888 55.7787 461.589 55.736C461.333 55.736 461.077 55.736 460.821 55.736H460.309C459.37 57.6987 458.112 59.7253 456.533 61.816C454.954 63.9067 453.141 65.9333 451.093 67.896C449.045 69.9013 446.826 71.8 444.437 73.592C442.048 75.384 439.594 76.9413 437.077 78.264C434.56 79.6293 432.042 80.696 429.525 81.464C427.008 82.2747 424.597 82.68 422.293 82.68C421.312 82.68 420.416 82.36 419.605 81.72C418.794 81.08 418.389 80.1627 418.389 78.968C418.389 77.0907 419.072 75.192 420.437 73.272C421.802 71.3947 423.594 69.56 425.813 67.768C428.032 66.0187 430.549 64.3547 433.365 62.776C436.138 61.1973 438.954 59.8107 441.813 58.616C444.629 57.464 447.36 56.5253 450.005 55.8C452.693 55.0747 454.997 54.6693 456.917 54.584C457.088 54.2 457.322 53.5387 457.621 52.6C457.92 51.704 458.069 50.6373 458.069 49.4C458.069 48.76 457.92 48.312 457.621 48.056C457.152 48.3973 456.426 48.76 455.445 49.144C454.464 49.528 453.354 49.72 452.117 49.72C451.392 49.72 450.752 49.5707 450.197 49.272C449.685 48.9307 449.429 48.4613 449.429 47.864C449.429 47.1813 449.834 46.6053 450.645 46.136C451.456 45.6667 452.97 45.432 455.189 45.432C455.701 45.432 456.277 45.4747 456.917 45.56C457.557 45.6027 458.069 45.6667 458.453 45.752C458.666 45.5813 459.178 45.0907 459.989 44.28C460.842 43.4267 461.717 42.4027 462.613 41.208C463.509 40.0133 464.298 38.712 464.981 37.304C465.706 35.896 466.069 34.5093 466.069 33.144C466.069 32.6747 465.962 32.312 465.749 32.056C465.536 31.8 465.13 31.672 464.533 31.672C463.808 31.672 462.912 31.9707 461.845 32.568C460.821 33.1653 459.776 33.8693 458.709 34.68C457.642 35.448 456.64 36.2587 455.701 37.112C454.805 37.9653 454.122 38.648 453.653 39.16C453.44 39.3733 453.12 39.3093 452.693 38.968C452.266 38.584 452.053 37.9227 452.053 36.984C452.053 36.472 452.565 35.7893 453.589 34.936C454.613 34.0827 455.829 33.2507 457.237 32.44C458.645 31.5867 460.053 30.8613 461.461 30.264C462.912 29.6667 464.042 29.368 464.853 29.368C465.92 29.368 466.73 29.624 467.285 30.136C467.84 30.648 468.117 31.3307 468.117 32.184ZM456.405 47.288C455.936 47.1173 455.36 46.9893 454.677 46.904C453.994 46.8187 453.397 46.776 452.885 46.776C452.416 46.776 451.946 46.84 451.477 46.968C451.05 47.096 450.837 47.3307 450.837 47.672C450.837 47.9707 451.029 48.184 451.413 48.312C451.84 48.3973 452.33 48.4187 452.885 48.376C453.482 48.3333 454.101 48.2267 454.741 48.056C455.381 47.8427 455.936 47.5867 456.405 47.288ZM456.341 55.928C454.08 56.1413 451.605 56.6533 448.917 57.464C446.229 58.3173 443.562 59.3627 440.917 60.6C438.229 61.8373 435.648 63.2027 433.173 64.696C430.698 66.232 428.522 67.8107 426.645 69.432C424.725 71.0533 423.189 72.6533 422.037 74.232C420.885 75.8533 420.309 77.3467 420.309 78.712C420.309 79.352 420.522 79.928 420.949 80.44C421.333 80.952 421.888 81.208 422.613 81.208C424.448 81.208 426.432 80.8453 428.565 80.12C430.656 79.3947 432.81 78.4133 435.029 77.176C437.205 75.9387 439.381 74.488 441.557 72.824C443.69 71.16 445.696 69.3893 447.573 67.512C449.493 65.6347 451.2 63.6933 452.693 61.688C454.229 59.7253 455.445 57.8053 456.341 55.928ZM504.933 31.864C504.933 32.888 504.869 33.8693 504.741 34.808C504.655 35.7467 504.506 36.6427 504.293 37.496H507.685C508.325 36.4293 508.965 35.384 509.605 34.36C510.287 33.336 510.906 32.44 511.461 31.672C512.058 30.8613 512.57 30.2213 512.997 29.752C513.466 29.2827 513.765 29.0267 513.893 28.984C514.277 28.984 514.511 29.304 514.597 29.944C514.639 30.2427 514.575 30.7333 514.405 31.416C514.277 32.056 514.085 32.568 513.829 32.952C513.701 33.1227 513.21 33.592 512.357 34.36C511.503 35.0853 510.671 36.088 509.861 37.368C509.775 37.4533 509.733 37.5173 509.733 37.56C510.245 37.6027 510.735 37.6453 511.205 37.688C511.717 37.688 512.165 37.7307 512.549 37.816C513.317 36.664 514.149 35.576 515.045 34.552C515.941 33.528 516.837 32.6533 517.733 31.928C518.629 31.2027 519.482 30.6267 520.293 30.2C521.103 29.7733 521.786 29.56 522.341 29.56C522.682 29.56 523.045 29.7093 523.429 30.008C523.855 30.3067 524.239 30.6693 524.581 31.096C524.922 31.5227 525.199 31.9707 525.413 32.44C525.669 32.8667 525.797 33.208 525.797 33.464C525.797 34.3173 525.541 34.936 525.029 35.32C524.517 35.704 524.09 35.896 523.749 35.896C523.621 35.896 523.557 35.7467 523.557 35.448C523.557 35.2347 523.599 34.9787 523.685 34.68C523.77 34.3813 523.812 34.104 523.812 33.848V33.08C523.812 32.8667 523.642 32.76 523.301 32.76C522.831 32.76 522.298 32.9307 521.701 33.272C521.103 33.5707 520.485 33.9973 519.845 34.552C519.205 35.1067 518.543 35.768 517.861 36.536C517.178 37.2613 516.559 38.072 516.005 38.968C516.047 38.968 516.069 38.9893 516.069 39.032C516.111 39.032 516.154 39.032 516.197 39.032V39.096C516.666 39.352 517.05 39.5653 517.349 39.736C517.69 39.9067 517.925 40.0773 518.053 40.248C518.095 40.3333 518.074 40.4613 517.989 40.632C517.903 40.8027 517.797 40.9307 517.669 41.016C517.583 40.888 517.327 40.7387 516.901 40.568C516.517 40.3547 516.026 40.1413 515.429 39.928H515.365C514.725 41.0373 514.191 42.1893 513.765 43.384C513.381 44.536 513.189 45.6667 513.189 46.776C513.189 47.6293 513.381 48.312 513.765 48.824C514.191 49.2933 514.746 49.528 515.429 49.528C515.983 49.528 516.623 49.3573 517.349 49.016C518.117 48.6747 518.927 48.2267 519.781 47.672C520.634 47.0747 521.509 46.4133 522.405 45.688C523.343 44.92 524.261 44.1307 525.157 43.32C526.693 41.8693 528.122 40.44 529.445 39.032C530.767 37.624 531.727 36.5147 532.325 35.704C532.709 35.704 532.943 35.896 533.029 36.28C533.157 36.6213 533.114 36.9627 532.901 37.304C532.175 38.2 531.194 39.3307 529.957 40.696C528.719 42.0187 527.354 43.3627 525.861 44.728C524.922 45.5813 523.962 46.4133 522.981 47.224C522.042 48.0347 521.103 48.7387 520.165 49.336C519.226 49.9333 518.33 50.424 517.477 50.808C516.623 51.1493 515.834 51.32 515.109 51.32C513.573 51.32 512.314 50.872 511.333 49.976C510.351 49.08 509.861 47.736 509.861 45.944C509.861 44.792 510.031 43.64 510.373 42.488C510.757 41.2933 511.247 40.1413 511.845 39.032C511.375 38.9893 510.885 38.968 510.373 38.968C509.903 38.9253 509.413 38.904 508.901 38.904C507.706 40.824 506.703 42.5733 505.893 44.152C505.082 45.688 504.634 46.712 504.549 47.224L504.677 47.288C504.719 47.2027 504.847 47.032 505.061 46.776C505.317 46.52 505.573 46.2427 505.829 45.944C506.085 45.6453 506.319 45.368 506.533 45.112C506.789 44.8133 506.981 44.6 507.109 44.472C507.407 44.472 507.557 44.5787 507.557 44.792C507.258 45.0907 506.895 45.5813 506.469 46.264C506.042 46.904 505.594 47.5653 505.125 48.248C504.698 48.9307 504.293 49.5493 503.909 50.104C503.525 50.616 503.269 50.872 503.141 50.872C502.927 50.9573 502.714 50.9573 502.501 50.872C502.33 50.744 502.223 50.5093 502.181 50.168C502.138 49.8267 502.202 49.2933 502.373 48.568C502.586 47.8 502.906 46.904 503.333 45.88C503.759 44.856 504.271 43.7467 504.869 42.552C505.466 41.3573 506.127 40.1413 506.853 38.904C506.298 38.9467 505.765 38.9893 505.253 39.032C504.783 39.032 504.314 39.032 503.845 39.032C503.247 40.9093 502.458 42.5947 501.477 44.088C500.538 45.5387 499.557 46.7973 498.533 47.864C497.509 48.888 496.506 49.6773 495.525 50.232C494.543 50.7867 493.733 51.064 493.093 51.064C492.751 51.064 492.389 50.9147 492.005 50.616C491.621 50.3173 491.258 49.9547 490.917 49.528C490.618 49.1013 490.362 48.6747 490.149 48.248C489.935 47.7787 489.829 47.416 489.829 47.16C489.871 46.3067 490.149 45.688 490.661 45.304C491.215 44.92 491.663 44.728 492.005 44.728C492.133 44.728 492.197 44.8773 492.197 45.176C492.154 45.3893 492.09 45.6453 492.005 45.944C491.919 46.2427 491.855 46.52 491.812 46.776V47.544C491.812 47.7573 491.983 47.864 492.325 47.864C492.837 47.864 493.477 47.6507 494.245 47.224C495.013 46.7973 495.802 46.2 496.613 45.432C497.466 44.664 498.277 43.768 499.045 42.744C499.855 41.6773 500.559 40.5253 501.157 39.288C500.09 39.416 499.151 39.544 498.341 39.672C497.573 39.7573 497.018 39.7147 496.677 39.544C495.738 39.288 495.375 38.8613 495.589 38.264C495.717 37.624 496.015 37.3893 496.485 37.56C496.698 37.6453 496.869 37.752 496.997 37.88C497.125 38.008 497.317 38.0933 497.573 38.136C497.701 38.2213 498.149 38.2213 498.917 38.136C499.727 38.008 500.709 37.88 501.861 37.752C502.159 36.9413 502.394 36.1307 502.565 35.32C502.735 34.5093 502.821 33.6773 502.821 32.824C502.863 32.3547 502.778 31.992 502.565 31.736C502.351 31.48 501.946 31.352 501.349 31.352C500.623 31.352 499.727 31.6293 498.661 32.184C497.594 32.696 496.506 33.3147 495.397 34.04C494.33 34.7653 493.306 35.5333 492.325 36.344C491.386 37.112 490.682 37.752 490.213 38.264C489.999 38.4773 489.679 38.4133 489.253 38.072C488.826 37.688 488.634 37.0267 488.677 36.088C488.719 35.576 489.274 34.936 490.341 34.168C491.407 33.3573 492.645 32.568 494.053 31.8C495.503 31.032 496.954 30.392 498.405 29.88C499.855 29.3253 500.986 29.048 501.797 29.048C502.863 29.048 503.631 29.304 504.101 29.816C504.613 30.328 504.89 31.0107 504.933 31.864ZM550.348 47.224C550.348 47.2667 550.177 47.4587 549.836 47.8C549.751 47.8853 549.601 48.0987 549.388 48.44C549.175 48.7387 548.919 49.0587 548.62 49.4C548.321 49.6987 548.023 49.976 547.724 50.232C547.425 50.488 547.148 50.616 546.892 50.616C546.167 50.616 545.527 50.1893 544.972 49.336C544.417 48.44 544.14 47.416 544.14 46.264C544.14 45.0267 544.268 44.024 544.524 43.256C544.823 42.488 545.057 41.9547 545.228 41.656L545.1 41.528C545.015 41.6133 544.695 41.9333 544.14 42.488C543.628 43 542.967 43.64 542.156 44.408C541.388 45.1333 540.513 45.944 539.532 46.84C538.593 47.6933 537.655 48.4827 536.716 49.208C535.82 49.9333 534.967 50.5307 534.156 51C533.345 51.4693 532.705 51.704 532.236 51.704C531.895 51.704 531.511 51.6187 531.084 51.448C530.7 51.2773 530.337 51.064 529.996 50.808C529.655 50.552 529.377 50.2747 529.164 49.976C528.951 49.6347 528.844 49.2933 528.844 48.952C528.844 47.9707 529.1 46.6693 529.612 45.048C530.167 43.384 530.807 41.7413 531.532 40.12C531.959 39.224 532.407 38.3707 532.876 37.56C533.345 36.7493 533.793 36.0453 534.22 35.448C534.689 34.8507 535.137 34.3813 535.564 34.04C535.991 33.656 536.375 33.464 536.716 33.464C537.015 33.464 537.356 33.7413 537.74 34.296C538.124 34.808 538.316 35.2347 538.316 35.576C538.316 35.7467 538.295 35.8533 538.252 35.896C537.911 36.3653 537.441 37.112 536.844 38.136C536.289 39.16 535.713 40.248 535.116 41.4C534.561 42.552 534.071 43.6827 533.644 44.792C533.217 45.8587 533.004 46.6907 533.004 47.288C533.004 47.5867 533.047 47.9067 533.132 48.248C533.26 48.5467 533.495 48.696 533.836 48.696C534.092 48.696 534.455 48.568 534.924 48.312C535.436 48.056 535.991 47.7147 536.588 47.288C537.228 46.8613 537.889 46.3707 538.572 45.816C539.297 45.2187 540.023 44.5787 540.748 43.896C541.857 42.8293 542.86 41.7627 543.756 40.696C544.695 39.5867 545.463 38.712 546.06 38.072C546.316 37.8587 546.529 37.688 546.7 37.56C546.871 37.3893 547.02 37.304 547.148 37.304C547.703 37.304 548.172 37.6453 548.556 38.328C548.94 39.0107 549.132 39.6933 549.132 40.376C549.132 41.4 548.94 42.3387 548.556 43.192C548.172 44.0453 547.98 44.984 547.98 46.008C547.98 46.52 548.257 46.84 548.812 46.968C549.367 47.0533 549.793 47.096 550.092 47.096C550.263 47.096 550.348 47.1387 550.348 47.224ZM572.68 32.184C572.68 33.9333 572.296 35.6187 571.528 37.24C570.76 38.8613 569.885 40.3333 568.904 41.656C567.922 42.9787 566.984 44.0667 566.088 44.92C565.234 45.7733 564.701 46.264 564.488 46.392C565.128 46.7333 565.618 47.224 565.96 47.864C566.301 48.4613 566.472 49.08 566.472 49.72C566.472 51.0853 566.13 52.6853 565.448 54.52C565.789 54.4773 566.109 54.456 566.408 54.456C566.706 54.456 566.941 54.456 567.112 54.456C567.666 54.456 567.944 54.7333 567.944 55.288C567.944 55.6293 567.624 55.8 566.984 55.8C566.728 55.8 566.45 55.7787 566.152 55.736C565.896 55.736 565.64 55.736 565.384 55.736H564.872C563.933 57.6987 562.674 59.7253 561.095 61.816C559.517 63.9067 557.704 65.9333 555.656 67.896C553.608 69.9013 551.389 71.8 548.999 73.592C546.61 75.384 544.157 76.9413 541.639 78.264C539.122 79.6293 536.605 80.696 534.087 81.464C531.57 82.2747 529.159 82.68 526.855 82.68C525.874 82.68 524.978 82.36 524.167 81.72C523.357 81.08 522.951 80.1627 522.951 78.968C522.951 77.0907 523.634 75.192 524.999 73.272C526.365 71.3947 528.157 69.56 530.375 67.768C532.594 66.0187 535.111 64.3547 537.927 62.776C540.701 61.1973 543.517 59.8107 546.375 58.616C549.191 57.464 551.922 56.5253 554.568 55.8C557.256 55.0747 559.56 54.6693 561.48 54.584C561.65 54.2 561.885 53.5387 562.184 52.6C562.482 51.704 562.632 50.6373 562.632 49.4C562.632 48.76 562.482 48.312 562.184 48.056C561.714 48.3973 560.989 48.76 560.008 49.144C559.026 49.528 557.917 49.72 556.68 49.72C555.954 49.72 555.314 49.5707 554.76 49.272C554.248 48.9307 553.992 48.4613 553.992 47.864C553.992 47.1813 554.397 46.6053 555.208 46.136C556.018 45.6667 557.533 45.432 559.752 45.432C560.264 45.432 560.84 45.4747 561.48 45.56C562.12 45.6027 562.632 45.6667 563.016 45.752C563.229 45.5813 563.741 45.0907 564.552 44.28C565.405 43.4267 566.28 42.4027 567.176 41.208C568.072 40.0133 568.861 38.712 569.544 37.304C570.269 35.896 570.632 34.5093 570.632 33.144C570.632 32.6747 570.525 32.312 570.312 32.056C570.098 31.8 569.693 31.672 569.096 31.672C568.37 31.672 567.474 31.9707 566.408 32.568C565.384 33.1653 564.338 33.8693 563.272 34.68C562.205 35.448 561.202 36.2587 560.264 37.112C559.368 37.9653 558.685 38.648 558.216 39.16C558.002 39.3733 557.682 39.3093 557.256 38.968C556.829 38.584 556.616 37.9227 556.616 36.984C556.616 36.472 557.128 35.7893 558.152 34.936C559.176 34.0827 560.392 33.2507 561.8 32.44C563.208 31.5867 564.616 30.8613 566.024 30.264C567.474 29.6667 568.605 29.368 569.416 29.368C570.482 29.368 571.293 29.624 571.848 30.136C572.402 30.648 572.68 31.3307 572.68 32.184ZM560.968 47.288C560.498 47.1173 559.922 46.9893 559.24 46.904C558.557 46.8187 557.96 46.776 557.448 46.776C556.978 46.776 556.509 46.84 556.04 46.968C555.613 47.096 555.4 47.3307 555.4 47.672C555.4 47.9707 555.592 48.184 555.976 48.312C556.402 48.3973 556.893 48.4187 557.448 48.376C558.045 48.3333 558.664 48.2267 559.304 48.056C559.944 47.8427 560.498 47.5867 560.968 47.288ZM560.904 55.928C558.642 56.1413 556.168 56.6533 553.48 57.464C550.792 58.3173 548.125 59.3627 545.479 60.6C542.791 61.8373 540.21 63.2027 537.735 64.696C535.261 66.232 533.085 67.8107 531.207 69.432C529.287 71.0533 527.751 72.6533 526.599 74.232C525.447 75.8533 524.871 77.3467 524.871 78.712C524.871 79.352 525.085 79.928 525.511 80.44C525.895 80.952 526.45 81.208 527.175 81.208C529.01 81.208 530.994 80.8453 533.127 80.12C535.218 79.3947 537.373 78.4133 539.591 77.176C541.767 75.9387 543.943 74.488 546.119 72.824C548.253 71.16 550.258 69.3893 552.136 67.512C554.056 65.6347 555.762 63.6933 557.256 61.688C558.792 59.7253 560.008 57.8053 560.904 55.928ZM594.686 44.92C594.345 45.2613 593.939 45.624 593.47 46.008C593.043 46.392 592.595 46.776 592.126 47.16C591.657 47.544 591.251 47.8427 590.91 48.056C590.227 48.4827 589.395 48.9733 588.414 49.528C587.475 50.04 586.515 50.296 585.534 50.296C584.894 50.296 584.318 50.1253 583.806 49.784C583.294 49.4427 582.974 48.8027 582.846 47.864C582.718 47.0533 582.846 46.072 583.23 44.92C583.614 43.7253 584.062 42.5947 584.574 41.528L584.702 41.272C584.446 41.2293 584.169 41.1867 583.87 41.144C583.017 41.0587 582.121 41.016 581.182 41.016C580.243 41.016 579.326 41.0373 578.43 41.08C578.046 41.1227 577.683 41.144 577.342 41.144C576.617 42.3387 575.934 43.4693 575.294 44.536C574.355 46.072 573.523 47.4373 572.798 48.632C572.115 49.8267 571.646 50.6587 571.39 51.128C571.305 51.128 571.134 51.064 570.878 50.936C570.622 50.808 570.345 50.6587 570.046 50.488C569.747 50.2747 569.47 50.0613 569.214 49.848C568.958 49.6347 568.83 49.4427 568.83 49.272C568.83 49.144 569.129 48.5467 569.726 47.48C570.323 46.4133 571.091 45.1333 572.03 43.64C572.457 43 572.862 42.36 573.246 41.72L572.926 41.784C571.987 41.9547 571.305 41.9333 570.878 41.72C570.025 41.464 569.641 40.9947 569.726 40.312C569.726 39.6293 569.961 39.3733 570.43 39.544C570.643 39.6293 570.814 39.7573 570.942 39.928C571.07 40.056 571.241 40.1413 571.454 40.184C571.625 40.2693 572.222 40.2267 573.246 40.056C573.63 39.9707 574.035 39.9067 574.462 39.864C574.718 39.48 574.953 39.1173 575.166 38.776C576.318 37.0693 577.406 35.4907 578.43 34.04C579.454 32.5467 580.329 31.3307 581.054 30.392C581.822 29.4107 582.313 28.92 582.526 28.92C582.867 28.92 583.187 29.0907 583.486 29.432C583.785 29.7307 583.955 30.008 583.998 30.264C583.998 30.3067 583.721 30.7973 583.166 31.736C582.611 32.632 581.907 33.784 581.054 35.192L578.366 39.48H579.07C579.838 39.48 580.627 39.5013 581.438 39.544C582.249 39.5867 583.017 39.6507 583.742 39.736C584.382 39.8213 584.915 39.928 585.342 40.056C585.598 39.5867 585.854 39.1387 586.11 38.712C586.579 37.9013 586.857 37.432 586.942 37.304C587.326 36.8347 587.475 36.3653 587.39 35.896C587.39 35.6827 587.454 35.4053 587.582 35.064C587.71 34.7227 587.902 34.4027 588.158 34.104C588.414 33.7627 588.713 33.4853 589.054 33.272C589.395 33.0587 589.758 32.952 590.142 32.952C590.654 32.952 591.102 33.1013 591.486 33.4C591.87 33.656 592.083 33.9333 592.126 34.232C592.169 34.5733 592.169 35.0853 592.126 35.768C592.126 36.4507 592.019 36.9413 591.806 37.24C591.678 37.368 591.443 37.6667 591.102 38.136C590.761 38.6053 590.377 39.1387 589.95 39.736C589.523 40.2907 589.097 40.8667 588.67 41.464C588.243 42.0613 587.902 42.552 587.646 42.936C587.091 43.7467 586.558 44.6 586.046 45.496C585.577 46.392 585.385 47.096 585.47 47.608C585.47 47.7787 585.534 47.9707 585.662 48.184C585.833 48.3547 586.046 48.44 586.302 48.44C586.857 48.44 587.539 48.248 588.35 47.864C589.203 47.4373 590.057 46.9467 590.91 46.392C591.721 45.8373 592.467 45.304 593.15 44.792C593.875 44.2373 594.409 43.7893 594.75 43.448C595.091 43.448 595.305 43.704 595.39 44.216L594.686 44.92ZM616.348 47.224C616.348 47.2667 616.177 47.4587 615.836 47.8C615.751 47.8853 615.601 48.0987 615.388 48.44C615.175 48.7387 614.919 49.0587 614.62 49.4C614.321 49.6987 614.023 49.976 613.724 50.232C613.425 50.488 613.148 50.616 612.892 50.616C612.167 50.616 611.527 50.1893 610.972 49.336C610.417 48.44 610.14 47.416 610.14 46.264C610.14 45.0267 610.268 44.024 610.524 43.256C610.823 42.488 611.057 41.9547 611.228 41.656L611.1 41.528C611.015 41.6133 610.695 41.9333 610.14 42.488C609.628 43 608.967 43.64 608.156 44.408C607.388 45.1333 606.513 45.944 605.532 46.84C604.593 47.6933 603.655 48.4827 602.716 49.208C601.82 49.9333 600.967 50.5307 600.156 51C599.345 51.4693 598.705 51.704 598.236 51.704C597.895 51.704 597.511 51.6187 597.084 51.448C596.7 51.2773 596.337 51.064 595.996 50.808C595.655 50.552 595.377 50.2747 595.164 49.976C594.951 49.6347 594.844 49.2933 594.844 48.952C594.844 47.9707 595.1 46.6693 595.612 45.048C596.167 43.384 596.807 41.7413 597.532 40.12C597.959 39.224 598.407 38.3707 598.876 37.56C599.345 36.7493 599.793 36.0453 600.22 35.448C600.689 34.8507 601.137 34.3813 601.564 34.04C601.991 33.656 602.375 33.464 602.716 33.464C603.015 33.464 603.356 33.7413 603.74 34.296C604.124 34.808 604.316 35.2347 604.316 35.576C604.316 35.7467 604.295 35.8533 604.252 35.896C603.911 36.3653 603.441 37.112 602.844 38.136C602.289 39.16 601.713 40.248 601.116 41.4C600.561 42.552 600.071 43.6827 599.644 44.792C599.217 45.8587 599.004 46.6907 599.004 47.288C599.004 47.5867 599.047 47.9067 599.132 48.248C599.26 48.5467 599.495 48.696 599.836 48.696C600.092 48.696 600.455 48.568 600.924 48.312C601.436 48.056 601.991 47.7147 602.588 47.288C603.228 46.8613 603.889 46.3707 604.572 45.816C605.297 45.2187 606.023 44.5787 606.748 43.896C607.857 42.8293 608.86 41.7627 609.756 40.696C610.695 39.5867 611.463 38.712 612.06 38.072C612.316 37.8587 612.529 37.688 612.7 37.56C612.871 37.3893 613.02 37.304 613.148 37.304C613.703 37.304 614.172 37.6453 614.556 38.328C614.94 39.0107 615.132 39.6933 615.132 40.376C615.132 41.4 614.94 42.3387 614.556 43.192C614.172 44.0453 613.98 44.984 613.98 46.008C613.98 46.52 614.257 46.84 614.812 46.968C615.367 47.0533 615.793 47.096 616.092 47.096C616.263 47.096 616.348 47.1387 616.348 47.224Z" fill="white"/>
</svg>
