<svg width="21" height="19" viewBox="0 0 21 19" fill="none" xmlns="http://www.w3.org/2000/svg">
    <path d="M18.5769 4.03847H17.7692V2.42308C17.7692 1.08716 16.682 0 15.3461 0H2.42308C1.08716 0 0 1.08716 0 2.42308V12.9231C0 14.259 1.08716 15.3461 2.42308 15.3461H4.03847V16.1538C4.03847 17.4897 5.12563 18.5769 6.46155 18.5769H18.5769C19.9128 18.5769 21 17.4897 21 16.1538V6.46155C21 5.12563 19.9128 4.03847 18.5769 4.03847ZM2.42308 13.7308C1.97806 13.7308 1.6154 13.3689 1.6154 12.9231V2.42312C1.6154 1.97728 1.97806 1.61544 2.42308 1.61544H15.3461C15.7911 1.61544 16.1538 1.97728 16.1538 2.42312V12.9231C16.1538 13.3689 15.7911 13.7308 15.3461 13.7308H2.42308ZM19.3846 16.1539C19.3846 16.5997 19.0219 16.9615 18.5769 16.9615H6.46151C6.01649 16.9615 5.65383 16.5997 5.65383 16.1539V15.3462H15.3461C16.682 15.3462 17.7692 14.259 17.7692 12.9231V5.65387H18.5769C19.0219 5.65387 19.3846 6.01571 19.3846 6.46155V16.1539Z" fill="#293238"/>
    <path d="M8.88458 0H0.807678C0.361839 0 0 0.361019 0 0.807678C0 1.25434 0.361839 1.61536 0.807678 1.61536H8.88458C9.33042 1.61536 9.69226 1.25434 9.69226 0.807678C9.69226 0.36106 9.33042 0 8.88458 0Z" transform="translate(4.03845 4.84619)" fill="#293238"/>
    <path d="M5.65383 0H0.807678C0.361839 0 0 0.361019 0 0.807678C0 1.25434 0.361839 1.61536 0.807678 1.61536H5.65383C6.09967 1.61536 6.46151 1.25434 6.46151 0.807678C6.46155 0.361019 6.09971 0 5.65383 0Z" transform="translate(5.65381 8.88452)" fill="#293238"/>
</svg>