<svg width="10" height="11" viewBox="0 0 10 11" fill="none" xmlns="http://www.w3.org/2000/svg">
<path fill-rule="evenodd" clip-rule="evenodd" d="M10 1C10 1.55225 9.55225 2 9 2C8.44775 2 8 1.55225 8 1C8 0.447754 8.44775 0 9 0C9.55225 0 10 0.447754 10 1ZM6 5C6 5.55225 5.55225 6 5 6C4.44775 6 4 5.55225 4 5C4 4.44775 4.44775 4 5 4C5.55225 4 6 4.44775 6 5ZM9 7C9.55225 7 10 6.55225 10 6C10 5.44775 9.55225 5 9 5C8.44775 5 8 5.44775 8 6C8 6.55225 8.44775 7 9 7ZM6 10C6 10.5522 5.55225 11 5 11C4.44775 11 4 10.5522 4 10C4 9.44775 4.44775 9 5 9C5.55225 9 6 9.44775 6 10ZM1 10C1.55225 10 2 9.55225 2 9C2 8.44775 1.55225 8 1 8C0.447754 8 0 8.44775 0 9C0 9.55225 0.447754 10 1 10Z" fill="#C4C4C4"/>
</svg>