<svg width="32" height="32" viewBox="0 0 32 32" fill="none" xmlns="http://www.w3.org/2000/svg">
<g id="&#208;&#146; &#209;&#129;&#208;&#190;&#208;&#187;&#208;&#189;&#208;&#181;&#209;&#135;&#208;&#189;&#208;&#190;&#208;&#188; &#208;&#188;&#208;&#181;&#209;&#129;&#209;&#130;&#208;&#181;">
<g clip-path="url(#clip0_367_7181)">
<circle id="Ellipse 18" cx="16" cy="16" r="6.5" stroke="#24282E"/>
<path id="Subtract" fill-rule="evenodd" clip-rule="evenodd" d="M32 16.3532L38.9946 16.5034C38.9982 16.3361 39 16.1682 39 16C39 15.8318 38.9982 15.6639 38.9946 15.4966L32 15.6468V16.3532ZM29 16.2888V15.7112L23.9981 15.8186C23.9993 15.8787 24 15.9391 24 16C24 16.0609 23.9993 16.1213 23.9981 16.1814L29 16.2888ZM32 12.0787L38.3458 10.531C38.2663 10.205 38.1799 9.88175 38.0866 9.56137L32 11.3327V12.0787ZM29 12.2058V12.8104L23.773 14.0853C23.7457 13.9734 23.7161 13.8626 23.6841 13.7528L29 12.2058ZM32 7.22723L36.1686 4.93544C36.0073 4.64195 35.8397 4.35236 35.6661 4.06685L32 6.29615V7.22723ZM29 8.12042V8.87654L23.0241 12.1619C22.9682 12.0602 22.91 11.9597 22.8496 11.8604L29 8.12042ZM32 0.683542L32.6144 0.0952034C32.383 -0.146438 32.1464 -0.38304 31.9048 -0.614424L31.3165 0H32V0.683542ZM28.4438 3H29V3.55619L27.1974 5.28228L21.7804 10.4694C21.6989 10.3843 21.6157 10.3011 21.5306 10.2196L26.7177 4.80261L28.4438 3ZM25.7038 0L27.9331 -3.66607C27.6476 -3.83969 27.358 -4.00726 27.0646 -4.16862L24.7728 0H25.7038ZM23.1235 3H23.8796L20.1396 9.15036C20.0403 9.08997 19.9398 9.03181 19.8381 8.9759L23.1235 3ZM20.6673 0L22.4386 -6.08663C22.1182 -6.17987 21.795 -6.26632 21.469 -6.34583L19.9213 0H20.6673ZM19.1896 3H19.7942L18.2472 8.31586C18.1374 8.28392 18.0266 8.25428 17.9147 8.22699L19.1896 3ZM16.3532 0L16.5034 -6.9946C16.3361 -6.99819 16.1682 -7 16 -7C15.8318 -7 15.6639 -6.99819 15.4966 -6.9946L15.6468 0H16.3532ZM15.7112 3H16.2888L16.1814 8.00194C16.1213 8.00065 16.0609 8 16 8C15.9391 8 15.8787 8.00065 15.8186 8.00194L15.7112 3ZM12.0787 0L10.531 -6.34583C10.205 -6.26632 9.88175 -6.17987 9.56137 -6.08663L11.3327 0H12.0787ZM12.2058 3H12.8104L14.0853 8.22699C13.9734 8.25428 13.8626 8.28392 13.7528 8.31586L12.2058 3ZM7.22723 0L4.93544 -4.16861C4.64195 -4.00726 4.35236 -3.83969 4.06685 -3.66607L6.29615 0H7.22723ZM8.12042 3H8.87654L12.1619 8.9759C12.0602 9.03181 11.9597 9.08997 11.8604 9.15036L8.12042 3ZM0.683542 0L0.0952034 -0.614422C-0.146438 -0.383039 -0.38304 -0.146436 -0.614424 0.0952058L0 0.683547V0H0.683542ZM3 3.55619V3H3.55619L5.28228 4.80261L10.4694 10.2196C10.3843 10.3011 10.3011 10.3843 10.2196 10.4694L4.80261 5.28228L3 3.55619ZM0 6.29615L-3.66607 4.06685C-3.83969 4.35236 -4.00726 4.64195 -4.16862 4.93545L0 7.22723V6.29615ZM3 8.87654V8.12042L9.15036 11.8604C9.08997 11.9597 9.03181 12.0602 8.9759 12.1619L3 8.87654ZM0 11.3327L-6.08663 9.56138C-6.17987 9.88176 -6.26632 10.205 -6.34583 10.531L0 12.0787V11.3327ZM3 12.8104V12.2058L8.31586 13.7528C8.28392 13.8626 8.25428 13.9734 8.22699 14.0853L3 12.8104ZM0 15.6468L-6.9946 15.4966C-6.99819 15.6639 -7 15.8318 -7 16C-7 16.1682 -6.99819 16.3361 -6.9946 16.5034L0 16.3532V15.6468ZM3 16.2888V15.7112L8.00194 15.8186C8.00065 15.8787 8 15.9391 8 16C8 16.0609 8.00065 16.1213 8.00194 16.1814L3 16.2888ZM0 19.9213L-6.34583 21.469C-6.26632 21.795 -6.17986 22.1182 -6.08663 22.4386L0 20.6673V19.9213ZM3 19.7942V19.1896L8.22699 17.9147C8.25428 18.0266 8.28392 18.1374 8.31586 18.2472L3 19.7942ZM0 24.7728L-4.16861 27.0646C-4.00726 27.358 -3.83969 27.6476 -3.66607 27.9331L0 25.7038V24.7728ZM3 23.8796V23.1235L8.9759 19.8381C9.03181 19.9398 9.08997 20.0403 9.15036 20.1396L3 23.8796ZM0 31.3165L-0.614422 31.9048C-0.383039 32.1464 -0.146436 32.383 0.0952053 32.6144L0.683544 32H0V31.3165ZM3.55619 29H3V28.4438L4.80261 26.7177L10.2196 21.5306C10.3011 21.6157 10.3843 21.6989 10.4694 21.7804L5.28228 27.1974L3.55619 29ZM6.29615 32L4.06685 35.6661C4.35236 35.8397 4.64195 36.0073 4.93545 36.1686L7.22723 32H6.29615ZM8.87654 29H8.12042L11.8604 22.8496C11.9597 22.91 12.0602 22.9682 12.1619 23.0241L8.87654 29ZM11.3327 32L9.56138 38.0866C9.88176 38.1799 10.205 38.2663 10.531 38.3458L12.0787 32H11.3327ZM12.8104 29H12.2058L13.7528 23.6841C13.8626 23.7161 13.9734 23.7457 14.0853 23.773L12.8104 29ZM15.6468 32L15.4966 38.9946C15.6639 38.9982 15.8318 39 16 39C16.1682 39 16.3361 38.9982 16.5034 38.9946L16.3532 32H15.6468ZM16.2888 29H15.7112L15.8186 23.9981C15.8787 23.9993 15.9391 24 16 24C16.0609 24 16.1213 23.9993 16.1814 23.9981L16.2888 29ZM19.9213 32L21.469 38.3458C21.795 38.2663 22.1182 38.1799 22.4386 38.0866L20.6673 32H19.9213ZM19.7942 29H19.1896L17.9147 23.773C18.0266 23.7457 18.1374 23.7161 18.2472 23.6841L19.7942 29ZM24.7728 32L27.0646 36.1686C27.358 36.0073 27.6476 35.8397 27.9331 35.6661L25.7038 32H24.7728ZM23.8796 29H23.1235L19.8381 23.0241C19.9398 22.9682 20.0403 22.91 20.1396 22.8496L23.8796 29ZM31.3165 32L31.9048 32.6144C32.1464 32.383 32.383 32.1464 32.6144 31.9048L32 31.3165V32H31.3165ZM29 28.4438V29H28.4438L26.7177 27.1974L21.5306 21.7804C21.6157 21.6989 21.6989 21.6157 21.7804 21.5306L27.1974 26.7177L29 28.4438ZM32 25.7038L35.6661 27.9331C35.8397 27.6476 36.0073 27.358 36.1686 27.0646L32 24.7728V25.7038ZM29 23.1235V23.8796L22.8496 20.1396C22.91 20.0403 22.9682 19.9398 23.0241 19.8381L29 23.1235ZM29 19.7942L23.6841 18.2472C23.7161 18.1374 23.7457 18.0266 23.773 17.9147L29 19.1896V19.7942ZM32 20.6673V19.9213L38.3458 21.469C38.2663 21.795 38.1799 22.1182 38.0866 22.4386L32 20.6673Z" fill="#24282E"/>
</g>
<rect x="0.5" y="0.5" width="31" height="31" rx="1.5" stroke="#24282E"/>
</g>
<defs>
<clipPath id="clip0_367_7181">
<rect width="32" height="32" rx="2" fill="white"/>
</clipPath>
</defs>
</svg>
