<svg width="32" height="32" viewBox="0 0 32 32" fill="none" xmlns="http://www.w3.org/2000/svg">
<g id="&#208;&#146; &#208;&#183;&#208;&#176;&#209;&#130;&#208;&#181;&#208;&#188;&#208;&#189;&#208;&#181;&#208;&#189;&#208;&#189;&#208;&#190;&#208;&#188; &#208;&#188;&#208;&#181;&#209;&#129;&#209;&#130;&#208;&#181;">
<path id="Vector" d="M15.9998 4V16M15.9998 16V28M15.9998 16L5.60742 10M15.9998 16L26.3922 22M15.9998 16L5.60753 21.9999M15.9998 16L26.3922 9.99988M17.9996 5.5002L15.9996 6.5002L13.9996 5.5002M7.99957 9.09837L7.86559 11.3304L5.99957 12.5625M5.99959 19.438L7.86562 20.6701L7.99959 22.9021M13.9996 26.5002L15.9996 25.5002L17.9996 26.5002M24.0618 23.0625L24.1958 20.8305L26.0618 19.5984M26.0617 12.5626L24.1956 11.3305L24.0617 9.09847M15.9996 13.5002L17.9996 12.5002L18.4997 14.5L19.9997 16L18.4997 17.5L17.9997 19.5L15.9996 18.5002L13.9996 19.5002L13.4997 17.5L11.9997 16L13.4997 14.5L13.9996 12.5002L15.9996 13.5002ZM15.9996 10.5002L20.9996 7.5002L20.7315 13.3305L25.9997 16.0003L20.7317 18.8305L20.9996 24.5002L15.9996 21.5002L10.9996 24.5002L11.3297 18.6701L5.99959 16L11.3297 13.3304L10.9996 7.5002L15.9996 10.5002Z" stroke="#24282E" stroke-linejoin="round"/>
<rect x="0.5" y="0.5" width="31" height="31" rx="1.5" stroke="#24282E"/>
</g>
</svg>
