<svg width="48" height="48" viewBox="0 0 48 48" fill="none" xmlns="http://www.w3.org/2000/svg">
<path fill-rule="evenodd" clip-rule="evenodd" d="M38.0003 37.2564V16.2546C38.0002 15.534 37.7123 14.8429 37.2 14.3333L27.9325 6.79585C27.42 6.28637 26.725 6.00011 26.0003 6H14.767C13.6796 6 12.6368 6.42953 11.8679 7.1941C11.099 7.95867 10.667 8.99566 10.667 10.0769V37.2564C10.667 38.3377 11.099 39.3747 11.8679 40.1392C12.6368 40.9038 13.6796 41.3333 14.767 41.3333H33.9003C34.9877 41.3333 36.0306 40.9038 36.7995 40.1392C37.5684 39.3747 38.0003 38.3377 38.0003 37.2564ZM16.5003 19C15.948 19 15.5003 19.4477 15.5003 20C15.5003 20.5523 15.948 21 16.5003 21H31.5003C32.0526 21 32.5003 20.5523 32.5003 20C32.5003 19.4477 32.0526 19 31.5003 19H16.5003ZM15.5003 26.6667C15.5003 26.1144 15.948 25.6667 16.5003 25.6667H31.5003C32.0526 25.6667 32.5003 26.1144 32.5003 26.6667C32.5003 27.219 32.0526 27.6667 31.5003 27.6667H16.5003C15.948 27.6667 15.5003 27.219 15.5003 26.6667ZM16.5003 32.3333C15.948 32.3333 15.5003 32.781 15.5003 33.3333C15.5003 33.8856 15.948 34.3333 16.5003 34.3333H31.5003C32.0526 34.3333 32.5003 33.8856 32.5003 33.3333C32.5003 32.781 32.0526 32.3333 31.5003 32.3333H16.5003Z" fill="#3E683A"/>
</svg>
