<svg width="48" height="48" viewBox="0 0 48 48" fill="none" xmlns="http://www.w3.org/2000/svg">
<mask id="path-1-inside-1_806_47203" fill="white">
<path fill-rule="evenodd" clip-rule="evenodd" d="M11.7551 43.0004C16.5903 43.0004 20.5101 39.0806 20.5101 34.2453C20.5101 29.41 16.5903 25.4902 11.7551 25.4902C6.91977 25.4902 3 29.41 3 34.2453C3 39.0806 6.91977 43.0004 11.7551 43.0004ZM16.5031 32.9317C16.8936 32.5412 16.8936 31.908 16.5031 31.5175C16.1126 31.1269 15.4794 31.1269 15.0889 31.5175L10.745 35.8614L9.09499 34.2113C8.70446 33.8208 8.0713 33.8208 7.68077 34.2113C7.29025 34.6019 7.29025 35.235 7.68077 35.6256L10.0379 37.9827C10.4284 38.3732 11.0616 38.3732 11.4521 37.9827L16.5031 32.9317Z"/>
</mask>
<path fill-rule="evenodd" clip-rule="evenodd" d="M11.7551 43.0004C16.5903 43.0004 20.5101 39.0806 20.5101 34.2453C20.5101 29.41 16.5903 25.4902 11.7551 25.4902C6.91977 25.4902 3 29.41 3 34.2453C3 39.0806 6.91977 43.0004 11.7551 43.0004ZM16.5031 32.9317C16.8936 32.5412 16.8936 31.908 16.5031 31.5175C16.1126 31.1269 15.4794 31.1269 15.0889 31.5175L10.745 35.8614L9.09499 34.2113C8.70446 33.8208 8.0713 33.8208 7.68077 34.2113C7.29025 34.6019 7.29025 35.235 7.68077 35.6256L10.0379 37.9827C10.4284 38.3732 11.0616 38.3732 11.4521 37.9827L16.5031 32.9317Z" fill="#3E683A"/>
<path d="M16.5031 31.5175L18.6244 29.3962L18.6244 29.3962L16.5031 31.5175ZM16.5031 32.9317L18.6244 35.053H18.6244L16.5031 32.9317ZM15.0889 31.5175L12.9676 29.3962L12.9676 29.3962L15.0889 31.5175ZM10.745 35.8614L8.62369 37.9827L10.745 40.104L12.8663 37.9827L10.745 35.8614ZM7.68077 34.2113L9.80209 36.3327L9.80209 36.3327L7.68077 34.2113ZM7.68077 35.6256L5.55945 37.7469L5.55945 37.7469L7.68077 35.6256ZM10.0379 37.9827L12.1592 35.8614L12.1592 35.8614L10.0379 37.9827ZM11.4521 37.9827L9.3308 35.8614L11.4521 37.9827ZM17.5101 34.2453C17.5101 37.4237 14.9335 40.0004 11.7551 40.0004V46.0004C18.2472 46.0004 23.5101 40.7374 23.5101 34.2453H17.5101ZM11.7551 28.4902C14.9335 28.4902 17.5101 31.0669 17.5101 34.2453H23.5101C23.5101 27.7532 18.2472 22.4902 11.7551 22.4902V28.4902ZM6 34.2453C6 31.0669 8.57663 28.4902 11.7551 28.4902V22.4902C5.26292 22.4902 0 27.7532 0 34.2453H6ZM11.7551 40.0004C8.57663 40.0004 6 37.4237 6 34.2453H0C0 40.7374 5.26292 46.0004 11.7551 46.0004V40.0004ZM14.3818 33.6388C13.6007 32.8577 13.6007 31.5914 14.3818 30.8104L18.6244 35.053C20.1865 33.4909 20.1865 30.9582 18.6244 29.3962L14.3818 33.6388ZM17.2102 33.6388C16.4292 34.4198 15.1628 34.4198 14.3818 33.6388L18.6244 29.3962C17.0623 27.8341 14.5297 27.8341 12.9676 29.3962L17.2102 33.6388ZM12.8663 37.9827L17.2102 33.6388L12.9676 29.3962L8.62369 33.74L12.8663 37.9827ZM6.97366 36.3327L8.62369 37.9827L12.8663 33.74L11.2163 32.09L6.97366 36.3327ZM9.80209 36.3327C9.02105 37.1137 7.75471 37.1137 6.97366 36.3327L11.2163 32.09C9.65421 30.5279 7.12155 30.5279 5.55945 32.09L9.80209 36.3327ZM9.80209 33.5042C10.5831 34.2853 10.5831 35.5516 9.80209 36.3327L5.55945 32.09C3.99735 33.6521 3.99736 36.1848 5.55945 37.7469L9.80209 33.5042ZM12.1592 35.8614L9.80209 33.5042L5.55945 37.7469L7.91658 40.104L12.1592 35.8614ZM9.3308 35.8614C10.1118 35.0803 11.3782 35.0803 12.1592 35.8614L7.91658 40.104C9.47868 41.6661 12.0113 41.6661 13.5734 40.104L9.3308 35.8614ZM14.3818 30.8104L9.3308 35.8614L13.5734 40.104L18.6244 35.053L14.3818 30.8104Z" fill="#3E683A" mask="url(#path-1-inside-1_806_47203)"/>
<path fill-rule="evenodd" clip-rule="evenodd" d="M44.7549 12V14.9125H8.3877V12C8.3877 10.8954 9.28313 10 10.3877 10H42.7549C43.8594 10 44.7549 10.8954 44.7549 12ZM8.3877 19.8249H44.7549V32.9183C44.7549 34.0228 43.8594 34.9183 42.7549 34.9183H22.6019C22.6331 34.5987 22.6491 34.275 22.6491 33.9477C22.6491 28.1825 17.7006 23.509 11.5963 23.509C10.4804 23.509 9.40317 23.6652 8.3877 23.9556V19.8249Z" fill="#3E683A"/>
</svg>
